<svg width="1440" height="316" viewBox="0 0 1440 316" fill="none" xmlns="http://www.w3.org/2000/svg">
<path d="M-82.2573 209.194C-36.7306 179.331 22.1316 162.422 81.9691 161.34C104.925 160.89 128.006 162.803 150.586 166.872C186.763 173.459 221.34 185.806 251.657 202.698C289.298 223.588 322.57 252.58 357.453 276.601C367.134 283.251 377.256 289.487 387.963 294.905C429.926 316.064 469.524 319.252 506.145 306.55C540.783 294.652 566.029 264.403 581.448 232.247C586.484 221.744 591.092 211.025 595.403 200.319C613.055 156.845 628.919 111.955 659.156 71.5992C682.899 39.8412 721.769 10.8449 768.591 3.50558C808.393 -2.71319 847.668 5.38594 888.447 14.2828C953.485 28.5907 1012.18 40.9864 1060.77 53.0687C1066.23 54.3906 1071.5 55.7218 1076.86 57.0484C1118.77 67.6294 1158.68 78.936 1207.4 94.8815C1219.82 98.9554 1232.59 103.408 1245.88 108.072C1311.32 131.126 1392.08 157.644 1441.32 164.247" stroke="#AD1AAF" stroke-width="2" stroke-miterlimit="10"/>
</svg>
