<svg width="1440" height="301" viewBox="0 0 1440 301" fill="none" xmlns="http://www.w3.org/2000/svg">
<path d="M-86.2209 196.224C-45.0911 164.699 8.65796 143.811 65.9205 136.204C87.9429 133.266 110.432 132.284 132.905 133.359C168.929 135.139 204.782 142.228 238.268 153.857C280.018 168.34 318.37 190.023 350.458 216.194C359.095 223.222 367.599 230.731 376.289 238.152C410.886 268.081 445.827 296.886 492.862 299.017C543.099 301.234 583.722 269.654 612.28 237.298C621.586 226.655 630.464 215.794 639.012 204.712C673.647 159.968 704.372 112.876 747.991 73.3233C777.511 46.5386 816.074 23.203 858.675 11.1467C895.803 0.614222 935.37 -1.56948 974.752 6.53873C1036.71 19.3561 1086.28 54.5897 1126.09 92.7364C1130.55 96.9553 1134.83 101.262 1139.11 105.569C1172.68 139.66 1202.82 176.364 1242.27 207.488C1252.32 215.398 1262.93 222.966 1274.27 230.103C1330.37 264.95 1412.98 283.754 1468.56 257.321" stroke="#AD1AAF" stroke-width="2" stroke-miterlimit="10"/>
</svg>
