<svg width="1440" height="312" viewBox="0 0 1440 312" fill="none" xmlns="http://www.w3.org/2000/svg">
<path d="M-82.7959 207.143C-37.7919 177.044 20.4178 159.678 79.945 157.74C102.761 156.98 125.791 158.502 148.33 162.26C184.425 168.224 219.216 179.94 249.945 196.194C288.088 216.366 322.026 244.402 356.548 268.697C366.142 275.436 376.078 281.764 386.522 287.436C427.54 309.686 466.66 315.902 504.466 305.268C541.116 294.925 568.268 264.719 585.283 232.541C590.913 222.002 596.017 211.25 600.823 200.512C620.645 156.821 638.381 111.727 670.216 71.3423C694.752 40.2323 733.525 11.9283 779.771 3.97814C819.304 -2.78605 858.608 4.05392 899.084 12.8935C963.799 26.9916 1021.3 42.2991 1068.86 57.6807C1074.17 59.4057 1079.38 61.0568 1084.5 62.7911C1125.42 76.273 1163.98 90.8139 1211.57 108.644C1223.66 113.211 1236.17 117.995 1249.21 122.991C1313.47 147.543 1394.51 173.121 1444.47 175.586" stroke="#AD1AAF" stroke-width="2" stroke-miterlimit="10"/>
</svg>
