<svg width="1400" height="424" viewBox="0 0 1400 424" fill="none" xmlns="http://www.w3.org/2000/svg">
<path d="M-64.9432 298.735C-13.7533 275.015 50.6069 265.243 112.096 272.035C124.208 273.34 136.119 275.354 147.799 277.847C195.68 288.31 239.548 308.537 272.037 335.602C296.535 355.953 317.55 381.293 343.722 399.386C359.996 410.62 378.275 419.112 400.797 421.646C450.383 427.201 497.576 396.892 516.387 360.508C521.797 350.056 525.363 339.222 527.614 328.215C533.371 300.927 531.098 272.377 528.306 245.098C524.374 206.736 519.258 167.729 534.73 132.357C548.246 101.514 581.734 74.1802 624.653 67.5093C631.076 66.5093 637.662 65.969 644.422 65.9656C687.473 65.9852 725.975 86.2288 767.609 93.9455C835.676 106.583 905.967 84.3871 967.037 59.5061C986.991 51.413 1006.89 42.9329 1027.08 35.14C1068.61 19.1122 1110.73 6.01508 1157.38 2.59656C1171.16 1.56565 1185.07 1.54054 1199.01 2.37107C1279.09 7.05104 1359.22 39.2168 1399.03 86.1081" stroke="#AD1AAF" stroke-width="2" stroke-miterlimit="10"/>
</svg>
