<svg width="1404" height="354" viewBox="0 0 1404 354" fill="none" xmlns="http://www.w3.org/2000/svg">
<path d="M-40.524 294.871C8.64327 279.52 68.1624 272.091 124.563 274.552C135.685 275.052 146.553 275.878 157.277 277.103C201.162 281.959 240.797 292.829 271.56 307.965C294.63 319.298 315.052 333.82 338.743 343.159C353.388 348.994 369.457 352.876 388.573 352.136C431.082 350.613 471.781 322.223 492.344 290.062C498.242 280.827 502.92 271.414 506.686 261.887C516.078 238.266 520.229 214.183 524.407 191.749C530.328 160.276 535.434 129.391 557.249 104.872C576.914 82.8121 612.002 67.1788 653.968 63.1665C660.257 62.5571 666.589 62.26 673.162 62.2659C714.688 62.2819 752.22 74.5077 791.859 76.7337C856.28 80.3115 921.731 55.9456 981.544 34.7517C1001.39 27.7698 1021.31 21.2563 1041.6 16.0608C1083.16 5.46716 1123.81 0.573773 1168.53 1.38269C1181.71 1.62869 1195.06 2.41656 1208.48 3.67288C1285.6 10.5052 1364.56 27.8589 1402.72 50.4275" stroke="#AD1AAF" stroke-width="2" stroke-miterlimit="10"/>
</svg>
