<svg width="1395" height="318" viewBox="0 0 1395 318" fill="none" xmlns="http://www.w3.org/2000/svg">
<path d="M0.341628 314.211C45.0126 317.961 93.7613 315.817 138.818 308.541C147.69 307.092 156.343 305.495 164.766 303.672C199.513 296.091 230.166 285.536 256.685 273.909C276.891 264.956 295.129 255.463 313.591 244.692C324.392 238.4 335.636 231.692 347.333 223.933C374.024 206.28 400.512 182.776 424.972 160.476C431.978 154.126 438.984 147.777 446.033 141.742C463.496 126.583 481.736 112.734 501.234 101.518C528.876 85.7202 558.698 73.4622 592.179 73.3851C627.455 73.3025 663.727 81.9631 703.76 83.8731C709.679 84.1478 715.675 84.2605 721.561 84.2992C759.642 84.3217 794.966 78.7725 830.03 68.405C886.194 51.9724 940.911 22.7791 997.998 10.1833C1017.45 5.93821 1037.37 3.65081 1058.01 4.41804C1099.19 5.95716 1136.93 19.5374 1177.01 29.7606C1188.78 32.768 1200.82 35.5252 1213.06 37.5603C1283.64 49.2725 1359.69 33.1678 1394.25 0.888058" stroke="#AD1AAF" stroke-width="2" stroke-miterlimit="10"/>
</svg>
