<svg width="1440" height="307" viewBox="0 0 1440 307" fill="none" xmlns="http://www.w3.org/2000/svg">
<path d="M-83.7415 204.122C-39.8839 173.562 17.1062 155.202 76.0211 151.629C98.6561 150.243 121.494 151.065 144.028 154.037C180.165 158.82 215.175 169.196 246.727 184.167C285.948 202.733 321.141 229.007 354.941 253.844C364.25 260.685 373.835 267.355 383.751 273.535C422.976 297.957 460.983 310.565 501.402 303.671C542.02 296.768 572.928 266.265 593.225 233.968C599.847 223.367 606.052 212.628 612.036 201.741C636.109 157.711 657.667 112.059 692.72 71.7849C718.73 41.9088 757.395 14.9173 802.695 5.81442C841.489 -2.03169 880.94 2.1994 921.093 10.8291C985.072 24.5858 1040.27 45.5629 1085.63 67.4794C1090.65 69.9331 1095.67 72.3868 1100.48 74.7712C1139.33 94.2255 1175.47 115.073 1220.79 136.675C1232.32 142.225 1244.25 147.834 1256.87 153.411C1318.85 180.953 1400.32 204.568 1451.86 198.811" stroke="#AD1AAF" stroke-width="2" stroke-miterlimit="10"/>
</svg>
