<svg width="1403" height="368" viewBox="0 0 1403 368" fill="none" xmlns="http://www.w3.org/2000/svg">
<path d="M-45.438 295.796C4.1806 278.807 64.7048 270.874 122.107 274.224C133.346 274.874 144.54 275.918 155.402 277.448C200.028 283.435 240.602 296.12 271.699 313.719C295.108 326.817 315.539 343.583 339.767 354.681C354.755 361.586 371.245 366.381 391.056 366.394C434.943 366.299 477.059 337.507 497.191 304.49C502.955 295.045 507.38 285.27 510.904 275.459C519.582 251.056 522.415 226.143 525.255 202.719C529.278 169.83 532.156 137.307 552.763 110.62C571.076 86.7853 605.929 68.8412 648.104 64.2777C654.38 63.5916 660.799 63.2126 667.369 63.2184C709.278 63.2158 746.925 77.0579 786.999 80.3564C852.142 85.6959 918.626 61.8003 978.621 39.9338C998.531 32.7276 1018.39 25.8376 1038.7 20.1025C1080.19 8.43471 1121.2 1.88711 1166.28 1.81414C1179.52 1.82128 1193.05 2.4425 1206.54 3.53583C1284.27 9.93239 1363.42 30.2212 1401.95 57.6671" stroke="#AD1AAF" stroke-width="2" stroke-miterlimit="10"/>
</svg>
