<svg width="1403" height="432" viewBox="0 0 1403 432" fill="none" xmlns="http://www.w3.org/2000/svg">
<path d="M-75.6981 284.852C-24.2305 257.479 41.4188 246.331 104.706 253.968C128.979 256.962 152.827 262.622 175.427 270.751C211.63 283.772 244.422 303.021 270.289 326.794C302.293 356.118 328.598 394.499 367.102 415.505C378.286 421.598 390.452 426.167 404.116 428.644C455.624 438.073 504.275 409.742 524.223 373.722C539.306 346.331 541.498 314.871 538.818 283.405C537.993 273.173 536.664 262.886 535.258 252.758C529.525 211.474 522.611 168.845 536.787 129.202C550.666 90.2737 591.735 54.5926 644.24 54.0162C687.604 53.4761 726.576 75.7055 768.889 85.4854C838.12 101.56 909.191 82.9234 969.588 59.726C976.388 57.153 983.067 54.43 989.758 51.7843C1043.15 30.3913 1096.1 7.22944 1157.55 2.34621C1173.08 1.07871 1189.01 1.27091 1204.79 2.55924C1282.86 9.27421 1360.92 45.9467 1401.25 97.2916" stroke="#AD1AAF" stroke-width="2" stroke-miterlimit="10"/>
</svg>
