<svg width="1421" height="347" viewBox="0 0 1421 347" fill="none" xmlns="http://www.w3.org/2000/svg">
<path d="M-79.2539 221.802C-30.4292 193.222 32.1863 179.456 93.8364 183.237C117.525 184.638 141.075 188.636 163.66 195.033C199.807 205.189 233.495 221.347 261.335 242.018C295.929 267.63 325.43 301.8 362.276 324.245C372.806 330.58 383.999 335.941 396.373 339.756C443.594 354.417 487.112 340.055 515.684 314.778C538.923 294.147 552.302 263.382 557.861 231.493C559.717 221.124 561.056 210.623 562.308 200.205C567.217 157.83 571.052 114.17 592.109 74.0986C610.888 38.4504 650.56 5.58993 700.441 1.99604C742.222 -1.13965 781.351 14.7634 822.972 24.1924C890.291 39.4804 955.857 34.8373 1010.9 27.548C1017.06 26.7101 1023.12 25.8767 1029.26 24.9608C1077.48 17.9915 1124.52 10.3713 1180.19 14.8253C1194.29 15.9696 1208.81 18.0358 1223.44 20.8818C1295.77 34.9929 1375.17 67.1378 1419.5 98.4148" stroke="#AD1AAF" stroke-width="2" stroke-miterlimit="10"/>
</svg>
