<svg width="1409" height="307" viewBox="0 0 1409 307" fill="none" xmlns="http://www.w3.org/2000/svg">
<path d="M-0.706192 305.129C45.1632 303.671 97.0159 300.023 145.14 295.36C154.587 294.436 163.934 293.516 172.963 292.453C210.189 288.306 243.356 283.636 271.073 279.225C292.15 275.843 310.871 272.732 330.819 267.656C342.671 264.632 355.219 260.859 368.973 254.964C400.063 241.654 430.363 216.704 453.86 191.598C460.552 184.37 466.957 177.234 473.066 170.113C488.319 152.548 502.777 135.736 518.075 121.426C539.852 101.248 562.852 84.1906 593.274 76.95C624.181 69.607 660.318 72.8205 700.844 73.1251C706.93 73.1545 712.918 73.1887 718.994 73.1392C758.079 73.1148 793.985 72.4465 830.328 65.4815C888.741 54.3726 946.456 26.4547 1004.33 11.3991C1023.88 6.34176 1043.86 2.93262 1064.38 2.03998C1105.72 0.31956 1144.28 8.82088 1185.61 16.4756C1197.78 18.7587 1210.15 20.9535 1222.77 22.8184C1295.19 33.29 1372.12 26.3091 1407.64 8.89667" stroke="#AD1AAF" stroke-width="2" stroke-miterlimit="10"/>
</svg>
