<svg width="1406" height="306" viewBox="0 0 1406 306" fill="none" xmlns="http://www.w3.org/2000/svg">
<path d="M-20.7141 297.634C26.8689 289.125 82.5414 283.641 134.823 282.517C145.057 282.271 155.224 282.266 165.105 282.354C205.729 282.731 242.053 285.927 271.296 291.281C293.389 295.387 312.904 301.042 334.739 303.258C348.083 304.609 362.266 304.81 378.759 301.495C415.533 294.13 451.144 267.328 473.128 238.555C479.479 230.33 484.918 221.991 489.862 213.675C502.193 193.044 511.443 172.48 521.181 154.032C534.97 128.023 548.798 103.756 575.154 88.0091C600.222 73.0364 636.068 66.9046 677.381 65.0311C683.521 64.7409 689.783 64.6034 696.066 64.6234C736.339 64.6216 773.118 70.4111 811.186 68.1363C872.575 64.363 934.285 38.1495 993.109 19.9964C1012.82 13.9932 1032.78 9.00878 1053.19 5.90458C1094.61 -0.253174 1134.22 1.44056 1177.26 5.66601C1189.89 6.89164 1202.76 8.42285 1215.83 9.94468C1290.68 18.6097 1368.56 23.8828 1405.42 26.5783" stroke="#AD1AAF" stroke-width="2" stroke-miterlimit="10"/>
</svg>
