<svg width="1391" height="325" viewBox="0 0 1391 325" fill="none" xmlns="http://www.w3.org/2000/svg">
<path d="M0.366255 320.542C44.5749 326.049 92.3807 324.347 136.312 316.183C144.963 314.588 153.385 312.766 161.664 310.635C195.563 301.995 225.338 289.437 251.519 275.386C271.464 264.557 289.508 252.947 307.522 240.39C318.073 233.01 328.679 225.311 339.794 216.955C365.077 197.805 390.141 174.869 415.124 153.518C422.26 147.407 429.418 141.453 436.795 135.646C454.968 121.341 474.524 108.394 495.358 98.2349C524.994 83.9423 557.113 74.6743 591.621 75.577C628.22 76.4602 664.731 88.343 704.537 90.815C710.466 91.1681 716.373 91.3638 722.248 91.3239C760.026 91.3604 795.12 84.1669 829.82 72.6413C885.222 54.364 938.976 24.7736 995.668 13.0011C1015.05 9.00122 1035.03 7.10934 1055.64 8.43055C1096.76 11.0777 1134.23 26.3167 1173.93 37.4164C1185.63 40.6609 1197.49 43.5817 1209.64 45.6978C1279.58 57.8226 1355.4 38.7398 1389.56 1.45176" stroke="#AD1AAF" stroke-width="2" stroke-miterlimit="10"/>
</svg>
