<svg width="1431" height="329" viewBox="0 0 1431 329" fill="none" xmlns="http://www.w3.org/2000/svg">
<path d="M-80.7645 215.017C-33.586 185.793 27.1618 170.497 87.9033 171.814C111.277 172.291 134.598 175.289 157.132 180.529C193.246 188.91 227.375 203.132 256.553 221.917C292.622 245.182 323.96 276.779 359.93 300.048C369.992 306.583 380.739 312.298 392.236 316.954C436.831 334.857 478.167 329.056 510.944 310.272C539.657 293.805 559.198 263.517 569.63 231.452C573.07 220.976 576.004 210.445 578.829 199.84C590.152 156.868 600.005 112.626 625.546 72.3713C646.912 38.6907 686.091 7.79465 734.43 2.21551C775.223 -2.45781 814.426 9.55731 855.629 18.7227C921.805 33.4857 984.001 37.4124 1035.82 39.7795C1041.64 40.0573 1047.34 40.2616 1053.05 40.4658C1098.11 42.2059 1141.59 44.0204 1193.79 54.2434C1207 56.8508 1220.69 60.0655 1234.65 63.8185C1303.55 82.3907 1383.59 111.777 1430.42 130.756" stroke="#AD1AAF" stroke-width="2" stroke-miterlimit="10"/>
</svg>
