<svg width="1413" height="373" viewBox="0 0 1413 373" fill="none" xmlns="http://www.w3.org/2000/svg">
<path d="M-78.1776 239.581C-28.3169 211.484 35.5039 198.71 97.9512 204.089C121.915 206.1 145.564 210.867 168.129 217.877C204.325 229.183 237.58 246.578 264.702 268.567C298.203 295.661 326.458 331.614 364.017 353.506C374.731 359.739 386.371 364.755 399.269 368.067C448.182 380.657 493.69 360.673 518.849 330.991C538.716 307.665 547.753 276.545 549.936 244.806C550.693 234.434 550.955 224.085 551.118 213.74C551.784 171.735 551.378 128.449 569.548 88.5221C586.435 51.5529 626.614 17.4878 677.528 15.0273C719.939 12.9647 759.013 31.4187 800.938 40.9686C869.077 56.5748 936.834 46.3568 994.055 32.6378C1000.41 31.0876 1006.76 29.5373 1013.11 27.9092C1063.39 15.1413 1112.83 1.23855 1170.85 1.96938C1185.6 2.14053 1200.62 3.47414 1215.76 5.74144C1290.45 16.8908 1369.3 50.9468 1412.05 90.2938" stroke="#AD1AAF" stroke-width="2" stroke-miterlimit="10"/>
</svg>
