<svg width="1408" height="303" viewBox="0 0 1408 303" fill="none" xmlns="http://www.w3.org/2000/svg">
<path d="M-10.7188 301.177C36.0707 296.173 89.7943 291.557 139.968 288.699C149.866 288.15 159.566 287.611 168.979 287.164C207.922 285.317 242.721 284.542 271.11 285.025C292.697 285.353 311.825 286.673 332.768 285.203C345.32 284.369 358.733 282.539 373.872 278.003C407.864 267.639 440.725 241.658 463.571 214.639C470.089 206.852 476.013 199.093 481.54 191.353C495.38 172.16 507.193 153.462 519.715 137.037C537.398 113.843 555.91 93.0768 584.368 81.6237C612.253 70.3568 648.364 68.9621 689.351 68.2114C695.417 68.0827 701.593 68.0284 707.779 68.0532C747.475 68.0796 783.828 70.6512 820.984 65.9453C880.903 58.4891 940.639 31.3917 999 14.7016C1018.69 9.15359 1038.56 4.94936 1059.13 2.93949C1100.48 -1.01061 1139.56 4.05658 1181.87 10.0847C1194.29 11.8826 1206.91 13.7501 1219.69 15.371C1293.3 24.9265 1370.78 24.1154 1406.97 16.7503" stroke="#AD1AAF" stroke-width="2" stroke-miterlimit="10"/>
</svg>
