<svg width="1417" height="353" viewBox="0 0 1417 353" fill="none" xmlns="http://www.w3.org/2000/svg">
<path d="M-78.7176 223.691C-29.3746 195.352 33.7998 182.124 95.9424 186.661C119.769 188.367 143.368 192.75 165.894 199.456C202.12 210.225 235.581 226.924 263.018 248.296C297.12 274.687 325.944 309.713 363.146 331.882C373.774 338.204 385.24 343.39 397.777 346.958C445.839 360.544 490.358 343.407 517.229 315.964C538.688 294.027 549.934 263.004 553.909 231.224C555.161 220.817 556.016 210.428 556.773 200.045C559.505 157.818 561.274 114.381 580.931 74.3409C598.71 37.9946 638.685 4.52871 689.138 1.53876C731.283 -1.06212 770.379 16.0789 812.114 25.6487C879.849 41.135 946.5 33.6234 1002.59 23.157C1008.9 21.9991 1015.1 20.768 1021.3 19.5368C1070.6 9.62364 1118.79 -1.10003 1175.69 1.48801C1190.11 2.14522 1204.87 3.80576 1219.76 6.40105C1293.28 19.0297 1372.41 52.1704 1416 87.4458" stroke="#AD1AAF" stroke-width="2" stroke-miterlimit="10"/>
</svg>
