<svg width="1401" height="409" viewBox="0 0 1401 409" fill="none" xmlns="http://www.w3.org/2000/svg">
<path d="M-60.0417 297.74C-9.30144 275.641 54.1558 266.364 114.647 272.279C126.543 273.44 138.218 275.157 149.77 277.426C196.913 286.771 239.834 305.127 272.001 329.833C296.249 348.357 317.167 371.56 342.805 387.914C358.834 398.086 376.584 405.604 398.435 407.548C446.537 411.623 492.526 381.79 511.659 346.189C517.102 335.952 520.921 325.479 523.512 314.75C529.971 288.165 529.034 260.598 527.566 234.226C525.626 197.268 522.524 159.819 539.311 126.668C553.978 97.5934 587.899 72.5349 630.609 66.4094C636.946 65.4899 643.545 65.0261 650.307 65.0228C693.066 64.9787 731.364 83.7055 772.653 90.2816C840.001 101.18 909.35 78.4472 970.152 54.319C990.145 46.445 1010.01 38.3432 1030.18 31.0846C1071.67 16.1247 1113.54 4.65661 1159.83 2.10798C1173.44 1.31708 1187.29 1.4515 1201.14 2.36549C1280.61 7.47286 1360.44 36.6644 1399.98 78.7318" stroke="#AD1AAF" stroke-width="2" stroke-miterlimit="10"/>
</svg>
