<svg width="1408" height="304" viewBox="0 0 1408 304" fill="none" xmlns="http://www.w3.org/2000/svg">
<path d="M-5.72942 302.637C40.6007 299.407 93.395 295.314 142.545 291.553C152.212 290.776 161.691 290.088 170.962 289.331C209.047 286.332 242.981 283.611 271.133 281.64C292.471 280.151 311.396 279.254 331.792 275.981C343.994 274.051 356.981 271.288 371.427 266.071C403.924 254.274 435.549 228.763 458.721 202.698C465.382 195.226 471.436 187.704 477.314 180.349C491.867 162.008 504.997 144.211 518.858 128.844C538.539 107.159 559.389 88.2015 588.741 78.9384C618.182 69.5917 654.208 70.5075 694.97 70.3243C701.046 70.2747 707.123 70.2252 713.309 70.2499C752.705 70.2904 788.83 71.2016 825.635 65.4016C884.796 56.077 943.572 28.5629 1001.65 12.7697C1021.27 7.46642 1041.2 3.6595 1061.74 2.20842C1103.14 -0.628815 1141.97 6.19706 1183.67 12.9657C1196.02 15.0043 1208.46 17.0382 1221.17 18.821C1294.24 28.8734 1371.39 24.8981 1407.2 12.5459" stroke="#AD1AAF" stroke-width="2" stroke-miterlimit="10"/>
</svg>
