<svg width="1402" height="381" viewBox="0 0 1402 381" fill="none" xmlns="http://www.w3.org/2000/svg">
<path d="M-50.3535 295.693C-0.393572 276.997 61.1457 268.64 119.538 272.797C130.993 273.592 142.325 274.941 153.414 276.692C198.88 283.802 240.203 298.384 271.625 318.361C295.284 333.3 315.91 352.216 340.576 365.073C355.908 373.044 372.829 378.828 393.313 379.435C438.577 380.762 482.011 351.571 501.809 317.692C507.529 307.954 511.722 297.974 514.906 287.885C522.781 262.783 524.485 236.952 525.79 212.548C527.827 178.327 528.678 144.161 548.076 115.311C565.147 89.7785 599.745 69.3753 642.139 64.34C648.501 63.5728 654.917 63.1945 661.585 63.1957C703.777 63.1792 741.649 78.706 782.059 83.0777C847.945 90.3281 915.352 66.8251 975.605 44.1261C995.477 36.7002 1015.47 29.4253 1035.7 23.1566C1077.23 10.413 1118.49 2.22156 1163.94 1.27016C1177.34 1.03472 1190.93 1.49459 1204.51 2.50345C1282.85 8.46666 1362.2 31.7593 1401.1 64.0664" stroke="#AD1AAF" stroke-width="2" stroke-miterlimit="10"/>
</svg>
