<svg width="1440" height="309" viewBox="0 0 1440 309" fill="none" xmlns="http://www.w3.org/2000/svg">
<path d="M-83.2219 205.135C-38.7413 174.802 18.8041 156.902 78.0309 154.186C100.806 153.111 123.696 154.325 146.183 157.693C182.305 163.106 217.2 174.114 248.341 189.727C287.072 209.095 321.589 236.255 355.75 260.821C365.146 267.574 374.918 274.152 385.098 280.078C425.269 303.411 463.833 312.822 502.891 304.02C541.475 295.397 570.5 265.002 589.21 232.801C595.337 222.23 600.947 211.526 606.436 200.669C628.339 156.849 648.025 111.393 681.479 71.1406C706.807 40.6829 745.472 12.9967 791.24 4.4309C830.403 -2.87417 869.737 2.70411 910.096 11.3975C974.388 25.2887 1030.79 43.4274 1077.2 62.1166C1082.37 64.1665 1087.44 66.2996 1092.51 68.3541C1132.34 84.8232 1169.74 102.514 1216.2 122.229C1227.95 127.29 1240.22 132.484 1253 137.734C1316.07 163.783 1397.37 188.339 1448.18 186.733" stroke="#AD1AAF" stroke-width="2" stroke-miterlimit="10"/>
</svg>
