<svg width="1440" height="302" viewBox="0 0 1440 302" fill="none" xmlns="http://www.w3.org/2000/svg">
<path d="M-85.7071 197.853C-44.0389 166.47 10.3941 146.058 67.9776 139.213C90.0489 136.583 112.697 135.988 135.13 137.464C171.25 139.879 206.902 147.627 239.988 159.937C281.263 175.268 318.95 197.904 351.411 223.879C360.149 230.918 368.92 238.193 377.779 245.385C413.323 274.227 448.933 299.894 494.632 300.191C543.028 300.519 581.703 269.119 608.574 236.691C617.387 226.047 625.662 215.112 633.728 204.107C666.303 159.439 695.187 112.566 737.1 72.7682C765.948 45.3212 804.524 21.2195 847.706 9.66406C885.216 -0.35475 924.669 -1.269 964.281 7.00563C1026.68 20.0694 1077.37 52.4763 1118.34 87.4829C1122.86 91.3916 1127.38 95.3003 1131.71 99.2184C1166.29 130.484 1197.69 164.041 1238.29 193.357C1248.58 200.799 1259.54 208.05 1271.12 214.795C1328.33 248.241 1410.79 268.047 1465.56 245.716" stroke="#AD1AAF" stroke-width="2" stroke-miterlimit="10"/>
</svg>
