<svg width="1406" height="412" viewBox="0 0 1406 412" fill="none" xmlns="http://www.w3.org/2000/svg">
<path d="M-76.6779 269.659C-25.7122 242.012 39.3002 230.322 102.313 237.211C126.455 239.907 150.272 245.27 172.829 253.032C208.973 265.542 241.981 284.125 268.268 307.312C300.773 335.902 327.664 373.49 365.922 394.792C376.914 400.909 388.909 405.654 402.326 408.46C453.011 418.965 500.589 393.426 522.23 359.425C538.919 333.454 543.318 302.051 542.317 270.431C541.986 260.151 541.249 249.812 540.336 239.637C536.763 198.077 532.019 155.244 547.498 115.525C562.38 77.237 603.159 42.1093 655.098 40.8571C698.112 39.7872 737.117 60.7429 779.341 70.4732C848.177 86.372 918.186 70.55 977.559 50.4662C984.208 48.2063 990.856 45.9463 997.395 43.6135C1049.73 25.106 1101.54 4.98501 1161.88 1.93704C1177.18 1.1453 1192.77 1.66635 1208.32 3.35904C1285.34 11.5448 1363.6 47.3609 1404.77 94.7339" stroke="#AD1AAF" stroke-width="2" stroke-miterlimit="10"/>
</svg>
