<svg width="1440" height="302" viewBox="0 0 1440 302" fill="none" xmlns="http://www.w3.org/2000/svg">
<path d="M-85.1928 198.978C-42.8998 167.815 12.0908 147.86 69.9884 141.874C92.2008 139.556 114.891 139.276 137.377 141.145C173.472 144.115 209.021 152.578 241.696 165.536C282.383 181.682 319.494 205.208 352.318 230.919C361.243 237.867 370.201 245.052 379.324 251.991C415.817 279.746 451.946 300.466 496.334 300.666C542.912 300.842 579.499 268.046 604.674 235.632C612.992 225.015 620.672 214.112 628.243 203.135C658.637 158.586 685.769 112.052 725.965 72.112C754.131 44.0734 792.696 19.1887 836.37 8.32746C874.152 -1.14579 913.676 -0.795179 953.407 7.62915C1016.22 20.8268 1068.03 50.4741 1110.03 82.0904C1114.7 85.5946 1119.27 89.1822 1123.74 92.6957C1159.41 120.966 1191.98 151.364 1233.71 178.793C1244.33 185.741 1255.53 192.581 1267.38 199.074C1325.78 231.025 1408.08 251.861 1462.01 233.62" stroke="#AD1AAF" stroke-width="2" stroke-miterlimit="10"/>
</svg>
