<svg width="1406" height="317" viewBox="0 0 1406 317" fill="none" xmlns="http://www.w3.org/2000/svg">
<path d="M-25.6858 296.406C22.2532 286.237 78.9255 280.163 132.225 280.021C142.687 280.002 152.972 280.149 163.091 280.541C204.461 282.069 241.738 287.189 271.307 294.967C293.642 300.871 313.453 308.714 335.739 312.802C349.428 315.24 364.133 316.365 381.214 313.741C419.47 307.824 456.306 280.625 477.957 250.979C484.165 242.462 489.46 233.831 494.161 225.227C505.777 203.804 513.707 182.397 522.104 162.944C533.902 135.582 545.498 109.652 570.843 91.6933C594.457 74.9228 630.17 66.4377 671.694 64.0042C677.921 63.6313 684.17 63.4156 690.551 63.4309C731.21 63.4104 768.106 70.8421 806.513 69.6627C868.64 67.7596 931.29 42.0309 990.389 23.1119C1010.16 16.8811 1030.05 11.4359 1050.49 7.8622C1091.95 0.608229 1131.82 0.625106 1175.34 4.02793C1188.13 5.00593 1201.07 6.37206 1214.22 7.80743C1289.6 16.0332 1367.77 24.2853 1405 32.0173" stroke="#AD1AAF" stroke-width="2" stroke-miterlimit="10"/>
</svg>
