<svg width="1438" height="320" viewBox="0 0 1438 320" fill="none" xmlns="http://www.w3.org/2000/svg">
<path d="M-81.7328 211.148C-35.6949 181.445 23.8407 165.15 83.9768 164.843C107.072 164.703 130.194 166.928 152.736 171.468C188.897 178.68 223.357 191.654 253.262 209.181C290.413 230.864 323.008 260.73 358.249 284.476C368.028 291.116 378.425 297.175 389.396 302.339C432.193 322.336 472.367 322.496 507.725 307.892C540.352 294.442 563.703 264.229 577.426 232.103C581.967 221.633 585.98 210.951 589.795 200.278C605.367 156.94 619.26 112.261 647.899 71.9375C670.85 39.5347 709.827 9.92763 757.126 3.20333C797.296 -2.47519 836.54 6.88029 877.435 15.9214C942.883 30.3548 1002.68 39.9259 1052.42 48.7873C1057.94 49.7898 1063.44 50.714 1068.86 51.7212C1111.85 59.3224 1152.93 67.4872 1202.77 81.472C1215.42 85.058 1228.52 89.0957 1242.07 93.4283C1308.7 114.986 1389.18 142.439 1437.58 153.178" stroke="#AD1AAF" stroke-width="2" stroke-miterlimit="10"/>
</svg>
