<svg width="1400" height="311" viewBox="0 0 1400 311" fill="none" xmlns="http://www.w3.org/2000/svg">
<path d="M0.317665 308.81C45.3517 310.802 95.1422 308.21 141.214 301.751C150.219 300.532 159.093 299.082 167.758 297.562C203.364 291.122 234.796 282.58 261.74 273.299C282.207 266.227 300.628 258.776 319.56 249.953C330.712 244.748 342.393 239.043 354.773 231.878C382.959 215.641 410.685 191.656 434.831 168.476C441.795 161.804 448.472 155.226 455.27 148.8C472.033 132.865 489.047 118.029 507.108 105.759C532.767 88.5315 560.471 75.33 592.843 72.2137C626.592 68.953 662.916 76.5108 703.088 77.9409C709.096 78.1325 715.092 78.2453 720.969 78.2053C759.351 78.2137 794.906 74.3127 830.423 65.0227C887.336 50.3607 943.016 21.5664 1000.4 8.15062C1019.92 3.65995 1039.79 0.97625 1060.36 1.19292C1101.6 1.70035 1139.61 13.5388 1180.07 22.962C1192.02 25.7269 1204.14 28.325 1216.46 30.2788C1287.69 41.5769 1364.07 28.5315 1398.81 1.20283" stroke="#AD1AAF" stroke-width="2" stroke-miterlimit="10"/>
</svg>
