<svg width="1440" height="304" viewBox="0 0 1440 304" fill="none" xmlns="http://www.w3.org/2000/svg">
<path d="M-84.7805 201.04C-41.9619 170.102 13.6959 150.677 71.9957 145.466C94.3493 143.459 117.093 143.573 139.631 145.835C175.711 149.438 211.147 158.537 243.412 172.143C283.611 189.098 320.156 213.593 353.232 238.964C362.256 245.905 371.389 252.92 380.876 259.602C418.306 286.194 455.109 305.289 498.131 302.068C542.726 298.693 577.38 267.823 600.969 235.496C608.692 224.912 615.976 214.031 622.952 203.086C651.276 158.732 676.557 112.54 714.925 72.385C742.409 43.7554 780.965 18.0884 825.218 7.8376C863.371 -1.09509 902.779 0.607495 942.707 9.01925C1005.85 22.434 1058.85 49.1615 1102 77.5424C1106.82 80.721 1111.55 83.9044 1116.17 87.0924C1152.83 112.453 1186.65 139.611 1229.62 165.149C1240.57 171.603 1252.02 178.034 1264.03 184.279C1323.62 214.735 1405.65 236.526 1458.75 222.45" stroke="#AD1AAF" stroke-width="2" stroke-miterlimit="10"/>
</svg>
