<svg width="1386" height="332" viewBox="0 0 1386 332" fill="none" xmlns="http://www.w3.org/2000/svg">
<path d="M0.389174 325.873C44.1248 333.056 91.0094 331.952 133.914 322.896C142.345 321.156 150.623 319.027 158.671 316.672C191.81 306.892 220.718 292.412 246.452 275.869C266.147 263.246 284.085 249.441 301.442 235.032C311.643 226.57 321.811 217.873 332.244 208.926C356.021 188.287 379.86 165.908 405.166 145.513C412.432 139.639 419.83 133.996 427.359 128.584C446.232 115.051 467.113 103.083 489.382 93.9737C520.902 81.109 555.287 73.8775 590.951 76.7C628.935 79.7291 665.523 93.6496 705.201 96.6778C711.14 97.109 716.947 97.3093 722.733 97.3525C760.209 97.403 795.072 88.5685 829.32 75.9703C883.961 55.8521 936.664 25.948 993.159 14.9875C1012.57 11.2274 1032.4 9.73948 1053.09 11.6088C1094.26 15.3569 1131.35 32.256 1170.56 44.2353C1182.1 47.7211 1193.9 50.8789 1205.95 52.9974C1275.34 65.6081 1350.82 43.401 1384.6 1.19337" stroke="#AD1AAF" stroke-width="2" stroke-miterlimit="10"/>
</svg>
