<svg width="1400" height="437" viewBox="0 0 1400 437" fill="none" xmlns="http://www.w3.org/2000/svg">
<path d="M-69.8339 298.832C-18.3039 273.421 47.0684 263.228 109.644 270.813C121.882 272.343 134.108 274.496 145.926 277.289C194.633 288.785 239.26 310.967 272.17 340.381C296.907 362.477 318.128 390.024 344.835 409.852C361.462 422.218 380.259 431.607 403.354 434.731C454.313 441.691 502.82 410.978 521.2 373.736C526.477 363.072 529.901 351.95 531.91 340.661C536.856 312.596 533.369 283.214 529.243 254.949C523.429 215.256 516.28 174.537 530.36 137.106C542.725 104.498 575.881 74.8881 618.908 67.6774C625.318 66.6017 632.001 66.0576 638.857 66.0497C682.29 66.0508 720.906 87.8905 762.973 96.6631C831.77 111.112 903.08 89.2906 964.33 63.7385C984.344 55.4213 1004.18 46.5679 1024.4 38.2416C1065.95 21.1474 1108.33 6.42502 1155.44 2.13438C1169.28 0.868694 1183.37 0.679929 1197.38 1.42735C1277.97 5.60914 1358.39 40.7433 1398.48 92.5257" stroke="#AD1AAF" stroke-width="2" stroke-miterlimit="10"/>
</svg>
