<svg width="1399" height="452" viewBox="0 0 1399 452" fill="none" xmlns="http://www.w3.org/2000/svg">
<path d="M-74.72 299.959C-22.7516 272.856 43.5225 262.168 107.095 270.627C170.667 279.086 230.836 306.646 272.204 346.182C312.773 384.978 343.722 438.895 405.711 448.825C458.141 457.18 507.961 426.062 525.91 387.963C543.859 349.863 537.674 306.829 529.87 265.734C522.067 224.639 512.995 182.283 525.783 142.793C538.571 103.303 580.028 67.061 632.977 67.0075C676.692 66.9949 715.521 90.4227 758.032 100.326C827.547 116.505 899.787 95.1368 961.305 68.8323C1022.82 42.5277 1082.62 10.2476 1152.99 2.63002C1247.17 -7.49068 1350.02 33.3805 1397.52 99.8045" stroke="#AD1AAF" stroke-width="2" stroke-miterlimit="10"/>
</svg>
