<svg width="1440" height="305" viewBox="0 0 1440 305" fill="none" xmlns="http://www.w3.org/2000/svg">
<path d="M-84.2615 202.092C-40.9286 171.302 15.3956 152.41 74.0086 148.057C96.503 146.361 119.299 146.868 141.78 149.449C177.934 153.6 213.157 163.339 245.021 177.67C284.731 195.431 320.6 220.817 354.039 245.922C363.249 252.771 372.559 259.616 382.211 266.049C420.489 291.559 457.949 307.447 499.609 302.312C542.161 297.135 575.052 266.521 596.935 234.132C604.162 223.576 610.851 212.729 617.332 201.812C643.475 157.582 666.895 111.659 703.665 71.5189C730.368 42.3065 769.023 15.9343 813.756 6.29911C852.18 -2.08796 891.659 0.87732 931.705 9.43771C995.259 22.9847 1049.36 46.8756 1093.57 72.0258C1098.54 74.8002 1103.32 77.6626 1108.08 80.4463C1145.83 102.814 1180.81 126.816 1224.92 150.467C1236.1 156.432 1247.79 162.451 1260.16 168.36C1320.94 197.32 1402.7 220.063 1455.07 210.146" stroke="#AD1AAF" stroke-width="2" stroke-miterlimit="10"/>
</svg>
