<svg width="1428" height="335" viewBox="0 0 1428 335" fill="none" xmlns="http://www.w3.org/2000/svg">
<path d="M-80.2333 216.927C-32.5348 187.944 28.8622 173.105 89.9108 175.272C113.422 176.055 136.784 179.363 159.269 184.993C195.464 193.99 229.376 208.836 258.141 228.25C293.719 252.3 324.478 284.756 360.707 307.752C370.955 314.192 381.788 319.819 393.648 324.217C439.086 341.039 481.116 332.38 512.587 311.395C539.409 293.539 556.925 263.064 565.772 231.107C568.717 220.665 571.146 210.09 573.387 199.602C582.542 156.856 590.425 112.832 614.467 72.6113C634.941 38.3 674.315 6.71928 723.238 1.82613C764.397 -2.30916 803.569 10.953 844.886 20.2604C911.48 35.2237 974.764 36.2631 1027.63 35.4321C1033.49 35.3142 1039.35 35.1964 1045.21 35.0785C1091.36 33.9336 1135.99 32.5458 1189.32 40.8955C1202.86 43.0127 1216.8 45.8974 1231.02 49.32C1301.09 66.4009 1380.95 96.7082 1426.85 119.801" stroke="#AD1AAF" stroke-width="2" stroke-miterlimit="10"/>
</svg>
