<svg width="1435" height="324" viewBox="0 0 1435 324" fill="none" xmlns="http://www.w3.org/2000/svg">
<path d="M-81.3012 213.093C-34.6431 183.626 25.4442 167.794 85.8889 168.339C109.123 168.507 132.296 171.122 154.878 175.971C191.01 183.729 225.256 197.33 254.857 215.564C291.517 238.037 323.434 268.773 359.046 292.32C369.011 298.867 379.494 304.837 390.816 309.664C434.458 328.577 475.219 325.792 509.38 309.051C539.995 294.054 561.54 263.798 573.578 231.782C577.514 221.271 581.042 210.701 584.363 200.062C597.765 156.947 609.688 112.483 636.728 72.1948C658.887 39.1512 697.96 8.85873 745.834 2.74418C786.271 -2.38994 825.595 8.29248 866.583 17.3201C932.451 31.9558 993.339 38.6285 1044.12 44.2789C1049.79 44.8795 1055.35 45.4849 1060.91 46.0903C1104.99 50.7949 1147.21 55.7447 1198.29 67.8448C1211.26 70.9388 1224.61 74.567 1238.32 78.6512C1306.03 98.7177 1386.34 127.098 1433.92 142.043" stroke="#AD1AAF" stroke-width="2" stroke-miterlimit="10"/>
</svg>
