<svg width="1407" height="300" viewBox="0 0 1407 300" fill="none" xmlns="http://www.w3.org/2000/svg">
<path d="M-15.7206 298.951C31.417 292.193 86.1657 287.138 137.449 285.186C147.466 284.791 157.405 284.559 167.146 284.336C206.925 283.564 242.493 284.818 271.309 287.741C293.15 289.962 312.466 293.415 333.861 293.831C346.759 294.094 360.608 293.279 376.424 289.354C411.813 280.532 446.1 254.134 468.416 226.238C474.802 218.233 480.582 210.178 485.768 202.151C498.804 182.238 509.385 162.6 520.564 145.157C536.355 120.588 552.525 98.0654 579.883 84.4621C606.304 71.3002 642.294 67.6108 683.483 66.2162C689.636 66.0042 695.8 65.8711 702.085 65.8912C742.07 65.9034 778.631 70.0481 816.249 66.5993C876.899 60.9481 937.579 34.3325 996.228 16.9447C1015.88 11.1704 1035.89 6.57012 1056.28 4.01642C1097.67 -1.04022 1137.02 2.33723 1179.7 7.46277C1192.26 8.93232 1204.97 10.7128 1217.94 12.2425C1292.17 21.3528 1369.84 23.5506 1406.42 21.2626" stroke="#AD1AAF" stroke-width="2" stroke-miterlimit="10"/>
</svg>
