<svg width="1405" height="328" viewBox="0 0 1405 328" fill="none" xmlns="http://www.w3.org/2000/svg">
<path d="M-30.6446 295.212C17.7377 283.308 75.3309 276.808 129.724 277.482C140.403 277.61 150.915 277.983 161.174 278.683C203.387 281.351 241.418 288.397 271.411 298.584C293.989 306.279 314.007 316.384 336.733 322.257C350.777 325.857 365.904 327.906 383.661 325.886C423.299 321.416 461.457 293.817 482.786 263.381C488.861 254.652 494.013 245.729 498.373 236.844C509.184 214.715 515.982 192.38 522.94 171.932C532.848 143.217 542.202 115.554 566.337 95.4016C588.598 76.8363 624.176 66.0079 665.811 63.0214C672.026 62.5709 678.373 62.351 684.752 62.3662C725.696 62.3318 762.809 71.3942 801.664 71.3793C864.616 71.2554 928.106 46.0142 987.476 26.3326C1007.21 19.8798 1027.14 14.0494 1047.6 9.9298C1089.09 1.58427 1129.22 -0.068548 1173.1 2.44139C1186.06 3.1728 1199.07 4.3746 1212.31 5.72387C1288.31 13.5076 1366.77 24.8045 1404.28 37.4779" stroke="#AD1AAF" stroke-width="2" stroke-miterlimit="10"/>
</svg>
