<svg width="1410" height="393" viewBox="0 0 1410 393" fill="none" xmlns="http://www.w3.org/2000/svg">
<path d="M-77.55 254.519C-27.1748 226.672 37.2989 214.432 100.025 220.493C124.126 222.808 147.811 227.879 170.336 235.35C206.511 247.266 239.646 265.267 266.354 287.869C299.36 315.729 326.936 352.523 364.849 374.132C375.758 380.348 387.572 385.191 400.731 388.252C450.58 399.763 496.986 377.028 520.542 345.196C538.728 320.573 545.534 289.211 546.135 257.59C546.397 247.256 546.154 236.867 545.735 226.643C544.226 184.799 541.754 141.749 558.525 101.866C574.411 64.2141 614.89 29.5574 666.383 27.7765C709.144 26.1692 748.194 45.927 790.229 55.6141C858.681 71.4174 927.616 58.3428 985.876 41.4663C992.384 39.5982 998.881 37.6524 1005.37 35.629C1056.73 19.9351 1107.31 2.94811 1166.46 1.82622C1181.44 1.51708 1196.79 2.44184 1212.08 4.38589C1287.94 14.0562 1366.51 49.0146 1408.53 92.4059" stroke="#AD1AAF" stroke-width="2" stroke-miterlimit="10"/>
</svg>
