<svg width="1400" height="396" viewBox="0 0 1400 396" fill="none" xmlns="http://www.w3.org/2000/svg">
<path d="M-57.2164 297.361C-6.81693 276.96 55.6266 268.106 115.129 273.218C126.809 274.235 138.357 275.727 149.673 277.699C195.977 285.928 238.149 302.396 269.893 324.743C293.792 341.44 314.614 362.5 339.815 377.105C355.501 386.217 372.831 392.829 393.999 394.107C440.737 396.846 485.389 367.26 504.865 332.599C510.452 322.65 514.502 312.383 517.334 301.938C524.506 276.133 524.884 249.396 524.852 224.006C524.894 188.377 523.729 152.649 541.811 121.569C557.729 94.2622 591.894 71.5722 634.485 65.9113C640.835 65.0679 647.337 64.608 654.003 64.6092C696.478 64.5789 734.563 81.7073 775.407 87.144C842.024 96.2211 910.353 73.1076 970.886 49.7332C990.818 42.0834 1010.74 34.356 1030.9 27.6331C1072.45 13.7392 1113.98 3.98714 1159.88 2.1559C1173.34 1.60577 1187.12 1.9779 1200.78 2.90267C1279.64 8.43913 1359.28 34.7211 1398.44 71.878" stroke="#AD1AAF" stroke-width="2" stroke-miterlimit="10"/>
</svg>
