<svg width="1404" height="341" viewBox="0 0 1404 341" fill="none" xmlns="http://www.w3.org/2000/svg">
<path d="M-35.5927 294.983C13.1329 281.355 71.7445 274.427 127.142 275.996C138.037 276.271 148.787 276.947 159.274 277.871C202.328 281.674 241.2 290.555 271.54 303.302C294.369 312.859 314.584 325.137 337.738 332.709C352.127 337.387 367.675 340.357 386.117 339.018C427.148 336.066 466.615 307.991 487.611 276.689C493.641 267.666 498.462 258.542 502.569 249.294C512.666 226.379 518.145 203.208 523.664 181.768C531.572 151.634 538.807 122.397 561.831 100.055C582.749 79.7807 618.072 66.4671 659.928 63.0037C666.13 62.4759 672.563 62.1735 678.94 62.1887C720.181 62.2186 757.498 72.8265 796.789 73.8929C860.476 75.6236 924.991 50.7806 984.545 30.4226C1004.33 23.6658 1024.31 17.5302 1044.58 12.8763C1086.12 3.4439 1126.5 0.128454 1170.75 1.74925C1183.77 2.23977 1196.96 3.27323 1210.38 4.53211C1286.99 11.8757 1365.64 26.1308 1403.53 43.7982" stroke="#AD1AAF" stroke-width="2" stroke-miterlimit="10"/>
</svg>
