<svg width="1405" height="308" viewBox="0 0 1405 308" fill="none" xmlns="http://www.w3.org/2000/svg">
<path d="M0.297946 306.48C45.7942 306.707 96.6163 303.587 143.626 298.108C152.852 297.037 161.958 295.812 170.865 294.597C207.331 289.299 239.63 282.691 266.912 275.844C287.64 270.656 306.156 265.335 325.745 258.376C337.247 254.26 349.356 249.481 362.428 242.989C392.023 228.254 421.085 203.783 444.897 179.56C451.73 172.649 458.266 165.753 464.724 159.018C480.688 142.31 496.474 126.483 513.099 113.156C536.763 94.4165 562.22 79.3224 593.513 74.1109C625.886 68.769 662.023 74.2015 702.421 75.0672C708.419 75.1801 714.505 75.2095 720.492 75.2436C759.176 75.238 794.951 72.9097 830.942 64.8568C888.595 51.8896 945.348 23.5678 1002.94 9.41308C1022.53 4.67607 1042.35 1.59505 1062.94 1.25528C1104.24 0.649902 1142.52 10.8224 1183.47 19.3606C1195.58 21.8827 1207.77 24.3213 1220.29 26.1891C1292.07 37.0776 1368.77 27.0187 1403.91 4.71998" stroke="#AD1AAF" stroke-width="2" stroke-miterlimit="10"/>
</svg>
