<svg width="1424" height="341" viewBox="0 0 1424 341" fill="none" xmlns="http://www.w3.org/2000/svg">
<path d="M-79.6957 219.833C-31.4887 191.015 30.578 176.789 91.9223 179.725C115.473 180.82 138.983 184.509 161.508 190.445C197.674 199.984 231.48 215.526 259.831 235.566C294.917 260.398 324.998 293.714 361.585 316.433C371.93 322.861 383.037 328.312 395.049 332.384C441.329 348.126 484.153 336.61 514.13 313.518C539.161 294.273 554.663 263.689 561.816 231.769C564.167 221.366 566.101 210.825 567.847 200.372C574.922 157.77 580.738 113.97 603.281 73.7847C622.952 38.7628 662.431 6.58271 711.828 2.30086C753.254 -1.29274 792.404 13.2913 833.912 22.5792C900.913 37.6637 965.294 35.9002 1019.2 31.7997C1025.21 31.3605 1031.21 30.8431 1037.12 30.3304C1084.25 26.2334 1130.13 21.7237 1184.68 28.1211C1198.55 29.749 1212.73 32.2264 1227.11 35.4017C1298.36 50.9938 1377.94 82.2233 1423.11 109.41" stroke="#AD1AAF" stroke-width="2" stroke-miterlimit="10"/>
</svg>
