<svg width="390" height="322" viewBox="0 0 390 322" fill="none" xmlns="http://www.w3.org/2000/svg">
<g opacity="0.4" filter="url(#filter0_f_5_4856)">
<rect x="40" y="40" width="228.127" height="227.753" rx="80" fill="url(#paint0_radial_5_4856)"/>
</g>
<path d="M112.495 321.466C112.495 321.466 49.9094 322.63 44.539 269.371C39.1686 216.112 81.9941 195.744 112.495 200.423C133.564 203.657 176.32 191.615 187.819 167.188C219.835 99.6165 309.135 103.814 328.62 150.536C345.901 191.96 345.695 186.524 369.517 195.813C393.34 205.171 396.025 281.55 379.432 318.639C333.732 321.466 141.775 321.466 112.495 321.466Z" fill="#78657D"/>
<path d="M107.609 316.571C107.609 316.571 45.7615 317.716 40.4544 265.303C35.1474 212.889 77.4679 192.845 107.609 197.449C128.429 200.632 170.682 188.782 182.045 164.742C213.683 98.2429 301.93 102.374 321.185 148.354C338.263 189.12 338.059 183.77 361.601 192.912C385.142 202.122 387.796 277.289 371.398 313.789C326.237 316.571 136.544 316.571 107.609 316.571Z" fill="#FFDFFA"/>
<path d="M339.859 126.94C339.859 126.94 332.741 137.51 340.63 152.726C348.52 167.885 369.224 171.195 378.953 158.069C388.682 144.944 384.944 125.72 377.588 122.874C370.232 120.028 347.927 112.652 339.859 126.94Z" fill="#78657D"/>
<path d="M113.892 158.088C110.261 158.762 103.715 158.149 100.977 147.983C98.2985 137.878 109.964 132.611 117.344 133.714C124.784 134.877 134.187 154.291 113.892 158.088Z" fill="#78657C"/>
<path d="M113.892 154.115C110.261 154.745 103.715 154.172 100.977 144.662C98.2985 135.209 109.964 130.282 117.344 131.313C124.784 132.402 134.187 150.563 113.892 154.115Z" fill="#FFDFFA"/>
<path d="M339.859 123.096C339.859 123.096 332.741 133.842 340.63 149.312C348.52 164.723 369.224 168.089 378.953 154.745C388.682 141.4 384.944 121.856 377.588 118.963C370.232 116.07 347.927 108.571 339.859 123.096Z" fill="#FFDFFA"/>
<path d="M184.033 244.468V160.501H201.288V244.468H184.033ZM149.244 244.468V160.501H166.026V244.468H149.244ZM219.281 244.468V160.501H235.983V244.468H219.281ZM270.024 160.501V199.555L253.976 206.871V160.498L270.024 160.501Z" fill="#77657B"/>
<path d="M272.623 236.147L268.542 240.167L280.231 251.969L285.707 246.382L287.46 244.656V272.097L285.707 274.655H285.15C281.876 273.729 278.749 272.337 275.868 270.529C270.46 266.941 265.936 262.202 262.63 256.663C259.324 251.124 257.319 244.924 256.762 238.52V214.469L286.169 201.205L287.937 204.58V236.51L286.169 238.249L280.231 243.823L272.623 236.147Z" fill="#77657B"/>
<path d="M285.613 201.202V237.8L287.38 236.057L299.337 223.891L303.334 227.911L287.38 244.19L285.613 245.932V273.921H286.169C289.443 273.009 292.57 271.616 295.451 269.805C300.873 266.231 305.406 261.497 308.714 255.956C312.022 250.414 314.02 244.208 314.557 237.8V214.472L285.613 201.202ZM252.4 253.887H209.634V238.973H248.323V239.522C248.921 244.495 250.305 249.332 252.4 253.887Z" fill="#77657B"/>
<path d="M199.239 135.164C199.241 137.881 200.337 140.487 202.286 142.409C204.235 144.33 206.878 145.411 209.634 145.412V163.701H134.118V148.695L209.634 96.4662V124.832C206.87 124.855 204.226 125.953 202.279 127.888C200.333 129.823 199.24 132.438 199.239 135.164Z" fill="#77657B"/>
<path d="M285.15 148.695V163.245H209.634V145.412C212.234 145.174 214.65 143.986 216.409 142.083C218.168 140.179 219.143 137.697 219.143 135.122C219.143 132.548 218.168 130.065 216.409 128.162C214.65 126.259 212.234 125.071 209.634 124.832V96.106L285.15 148.695Z" fill="#77657B"/>
<path d="M209.634 238.88V253.887H134.118V239.069L209.634 238.88Z" fill="#77657B"/>
<path d="M184.033 236.497V152.53H201.288V236.497H184.033ZM149.244 236.497V152.53H166.026V236.497H149.244ZM219.281 236.497V152.53H235.983V236.497H219.281ZM270.024 152.53V191.584L253.976 198.901V152.527L270.024 152.53Z" fill="#AD1AAF"/>
<path d="M272.623 228.176L268.542 232.196L280.231 243.998L285.707 238.411L287.46 236.686V264.126L285.707 266.684H285.15C281.876 265.758 278.749 264.366 275.868 262.558C270.46 258.97 265.936 254.231 262.63 248.692C259.324 243.153 257.319 236.953 256.762 230.549V206.498L286.169 193.234L287.937 196.609V228.539L286.169 230.278L280.231 235.852L272.623 228.176Z" fill="#FFA8FC"/>
<path d="M285.613 193.231V229.829L287.38 228.087L299.337 215.92L303.334 219.94L287.38 236.219L285.613 237.962V265.95H286.169C289.443 265.038 292.57 263.645 295.451 261.834C300.872 258.26 305.406 253.526 308.714 247.985C312.022 242.443 314.02 236.237 314.557 229.829V206.501L285.613 193.231ZM252.4 245.916H209.634V231.002H248.323V231.551C248.921 236.524 250.305 241.361 252.4 245.916Z" fill="#DB46DD"/>
<path d="M199.239 127.193C199.241 129.91 200.337 132.516 202.286 134.438C204.235 136.359 206.878 137.44 209.634 137.442V155.73H134.118V140.724L209.634 88.4953V116.861C206.87 116.884 204.226 117.982 202.279 119.917C200.333 121.852 199.24 124.467 199.239 127.193Z" fill="#FFA8FC"/>
<path d="M285.15 140.724V155.274H209.634V137.442C212.234 137.203 214.65 136.015 216.409 134.112C218.168 132.209 219.143 129.726 219.143 127.152C219.143 124.577 218.168 122.094 216.409 120.191C214.65 118.288 212.234 117.1 209.634 116.861V88.1351L285.15 140.724Z" fill="#DB46DD"/>
<path d="M209.634 230.909V245.916H134.118V231.098L209.634 230.909Z" fill="#FFA8FC"/>
<defs>
<filter id="filter0_f_5_4856" x="0" y="0" width="308.127" height="307.753" filterUnits="userSpaceOnUse" color-interpolation-filters="sRGB">
<feFlood flood-opacity="0" result="BackgroundImageFix"/>
<feBlend mode="normal" in="SourceGraphic" in2="BackgroundImageFix" result="shape"/>
<feGaussianBlur stdDeviation="20" result="effect1_foregroundBlur_5_4856"/>
</filter>
<radialGradient id="paint0_radial_5_4856" cx="0" cy="0" r="1" gradientUnits="userSpaceOnUse" gradientTransform="translate(216 100.969) scale(178.304 177.875)">
<stop stop-color="#FF9EFA"/>
<stop offset="0.5" stop-color="#AD1AAF"/>
<stop offset="1" stop-color="#231736"/>
</radialGradient>
</defs>
</svg>
