<svg width="104" height="104" viewBox="0 0 104 104" fill="none" xmlns="http://www.w3.org/2000/svg">
<rect width="104" height="104" rx="52" fill="#301E3B" fill-opacity="0.4"/>
<path d="M39.7147 70.2011V44.3361H44.9743V70.2011H39.7147ZM29.1106 70.2011V44.3361H34.226V70.2011H29.1106ZM50.4587 70.2011V44.3361H55.5497V70.2011H50.4587ZM65.9258 44.3361V56.3663L61.0341 58.62V44.3351L65.9258 44.3361Z" fill="#AD1AAF"/>
<path d="M66.7179 67.6378L65.474 68.8761L69.037 72.5118L70.7061 70.7907L71.2405 70.2592V78.7118L70.7061 79.5H70.5364C69.5386 79.2147 68.5853 78.7858 67.7072 78.2289C66.0587 77.1235 64.6799 75.664 63.672 73.9577C62.6642 72.2514 62.0531 70.3416 61.8835 68.369V60.9603L70.8471 56.8745L71.3858 57.9142V67.7498L70.8471 68.2855L69.037 70.0025L66.7179 67.6378Z" fill="#FFA8FC"/>
<path d="M70.6774 56.8734V68.1471L71.2161 67.6104L74.8607 63.8627L76.0791 65.101L71.2161 70.1155L70.6774 70.6522V79.2739H70.8471C71.8449 78.9928 72.7982 78.5639 73.6763 78.006C75.3288 76.9051 76.7107 75.4468 77.719 73.7398C78.7274 72.0328 79.3362 70.1211 79.5 68.1471V60.9613L70.6774 56.8734ZM60.5537 73.1024H47.5182V68.5084H59.311V68.6775C59.4933 70.2095 59.9154 71.6993 60.5537 73.1024Z" fill="#DB46DD"/>
<path d="M44.3497 36.5312C44.3503 37.3683 44.6843 38.171 45.2784 38.763C45.8724 39.3549 46.678 39.6877 47.5182 39.6883V45.3219H24.5V40.6994L47.5182 24.6109V33.3488C46.6756 33.3558 45.8699 33.6941 45.2765 34.2901C44.6831 34.8862 44.35 35.6916 44.3497 36.5312Z" fill="#FFA8FC"/>
<path d="M70.5364 40.6994V45.1814H47.5182V39.6883C48.3108 39.6147 49.0473 39.2489 49.5834 38.6626C50.1196 38.0763 50.4167 37.3117 50.4167 36.5185C50.4167 35.7254 50.1196 34.9608 49.5834 34.3745C49.0473 33.7882 48.3108 33.4224 47.5182 33.3488V24.5L70.5364 40.6994Z" fill="#DB46DD"/>
<path d="M47.5182 68.4799V73.1024H24.5V68.538L47.5182 68.4799Z" fill="#FFA8FC"/>
</svg>
