<svg width="190" height="32" viewBox="0 0 190 32" fill="none" xmlns="http://www.w3.org/2000/svg">
<mask id="mask0_2_473" style="mask-type:luminance" maskUnits="userSpaceOnUse" x="0" y="0" width="190" height="32">
<path d="M189.43 0H0.826813V32H189.43V0Z" fill="white"/>
</mask>
<g mask="url(#mask0_2_473)">
<mask id="mask1_2_473" style="mask-type:luminance" maskUnits="userSpaceOnUse" x="0" y="0" width="190" height="32">
<path d="M189.43 0H0.826813V32H189.43V0Z" fill="white"/>
</mask>
<g mask="url(#mask1_2_473)">
<path d="M74.7838 3.50312C74.7838 1.92283 76.0658 0.633545 77.6534 0.633545C79.2337 0.633545 80.523 1.91546 80.523 3.50312C80.4677 5.08342 79.1343 6.31744 77.5503 6.26219C76.0473 6.20693 74.8428 5.00238 74.7838 3.50312Z" fill="white"/>
</g>
<mask id="mask2_2_473" style="mask-type:luminance" maskUnits="userSpaceOnUse" x="0" y="0" width="190" height="32">
<path d="M189.43 0H0.826813V32H189.43V0Z" fill="white"/>
</mask>
<g mask="url(#mask2_2_473)">
<path d="M120.008 22.6177C120.008 21.0263 121.29 19.7407 122.867 19.7407C124.454 19.7407 125.74 21.0263 125.74 22.6177C125.74 24.2053 124.454 25.4909 122.867 25.4909C121.29 25.4909 120.008 24.2016 120.008 22.6177Z" fill="white"/>
</g>
<mask id="mask3_2_473" style="mask-type:luminance" maskUnits="userSpaceOnUse" x="0" y="0" width="190" height="32">
<path d="M189.43 0H0.826813V32H189.43V0Z" fill="white"/>
</mask>
<g mask="url(#mask3_2_473)">
<path d="M27.7546 21.3763C25.2903 21.3763 23.57 19.4166 23.57 16.6133C23.57 13.8137 25.2866 11.854 27.7546 11.854C30.2337 11.854 31.9724 13.8137 31.9724 16.6133C31.9687 19.4608 30.2743 21.3763 27.7546 21.3763ZM27.7546 7.66939C22.5349 7.66939 18.7444 11.4304 18.7444 16.6133C18.7444 21.7962 22.5386 25.5573 27.7546 25.5573C33.0002 25.5573 36.8017 21.7962 36.8017 16.617C36.8017 11.4304 32.9928 7.66939 27.7546 7.66939ZM69.2364 17.0627C69.0559 16.7128 68.8238 16.3849 68.5549 16.0976L68.3965 15.9318L68.5623 15.7735C68.8017 15.5193 69.0485 15.2209 69.2806 14.8746L73.8889 8.02302H68.2934L64.8307 13.3827C64.6355 13.6738 64.2413 13.8101 63.6483 13.8101H62.8563V3.67629C62.8563 1.65027 61.5965 1.37769 60.2298 1.37769H57.8944L57.8981 25.292H62.8526V18.1236H63.3167C63.8803 18.1236 64.2634 18.1899 64.4439 18.4957L67.1772 23.6565C67.9434 25.0563 68.7023 25.2957 70.1315 25.2957H73.9404L71.1077 20.6212L69.2364 17.0627ZM93.3055 7.63255C90.7822 7.63255 89.1724 8.75238 88.2736 9.70277L87.9752 10.0085L87.8684 9.59594C87.6031 8.57925 86.7117 8.0267 85.3672 8.0267H83.1459L83.1606 25.2957H88.0857V17.339C88.0857 16.5581 88.1852 15.8876 88.3914 15.2688C88.9403 13.4049 90.469 12.2408 92.3772 12.2408C93.9133 12.2408 94.5174 13.0512 94.5174 15.1509V22.6729C94.5174 24.4595 95.3425 25.2994 97.1365 25.2994H99.4756L99.4645 14.3147C99.4645 9.93484 97.3317 7.63255 93.3055 7.63255ZM77.7162 8.02302H75.3807L75.3955 21.3763V25.292H77.8856L77.974 25.2957L79.1381 25.292H80.2911V25.2884H80.3021L80.3132 10.6495C80.3058 8.88131 79.4622 8.02302 77.7162 8.02302ZM47.0902 21.3763C44.6258 21.3763 42.9055 19.4166 42.9055 16.6133C42.9055 13.8137 44.6258 11.854 47.0902 11.854C49.5656 11.854 51.308 13.8137 51.308 16.6133C51.3043 19.4608 49.6098 21.3763 47.0902 21.3763ZM47.0902 7.66939C41.8668 7.66939 38.0726 11.4304 38.0726 16.6133C38.0726 21.7962 41.8668 25.5573 47.0902 25.5573C52.3247 25.5573 56.1373 21.7962 56.1373 16.617C56.1373 11.4304 52.3284 7.66939 47.0902 7.66939Z" fill="white"/>
</g>
</g>
<mask id="mask4_2_473" style="mask-type:luminance" maskUnits="userSpaceOnUse" x="0" y="0" width="190" height="32">
<path d="M189.43 0H0.826813V32H189.43V0Z" fill="white"/>
</mask>
<g mask="url(#mask4_2_473)">
<mask id="mask5_2_473" style="mask-type:luminance" maskUnits="userSpaceOnUse" x="0" y="0" width="190" height="32">
<path d="M189.39 0.629883H0.826813V31.9595H189.39V0.629883Z" fill="white"/>
</mask>
<g mask="url(#mask5_2_473)">
<mask id="mask6_2_473" style="mask-type:luminance" maskUnits="userSpaceOnUse" x="0" y="0" width="190" height="32">
<path d="M189.43 0H0.826813V32H189.43V0Z" fill="white"/>
</mask>
<g mask="url(#mask6_2_473)">
<path d="M152.619 21.3763C150.155 21.3763 148.435 19.4166 148.435 16.6134C148.435 13.8138 150.155 11.8541 152.619 11.8541C155.099 11.8541 156.837 13.8138 156.837 16.6134C156.837 19.4608 155.139 21.3763 152.619 21.3763ZM152.619 7.66943C147.396 7.66943 143.602 11.4305 143.602 16.6134C143.602 21.7963 147.389 25.5573 152.619 25.5573C157.858 25.5573 161.667 21.7963 161.667 16.6171C161.667 11.4305 157.854 7.66943 152.619 7.66943Z" fill="white"/>
</g>
<mask id="mask7_2_473" style="mask-type:luminance" maskUnits="userSpaceOnUse" x="0" y="0" width="190" height="32">
<path d="M189.43 0H0.826813V32H189.43V0Z" fill="white"/>
</mask>
<g mask="url(#mask7_2_473)">
<path d="M109.841 20.6101C107.148 20.6101 106.194 18.2636 106.194 16.0645C106.194 15.092 106.441 11.9351 109.591 11.9351C111.153 11.9351 113.234 12.3845 113.234 16.2229C113.23 19.8513 111.385 20.6101 109.841 20.6101ZM115.787 7.97883C114.851 7.97883 114.133 8.35088 113.772 9.03236L113.639 9.29758L113.411 9.09498C112.615 8.40613 111.189 7.59204 108.88 7.59204C104.275 7.59204 101.177 11.0473 101.177 16.1971C101.177 21.3395 104.386 24.9311 108.976 24.9311C110.541 24.9311 111.782 24.5627 112.762 23.8186L113.138 23.535V24.0138C113.138 26.3235 111.646 27.5943 108.942 27.5943C107.624 27.5943 106.43 27.2739 105.631 26.9829C104.588 26.6661 103.973 26.9313 103.553 27.9738L103.159 28.9389L102.606 30.3497L102.949 30.5302C104.68 31.4511 106.935 31.9963 108.968 31.9963C113.16 31.9963 118.056 29.8524 118.056 23.8112L118.07 7.96778H115.787" fill="white"/>
</g>
</g>
</g>
<mask id="mask8_2_473" style="mask-type:luminance" maskUnits="userSpaceOnUse" x="0" y="0" width="190" height="32">
<path d="M189.43 0H0.826813V32H189.43V0Z" fill="white"/>
</mask>
<g mask="url(#mask8_2_473)">
<mask id="mask9_2_473" style="mask-type:luminance" maskUnits="userSpaceOnUse" x="0" y="0" width="190" height="32">
<path d="M189.43 0H0.826813V32H189.43V0Z" fill="white"/>
</mask>
<g mask="url(#mask9_2_473)">
<path d="M9.4208 21.1737L5.40929 21.17V16.3812C5.40929 15.3535 5.80713 14.8267 6.68016 14.7015H9.41344C11.3621 14.7015 12.6219 15.9318 12.6293 17.921C12.6293 19.9654 11.3989 21.1737 9.4208 21.1737ZM5.40929 8.25136V6.99154C5.40929 5.88644 5.87343 5.36337 6.90118 5.29706H8.95298C10.7101 5.29706 11.7636 6.35059 11.7636 8.11138C11.7636 9.45592 11.0416 11.0215 9.0156 11.0215H5.40929V8.25136ZM14.5337 13.0328L13.8117 12.6239L14.4416 12.0824C15.1821 11.4525 16.4087 10.0269 16.4087 7.56988C16.4087 3.80886 13.4949 1.38501 8.98245 1.38501H3.25066C1.91349 1.4329 0.841547 2.52694 0.826813 3.86412V25.1999H9.08928C14.1064 25.1999 17.3407 22.4703 17.3407 18.2415C17.3407 15.9723 16.2908 14.0237 14.5337 13.0328Z" fill="white"/>
</g>
<mask id="mask10_2_473" style="mask-type:luminance" maskUnits="userSpaceOnUse" x="0" y="0" width="190" height="32">
<path d="M189.43 0H0.826813V32H189.43V0Z" fill="white"/>
</mask>
<g mask="url(#mask10_2_473)">
<path d="M183.658 7.68776C181.603 7.69145 179.654 8.63815 178.372 10.2516L178.015 10.701L177.735 10.1963C176.821 8.53133 175.256 7.69145 173.068 7.69145C170.78 7.69145 169.244 8.966 168.529 9.72852L168.065 10.2332L167.885 9.56644C167.627 8.60868 166.772 8.08192 165.483 8.08192H163.413L163.391 25.2846H168.091V17.6889C168.091 17.0222 168.172 16.3665 168.338 15.6776C168.787 13.8432 170.021 11.8687 172.095 12.064C173.37 12.1892 173.996 13.1764 173.996 15.0809V25.281H178.729V17.6852C178.729 16.8527 178.807 16.2265 178.995 15.6076C179.37 13.8542 180.663 12.0566 182.664 12.0566C184.111 12.0566 184.649 12.8744 184.649 15.0809V22.765C184.649 24.5 185.423 25.281 187.161 25.281H189.372L189.375 14.2999C189.39 9.90902 187.456 7.68776 183.658 7.68776ZM140.88 19.3097C140.865 19.3245 138.843 21.461 136.179 21.461C133.752 21.461 131.302 19.9728 131.302 16.6501C131.302 13.7806 133.203 11.773 135.925 11.773C136.809 11.773 137.811 12.0897 137.97 12.6202L137.992 12.7086C138.198 13.4638 138.887 13.9831 139.664 13.9795L142.239 13.9832V11.7287C142.239 8.75603 138.463 7.68408 135.918 7.68408C130.481 7.68408 126.539 11.4672 126.539 16.6796C126.539 21.8883 130.44 25.6714 135.818 25.6714C140.486 25.6714 143.02 22.6029 143.046 22.5771L143.178 22.4114L141.138 19.0261L140.88 19.3097Z" fill="white"/>
</g>
</g>
</svg>
