<svg width="70" height="85" viewBox="0 0 70 85" fill="none" xmlns="http://www.w3.org/2000/svg">
<ellipse cx="35.5" cy="25" rx="24.5" ry="25" fill="#FFE9F7"/>
<path d="M22.3281 66.8594H19.4297L19.4141 65.4297H21.9453C22.3724 65.4297 22.7344 65.3672 23.0312 65.2422C23.3333 65.112 23.5625 64.9271 23.7188 64.6875C23.875 64.4427 23.9531 64.1484 23.9531 63.8047C23.9531 63.4245 23.8802 63.1146 23.7344 62.875C23.5885 62.6354 23.3646 62.4609 23.0625 62.3516C22.7656 62.2422 22.3854 62.1875 21.9219 62.1875H20.0234V72H18.0625V60.625H21.9219C22.5469 60.625 23.1042 60.6849 23.5938 60.8047C24.0885 60.9245 24.5078 61.112 24.8516 61.3672C25.2005 61.6172 25.4635 61.9349 25.6406 62.3203C25.8229 62.7057 25.9141 63.1641 25.9141 63.6953C25.9141 64.1641 25.8021 64.5938 25.5781 64.9844C25.3542 65.3698 25.0234 65.6849 24.5859 65.9297C24.1484 66.1745 23.6042 66.3203 22.9531 66.3672L22.3281 66.8594ZM22.2422 72H18.8125L19.6953 70.4453H22.2422C22.6849 70.4453 23.0547 70.3724 23.3516 70.2266C23.6484 70.0755 23.8698 69.8698 24.0156 69.6094C24.1667 69.3438 24.2422 69.0339 24.2422 68.6797C24.2422 68.3099 24.1771 67.9896 24.0469 67.7188C23.9167 67.4427 23.7109 67.2318 23.4297 67.0859C23.1484 66.9349 22.7812 66.8594 22.3281 66.8594H20.125L20.1406 65.4297H23.0078L23.4531 65.9688C24.0781 65.9896 24.5911 66.1276 24.9922 66.3828C25.3984 66.638 25.7005 66.9688 25.8984 67.375C26.0964 67.7812 26.1953 68.2188 26.1953 68.6875C26.1953 69.4115 26.0365 70.0182 25.7188 70.5078C25.4062 70.9974 24.9557 71.3698 24.3672 71.625C23.7786 71.875 23.0703 72 22.2422 72ZM33.0703 70.0078V63.5469H34.9609V72H33.1797L33.0703 70.0078ZM33.3359 68.25L33.9688 68.2344C33.9688 68.8021 33.9062 69.3255 33.7812 69.8047C33.6562 70.2786 33.4635 70.6927 33.2031 71.0469C32.9427 71.3958 32.6094 71.6693 32.2031 71.8672C31.7969 72.0599 31.3099 72.1562 30.7422 72.1562C30.3307 72.1562 29.9531 72.0964 29.6094 71.9766C29.2656 71.8568 28.9688 71.6719 28.7188 71.4219C28.474 71.1719 28.2839 70.8464 28.1484 70.4453C28.013 70.0443 27.9453 69.5651 27.9453 69.0078V63.5469H29.8281V69.0234C29.8281 69.3307 29.8646 69.5885 29.9375 69.7969C30.0104 70 30.1094 70.1641 30.2344 70.2891C30.3594 70.4141 30.5052 70.5026 30.6719 70.5547C30.8385 70.6068 31.0156 70.6328 31.2031 70.6328C31.7396 70.6328 32.1615 70.5286 32.4688 70.3203C32.7812 70.1068 33.0026 69.8203 33.1328 69.4609C33.2682 69.1016 33.3359 68.6979 33.3359 68.25ZM38.9062 63.5469V72H37.0156V63.5469H38.9062ZM36.8906 61.3281C36.8906 61.0417 36.9844 60.8047 37.1719 60.6172C37.3646 60.4245 37.6302 60.3281 37.9688 60.3281C38.3021 60.3281 38.5651 60.4245 38.7578 60.6172C38.9505 60.8047 39.0469 61.0417 39.0469 61.3281C39.0469 61.6094 38.9505 61.8438 38.7578 62.0312C38.5651 62.2188 38.3021 62.3125 37.9688 62.3125C37.6302 62.3125 37.3646 62.2188 37.1719 62.0312C36.9844 61.8438 36.8906 61.6094 36.8906 61.3281ZM42.9844 60V72H41.0938V60H42.9844ZM50.2031 70.25V60H52.0938V72H50.3828L50.2031 70.25ZM44.7031 67.8672V67.7031C44.7031 67.0625 44.7786 66.4792 44.9297 65.9531C45.0807 65.4219 45.2995 64.9661 45.5859 64.5859C45.8724 64.2005 46.2214 63.9062 46.6328 63.7031C47.0443 63.4948 47.5078 63.3906 48.0234 63.3906C48.5339 63.3906 48.9818 63.4896 49.3672 63.6875C49.7526 63.8854 50.0807 64.1693 50.3516 64.5391C50.6224 64.9036 50.8385 65.3411 51 65.8516C51.1615 66.3568 51.276 66.9193 51.3438 67.5391V68.0625C51.276 68.6667 51.1615 69.2188 51 69.7188C50.8385 70.2188 50.6224 70.651 50.3516 71.0156C50.0807 71.3802 49.75 71.6615 49.3594 71.8594C48.974 72.0573 48.5234 72.1562 48.0078 72.1562C47.4974 72.1562 47.0365 72.0495 46.625 71.8359C46.2188 71.6224 45.8724 71.3229 45.5859 70.9375C45.2995 70.5521 45.0807 70.099 44.9297 69.5781C44.7786 69.0521 44.7031 68.4818 44.7031 67.8672ZM46.5859 67.7031V67.8672C46.5859 68.2526 46.6198 68.612 46.6875 68.9453C46.7604 69.2786 46.8724 69.5729 47.0234 69.8281C47.1745 70.0781 47.3698 70.276 47.6094 70.4219C47.8542 70.5625 48.1458 70.6328 48.4844 70.6328C48.9115 70.6328 49.263 70.5391 49.5391 70.3516C49.8151 70.1641 50.0312 69.9115 50.1875 69.5938C50.349 69.2708 50.4583 68.9115 50.5156 68.5156V67.1016C50.4844 66.7943 50.4193 66.5078 50.3203 66.2422C50.2266 65.9766 50.099 65.7448 49.9375 65.5469C49.776 65.3438 49.5755 65.1875 49.3359 65.0781C49.1016 64.9635 48.8229 64.9062 48.5 64.9062C48.1562 64.9062 47.8646 64.9792 47.625 65.125C47.3854 65.2708 47.1875 65.4714 47.0312 65.7266C46.8802 65.9818 46.7682 66.2786 46.6953 66.6172C46.6224 66.9557 46.5859 67.3177 46.5859 67.7031Z" fill="white"/>
<g clip-path="url(#clip0_114_114)">
<path d="M30.1667 22.6667H26.6667V30.8334H30.1667V22.6667Z" fill="#AD1AAF"/>
<path d="M37.75 22.6667H34.25V30.8334H37.75V22.6667Z" fill="#AD1AAF"/>
<path d="M47.3332 33.4997H23.9998V36.9997H47.3332V33.4997Z" fill="#AD1AAF"/>
<path d="M44.9998 22.9997H41.4998V31.1664H44.9998V22.9997Z" fill="#AD1AAF"/>
<path d="M36 12.1667L24.3333 18V20.3334H47.6667V18L36 12.1667Z" fill="#AD1AAF"/>
</g>
<defs>
<clipPath id="clip0_114_114">
<rect width="28" height="28" fill="white" transform="translate(22 11)"/>
</clipPath>
</defs>
</svg>
