<svg width="104" height="104" viewBox="0 0 104 104" fill="none" xmlns="http://www.w3.org/2000/svg">
<rect width="104" height="104" rx="52" fill="#301E3B" fill-opacity="0.4"/>
<path d="M78.5876 69.9172L77.2786 71.2307L81.0282 75.0873L82.7847 73.2616L83.3471 72.6978V81.6639L82.7847 82.5H82.6061C81.556 82.1974 80.5528 81.7424 79.6288 81.1517C77.8939 79.9792 76.4428 78.431 75.3822 76.621C74.3216 74.811 73.6784 72.7853 73.5 70.6928V62.834L82.9331 58.5L83.5 59.6028V70.036L82.9331 70.6042L81.0282 72.4255L78.5876 69.9172Z" fill="#FFA8FC"/>
<path d="M82.3966 58.5V70.5787L82.9524 70.0036L86.713 65.9883L87.9702 67.3151L82.9524 72.6876L82.3966 73.2627V82.5H82.5716C83.6012 82.1989 84.5849 81.7393 85.4908 81.1416C87.196 79.962 88.6219 78.3996 89.6623 76.5707C90.7028 74.7418 91.3309 72.6936 91.5 70.5787V62.8798L82.3966 58.5ZM71.9506 75.8879H58.5V70.9658H70.6682V71.147C70.8564 72.7884 71.2919 74.3845 71.9506 75.8879Z" fill="#AD1AAF"/>
<path d="M27.4331 80.5C26.6417 80.5 25.9549 80.2083 25.373 79.625C24.791 79.0417 24.5 78.3533 24.5 77.56V70.21C24.5 66.01 25.8036 62.3 28.4108 59.08C31.0181 55.86 34.3702 53.8067 38.4673 52.92C36.605 54.2267 35.1617 55.8717 34.1374 57.855C33.1132 59.8383 32.601 61.9733 32.601 64.26V77.56C32.601 78.0733 32.6709 78.5867 32.8105 79.1C32.9502 79.6133 33.183 80.08 33.5089 80.5H27.4331ZM37.6991 80.5C36.9076 80.5 36.2209 80.2083 35.6389 79.625C35.057 79.0417 34.766 78.3533 34.766 77.56V64.26C34.766 60.9933 35.9183 58.2167 38.2229 55.93C40.5275 53.6433 43.3093 52.5 46.5683 52.5H59.7675C63.0265 52.5 65.7967 53.6433 68.078 55.93C70.3593 58.2167 71.5 60.9933 71.5 64.26V68.74C71.5 72.0067 70.3593 74.7833 68.078 77.07C65.7967 79.3567 63.0265 80.5 59.7675 80.5H37.6991ZM48.0349 46.62C44.9621 46.62 42.3549 45.5467 40.2132 43.4C38.0716 41.2533 37.0007 38.64 37.0007 35.56C37.0007 32.48 38.0716 29.8667 40.2132 27.72C42.3549 25.5733 44.9621 24.5 48.0349 24.5C51.1077 24.5 53.715 25.5733 55.8566 27.72C57.9983 29.8667 59.0691 32.48 59.0691 35.56C59.0691 38.64 57.9983 41.2533 55.8566 43.4C53.715 45.5467 51.1077 46.62 48.0349 46.62Z" fill="#AD1AAF"/>
</svg>
