<svg width="386" height="317" viewBox="0 0 386 317" fill="none" xmlns="http://www.w3.org/2000/svg">
<g opacity="0.4" filter="url(#filter0_f_5_4925)">
<rect x="40" y="40" width="225.52" height="224.041" rx="80" fill="url(#paint0_radial_5_4925)"/>
</g>
<path d="M111.667 316.879C111.667 316.879 49.7964 318.023 44.4873 265.632C39.1783 213.242 81.5144 193.206 111.667 197.809C132.495 200.99 174.763 189.144 186.13 165.115C217.78 98.6449 306.059 102.774 325.322 148.734C342.406 189.483 342.202 184.135 365.752 193.273C389.302 202.479 391.957 277.613 375.553 314.097C330.375 316.879 140.612 316.879 111.667 316.879Z" fill="#78657D"/>
<path d="M106.837 312.064C106.837 312.064 45.6957 313.19 40.4493 261.631C35.2028 210.071 77.0397 190.354 106.837 194.883C127.419 198.014 169.188 186.357 180.421 162.709C211.698 97.2937 298.937 101.357 317.972 146.588C334.854 186.69 334.653 181.427 357.925 190.42C381.198 199.48 383.821 273.421 367.611 309.326C322.966 312.064 135.441 312.064 106.837 312.064Z" fill="#FFDFFA"/>
<path d="M336.433 125.523C336.433 125.523 329.395 135.921 337.195 150.889C344.995 165.8 365.462 169.057 375.079 156.145C384.697 143.234 381.002 124.323 373.73 121.524C366.459 118.724 344.408 111.469 336.433 125.523Z" fill="#78657D"/>
<path d="M113.048 156.164C109.458 156.826 102.986 156.224 100.28 146.223C97.6322 136.283 109.164 131.102 116.46 132.186C123.815 133.331 133.111 152.428 113.048 156.164Z" fill="#78657C"/>
<path d="M113.048 152.255C109.458 152.875 102.986 152.312 100.28 142.956C97.6322 133.657 109.164 128.811 116.46 129.825C123.815 130.896 133.111 148.761 113.048 152.255Z" fill="#FFDFFA"/>
<path d="M336.433 121.742C336.433 121.742 329.395 132.313 337.195 147.531C344.995 162.691 365.462 166.001 375.079 152.875C384.697 139.748 381.002 120.522 373.73 117.676C366.459 114.83 344.408 107.453 336.433 121.742Z" fill="#FFDFFA"/>
<path d="M131.081 228.146C129.138 228.146 127.451 227.431 126.022 226.003C124.593 224.574 123.878 222.888 123.878 220.945V202.944C123.878 192.657 127.08 183.571 133.482 175.684C139.885 167.798 148.117 162.769 158.178 160.597C153.605 163.798 150.06 167.827 147.545 172.684C145.03 177.542 143.772 182.771 143.772 188.371V220.945C143.772 222.202 143.944 223.459 144.287 224.717C144.63 225.974 145.201 227.117 146.002 228.146H131.081ZM156.291 228.146C154.348 228.146 152.661 227.431 151.232 226.003C149.803 224.574 149.088 222.888 149.088 220.945V188.371C149.088 180.37 151.918 173.57 157.578 167.969C163.237 162.369 170.068 159.569 178.072 159.569H210.484C218.488 159.569 225.29 162.369 230.893 167.969C236.495 173.57 239.296 180.37 239.296 188.371V199.343C239.296 207.344 236.495 214.144 230.893 219.745C225.29 225.345 218.488 228.146 210.484 228.146H156.291ZM181.673 145.168C174.127 145.168 167.725 142.539 162.465 137.281C157.206 132.024 154.576 125.623 154.576 118.08C154.576 110.536 157.206 104.136 162.465 98.8783C167.725 93.6207 174.127 90.9919 181.673 90.9919C189.219 90.9919 195.621 93.6207 200.881 98.8783C206.14 104.136 208.77 110.536 208.77 118.08C208.77 125.623 206.14 132.024 200.881 137.281C195.621 142.539 189.219 145.168 181.673 145.168Z" fill="#77657B"/>
<path d="M266.055 174.264V203.847L267.42 202.438L276.655 192.604L279.742 195.853L267.42 209.012L266.055 210.42V233.044H266.485C269.013 232.306 271.428 231.181 273.653 229.717C277.841 226.828 281.342 223.001 283.897 218.522C286.452 214.043 287.995 209.026 288.41 203.847V184.991L266.055 174.264ZM240.402 216.85H207.372V204.795H237.253V205.238C237.716 209.259 238.785 213.168 240.402 216.85Z" fill="#77657B"/>
<path d="M256.701 202.227L253.487 205.444L262.694 214.889L267.008 210.417L268.389 209.037V230.996L267.008 233.044H266.569C263.991 232.303 261.527 231.188 259.258 229.742C254.998 226.87 251.434 223.078 248.83 218.645C246.225 214.212 244.646 209.251 244.207 204.126V184.878L267.372 174.264L268.764 176.965V202.517L267.372 203.909L262.694 208.37L256.701 202.227Z" fill="#77657B"/>
<path d="M129.45 226.252C127.511 226.252 125.829 225.541 124.404 224.119C122.978 222.697 122.266 221.019 122.266 219.086V201.171C122.266 190.934 125.459 181.891 131.845 174.043C138.231 166.195 146.442 161.19 156.478 159.029C151.916 162.214 148.381 166.223 145.872 171.057C143.363 175.891 142.109 181.095 142.109 186.669V219.086C142.109 220.337 142.28 221.588 142.622 222.839C142.964 224.09 143.534 225.228 144.332 226.252H129.45ZM154.596 226.252C152.657 226.252 150.975 225.541 149.55 224.119C148.124 222.697 147.412 221.019 147.412 219.086V186.669C147.412 178.706 150.234 171.939 155.879 166.365C161.524 160.792 168.338 158.005 176.321 158.005H208.651C216.634 158.005 223.42 160.792 229.008 166.365C234.596 171.939 237.39 178.706 237.39 186.669V197.588C237.39 205.55 234.596 212.318 229.008 217.891C223.42 223.465 216.634 226.252 208.651 226.252H154.596ZM179.913 143.673C172.386 143.673 166 141.057 160.754 135.825C155.508 130.593 152.886 124.223 152.886 116.716C152.886 109.209 155.508 102.839 160.754 97.6067C166 92.3744 172.386 89.7583 179.913 89.7583C187.44 89.7583 193.826 92.3744 199.072 97.6067C204.318 102.839 206.941 109.209 206.941 116.716C206.941 124.223 204.318 130.593 199.072 135.825C193.826 141.057 187.44 143.673 179.913 143.673Z" fill="#AD1AAF"/>
<path d="M264.08 172.629V202.07L265.442 200.668L274.653 190.881L277.733 194.115L265.442 207.21L264.08 208.612V231.127H264.509C267.031 230.393 269.44 229.272 271.66 227.816C275.836 224.941 279.329 221.132 281.877 216.675C284.426 212.217 285.965 207.225 286.379 202.07V183.305L264.08 172.629ZM238.493 215.01H205.547V203.013H235.352V203.455C235.813 207.456 236.88 211.346 238.493 215.01Z" fill="#AD1AAF"/>
<path d="M254.75 200.457L251.544 203.659L260.728 213.059L265.031 208.609L266.409 207.235V229.089L265.031 231.127H264.594C262.021 230.389 259.564 229.28 257.301 227.84C253.051 224.982 249.497 221.209 246.899 216.797C244.301 212.385 242.726 207.448 242.289 202.348V183.193L265.394 172.629L266.783 175.317V200.747L265.394 202.132L260.728 206.571L254.75 200.457Z" fill="#FFA8FC"/>
<defs>
<filter id="filter0_f_5_4925" x="0" y="0" width="305.52" height="304.041" filterUnits="userSpaceOnUse" color-interpolation-filters="sRGB">
<feFlood flood-opacity="0" result="BackgroundImageFix"/>
<feBlend mode="normal" in="SourceGraphic" in2="BackgroundImageFix" result="shape"/>
<feGaussianBlur stdDeviation="20" result="effect1_foregroundBlur_5_4925"/>
</filter>
<radialGradient id="paint0_radial_5_4925" cx="0" cy="0" r="1" gradientUnits="userSpaceOnUse" gradientTransform="translate(213.988 99.9757) scale(176.266 174.976)">
<stop stop-color="#FF9EFA"/>
<stop offset="0.5" stop-color="#AD1AAF"/>
<stop offset="1" stop-color="#231736"/>
</radialGradient>
</defs>
</svg>
