<svg width="41" height="41" viewBox="0 0 41 41" fill="none" xmlns="http://www.w3.org/2000/svg">
<path d="M2.27778 41C1.63241 41 1.09181 40.7813 0.656 40.344C0.218667 39.9082 0 39.3676 0 38.7222V31.8889C0 31.2435 0.218667 30.7029 0.656 30.2671C1.09181 29.8298 1.63241 29.6111 2.27778 29.6111H9.11111L18.2222 20.5V13.2111C16.8556 12.7176 15.7546 11.8915 14.9194 10.7329C14.0843 9.57578 13.6667 8.27593 13.6667 6.83333C13.6667 4.93518 14.331 3.32176 15.6597 1.99306C16.9884 0.664352 18.6019 0 20.5 0C22.3981 0 24.0116 0.664352 25.3403 1.99306C26.669 3.32176 27.3333 4.93518 27.3333 6.83333C27.3333 8.27593 26.9157 9.57578 26.0806 10.7329C25.2454 11.8915 24.1444 12.7176 22.7778 13.2111V20.5L31.8889 29.6111H38.7222C39.3676 29.6111 39.9082 29.8298 40.344 30.2671C40.7813 30.7029 41 31.2435 41 31.8889V38.7222C41 39.3676 40.7813 39.9082 40.344 40.344C39.9082 40.7813 39.3676 41 38.7222 41H31.8889C31.2435 41 30.7029 40.7813 30.2671 40.344C29.8298 39.9082 29.6111 39.3676 29.6111 38.7222V34.0528L20.5 24.9417L11.3889 34.0528V38.7222C11.3889 39.3676 11.171 39.9082 10.7352 40.344C10.2978 40.7813 9.75648 41 9.11111 41H2.27778Z" fill="white"/>
</svg>
