<svg width="70" height="85" viewBox="0 0 70 85" fill="none" xmlns="http://www.w3.org/2000/svg">
<ellipse cx="35.5" cy="25" rx="24.5" ry="25" fill="#FFE9F7"/>
<path d="M15.0078 72H12.5781L12.5938 70.4453H15.0078C15.7109 70.4453 16.2995 70.2917 16.7734 69.9844C17.2526 69.6771 17.612 69.237 17.8516 68.6641C18.0964 68.0911 18.2188 67.4089 18.2188 66.6172V66C18.2188 65.3854 18.1484 64.8411 18.0078 64.3672C17.8724 63.8932 17.6693 63.4948 17.3984 63.1719C17.1328 62.849 16.8047 62.6042 16.4141 62.4375C16.0286 62.2708 15.5833 62.1875 15.0781 62.1875H12.5312V60.625H15.0781C15.8333 60.625 16.5234 60.7526 17.1484 61.0078C17.7734 61.2578 18.3125 61.6198 18.7656 62.0938C19.224 62.5677 19.5755 63.1354 19.8203 63.7969C20.0651 64.4583 20.1875 65.1979 20.1875 66.0156V66.6172C20.1875 67.4349 20.0651 68.1745 19.8203 68.8359C19.5755 69.4974 19.224 70.0651 18.7656 70.5391C18.3073 71.0078 17.7604 71.3698 17.125 71.625C16.4948 71.875 15.7891 72 15.0078 72ZM13.6641 60.625V72H11.7031V60.625H13.6641ZM25.6953 72.1562C25.0703 72.1562 24.5052 72.0547 24 71.8516C23.5 71.6432 23.0729 71.3542 22.7188 70.9844C22.3698 70.6146 22.1016 70.1797 21.9141 69.6797C21.7266 69.1797 21.6328 68.6406 21.6328 68.0625V67.75C21.6328 67.0885 21.7292 66.4896 21.9219 65.9531C22.1146 65.4167 22.3828 64.9583 22.7266 64.5781C23.0703 64.1927 23.4766 63.8984 23.9453 63.6953C24.4141 63.4922 24.9219 63.3906 25.4688 63.3906C26.0729 63.3906 26.6016 63.4922 27.0547 63.6953C27.5078 63.8984 27.8828 64.1849 28.1797 64.5547C28.4818 64.9193 28.7057 65.3542 28.8516 65.8594C29.0026 66.3646 29.0781 66.9219 29.0781 67.5312V68.3359H22.5469V66.9844H27.2188V66.8359C27.2083 66.4974 27.1406 66.1797 27.0156 65.8828C26.8958 65.5859 26.7109 65.3464 26.4609 65.1641C26.2109 64.9818 25.8776 64.8906 25.4609 64.8906C25.1484 64.8906 24.8698 64.9583 24.625 65.0938C24.3854 65.224 24.1849 65.4141 24.0234 65.6641C23.862 65.9141 23.737 66.2161 23.6484 66.5703C23.5651 66.9193 23.5234 67.3125 23.5234 67.75V68.0625C23.5234 68.4323 23.5729 68.776 23.6719 69.0938C23.776 69.4062 23.9271 69.6797 24.125 69.9141C24.3229 70.1484 24.5625 70.3333 24.8438 70.4688C25.125 70.599 25.4453 70.6641 25.8047 70.6641C26.2578 70.6641 26.6615 70.5729 27.0156 70.3906C27.3698 70.2083 27.6771 69.9505 27.9375 69.6172L28.9297 70.5781C28.7474 70.8438 28.5104 71.099 28.2188 71.3438C27.9271 71.5833 27.5703 71.7786 27.1484 71.9297C26.7318 72.0807 26.2474 72.1562 25.6953 72.1562ZM32.4375 65.1719V75.25H30.5547V63.5469H32.2891L32.4375 65.1719ZM37.9453 67.6953V67.8594C37.9453 68.474 37.8724 69.0443 37.7266 69.5703C37.5859 70.0911 37.375 70.5469 37.0938 70.9375C36.8177 71.3229 36.4766 71.6224 36.0703 71.8359C35.6641 72.0495 35.1953 72.1562 34.6641 72.1562C34.138 72.1562 33.6771 72.0599 33.2812 71.8672C32.8906 71.6693 32.5599 71.3906 32.2891 71.0312C32.0182 70.6719 31.7995 70.25 31.6328 69.7656C31.4714 69.276 31.3568 68.7396 31.2891 68.1562V67.5234C31.3568 66.9036 31.4714 66.3411 31.6328 65.8359C31.7995 65.3307 32.0182 64.8958 32.2891 64.5312C32.5599 64.1667 32.8906 63.8854 33.2812 63.6875C33.6719 63.4896 34.1276 63.3906 34.6484 63.3906C35.1797 63.3906 35.651 63.4948 36.0625 63.7031C36.474 63.9062 36.8203 64.1979 37.1016 64.5781C37.3828 64.9531 37.5938 65.4062 37.7344 65.9375C37.875 66.4635 37.9453 67.0495 37.9453 67.6953ZM36.0625 67.8594V67.6953C36.0625 67.3047 36.026 66.9427 35.9531 66.6094C35.8802 66.2708 35.7656 65.974 35.6094 65.7188C35.4531 65.4635 35.2526 65.2656 35.0078 65.125C34.7682 64.9792 34.4792 64.9062 34.1406 64.9062C33.8073 64.9062 33.5208 64.9635 33.2812 65.0781C33.0417 65.1875 32.8411 65.3411 32.6797 65.5391C32.5182 65.737 32.3932 65.9688 32.3047 66.2344C32.2161 66.4948 32.1536 66.7786 32.1172 67.0859V68.6016C32.1797 68.9766 32.2865 69.3203 32.4375 69.6328C32.5885 69.9453 32.8021 70.1953 33.0781 70.3828C33.3594 70.5651 33.7188 70.6562 34.1562 70.6562C34.4948 70.6562 34.7839 70.5833 35.0234 70.4375C35.263 70.2917 35.4583 70.0911 35.6094 69.8359C35.7656 69.5755 35.8802 69.276 35.9531 68.9375C36.026 68.599 36.0625 68.2396 36.0625 67.8594ZM41.5625 60V72H39.6719V60H41.5625ZM43.2656 67.8672V67.6875C43.2656 67.0781 43.3542 66.513 43.5312 65.9922C43.7083 65.4661 43.9635 65.0104 44.2969 64.625C44.6354 64.2344 45.0469 63.9323 45.5312 63.7188C46.0208 63.5 46.5729 63.3906 47.1875 63.3906C47.8073 63.3906 48.3594 63.5 48.8438 63.7188C49.3333 63.9323 49.7474 64.2344 50.0859 64.625C50.4245 65.0104 50.6823 65.4661 50.8594 65.9922C51.0365 66.513 51.125 67.0781 51.125 67.6875V67.8672C51.125 68.4766 51.0365 69.0417 50.8594 69.5625C50.6823 70.0833 50.4245 70.5391 50.0859 70.9297C49.7474 71.3151 49.3359 71.6172 48.8516 71.8359C48.3672 72.0495 47.8177 72.1562 47.2031 72.1562C46.5833 72.1562 46.0286 72.0495 45.5391 71.8359C45.0547 71.6172 44.6432 71.3151 44.3047 70.9297C43.9661 70.5391 43.7083 70.0833 43.5312 69.5625C43.3542 69.0417 43.2656 68.4766 43.2656 67.8672ZM45.1484 67.6875V67.8672C45.1484 68.2474 45.1875 68.6068 45.2656 68.9453C45.3438 69.2839 45.4661 69.5807 45.6328 69.8359C45.7995 70.0911 46.013 70.2917 46.2734 70.4375C46.5339 70.5833 46.8438 70.6562 47.2031 70.6562C47.5521 70.6562 47.8542 70.5833 48.1094 70.4375C48.3698 70.2917 48.5833 70.0911 48.75 69.8359C48.9167 69.5807 49.0391 69.2839 49.1172 68.9453C49.2005 68.6068 49.2422 68.2474 49.2422 67.8672V67.6875C49.2422 67.3125 49.2005 66.9583 49.1172 66.625C49.0391 66.2865 48.9141 65.987 48.7422 65.7266C48.5755 65.4661 48.362 65.263 48.1016 65.1172C47.8464 64.9661 47.5417 64.8906 47.1875 64.8906C46.8333 64.8906 46.526 64.9661 46.2656 65.1172C46.0104 65.263 45.7995 65.4661 45.6328 65.7266C45.4661 65.987 45.3438 66.2865 45.2656 66.625C45.1875 66.9583 45.1484 67.3125 45.1484 67.6875ZM55.0312 71.0781L57.3281 63.5469H59.3438L55.9531 73.2891C55.875 73.4974 55.7734 73.724 55.6484 73.9688C55.5234 74.2135 55.3594 74.4453 55.1562 74.6641C54.9583 74.888 54.7109 75.0677 54.4141 75.2031C54.1172 75.3438 53.7578 75.4141 53.3359 75.4141C53.1693 75.4141 53.0078 75.3984 52.8516 75.3672C52.7005 75.3411 52.5573 75.3125 52.4219 75.2812L52.4141 73.8438C52.4661 73.849 52.5286 73.8542 52.6016 73.8594C52.6797 73.8646 52.7422 73.8672 52.7891 73.8672C53.1016 73.8672 53.362 73.8281 53.5703 73.75C53.7786 73.6771 53.9479 73.5573 54.0781 73.3906C54.2135 73.224 54.3281 73 54.4219 72.7188L55.0312 71.0781ZM53.7344 63.5469L55.7422 69.875L56.0781 71.8594L54.7734 72.1953L51.7031 63.5469H53.7344Z" fill="white"/>
<path d="M47.9598 12.0402C47.9598 12.0402 40.2007 11.4955 37.2628 14.4173C37.2351 14.4611 32.5085 19.1716 32.5085 19.1716L26.5657 20.3601L23 22.7372L32.5085 27.4915L37.2628 37L39.6399 33.4343L40.8284 27.4915C40.8284 27.4915 45.5389 22.7649 45.5827 22.7372C48.5045 19.7993 47.9598 12.0402 47.9598 12.0402ZM40.8284 20.3601C40.1718 20.3601 39.6399 19.8282 39.6399 19.1716C39.6399 18.5149 40.1718 17.983 40.8284 17.983C41.4851 17.983 42.017 18.5149 42.017 19.1716C42.017 19.8282 41.4851 20.3601 40.8284 20.3601ZM28.9428 31.0572C27.7543 29.8686 25.3771 29.8686 24.1886 31.0572C23 32.2457 23 37 23 37C23 37 27.7543 37 28.9428 35.8114C30.1314 34.6229 30.1314 32.2457 28.9428 31.0572Z" fill="#AD1AAF"/>
</svg>
