<svg width="105" height="105" viewBox="0 0 105 105" fill="none" xmlns="http://www.w3.org/2000/svg">
<circle cx="52.5" cy="52.5" r="52.5" fill="#AD1AAF"/>
<path d="M53.9961 49.1889C48.1984 47.6811 46.334 46.1222 46.334 43.6944C46.334 40.9089 48.9136 38.9667 53.2299 38.9667C57.776 38.9667 59.4617 41.1389 59.6149 44.3333H65.2593C65.0805 39.9378 62.3988 35.9 57.0609 34.5967V29H49.3988V34.52C44.444 35.5933 40.4597 38.8133 40.4597 43.7456C40.4597 49.6489 45.3379 52.5878 52.4637 54.3C58.8487 55.8333 60.1257 58.0822 60.1257 60.4589C60.1257 62.2222 58.8743 65.0333 53.2299 65.0333C47.9686 65.0333 45.8998 62.6822 45.6189 59.6667H40C40.3065 65.2633 44.4951 68.4067 49.3988 69.4544V75H57.0609V69.5056C62.0413 68.56 66 65.6722 66 60.4333C66 53.1756 59.7937 50.6967 53.9961 49.1889Z" fill="white"/>
</svg>
