<svg width="134" height="30" viewBox="0 0 134 30" fill="none" xmlns="http://www.w3.org/2000/svg">
<g clip-path="url(#clip0_58_399)">
<path d="M11.3668 28.5216C15.0341 28.5216 17.4994 27.9753 20.3105 26.6127V0.337891H14.8952V8.14064C13.6964 7.87069 12.4298 7.62967 11.16 7.62967C4.4458 7.62967 0.471558 12.0259 0.471558 18.0258V18.0933C0.471558 24.09 4.64936 28.5216 11.3668 28.5216ZM11.3668 23.6819C7.80291 23.6819 5.91919 21.2266 5.91919 18.0933V18.0258C5.91919 14.8893 7.80291 12.4694 11.3668 12.4694C12.5655 12.4694 13.8321 12.7426 14.8952 12.9804V23.2384C13.8321 23.5115 12.6689 23.6819 11.3668 23.6819Z" fill="white"/>
<path d="M33.1876 28.5218C39.6272 28.5218 44.1184 24.0902 44.1184 18.0582V18.026C44.1184 12.0262 39.6272 7.62988 33.1876 7.62988C26.7448 7.62988 22.2924 12.0262 22.2924 18.026V18.0582C22.2924 24.0902 26.7804 28.5218 33.1876 28.5218ZM33.1876 23.6821C29.9307 23.6821 27.74 21.2268 27.74 18.0582V17.9907C27.74 14.8542 29.8984 12.4696 33.1876 12.4696C36.5092 12.4696 38.6352 14.8542 38.6352 17.9907V18.0582C38.6352 21.2268 36.4769 23.6821 33.1876 23.6821Z" fill="white"/>
<path d="M61.0728 27.9754V22.9653H57.2698C54.9402 22.9653 53.8772 22.0784 53.8772 19.8995V13.3886H61.0373V8.41391H53.8772V2.41724H48.4295V8.41391H44.969V13.3886H48.4295V21.6027C48.4295 25.864 50.142 27.9754 54.8368 27.9754H61.0728Z" fill="white"/>
<path d="M78.0977 27.9754V22.9653H74.2947C71.9651 22.9653 70.9021 22.0784 70.9021 19.8995V13.3886H78.0622V8.41391H70.9021V2.41724H65.4545V8.41391H61.994V13.3886H65.4545V21.6027C65.4545 25.864 67.1669 27.9754 71.8617 27.9754H78.0977Z" fill="white"/>
<path d="M99.9887 18.8423C99.9887 11.8558 96.1502 7.62988 89.8463 7.62988C83.6103 7.62988 79.6005 11.9233 79.6005 18.026V18.0582C79.6005 24.2605 83.8849 28.4865 90.4958 28.4865C94.3343 28.4865 97.042 27.2942 99.0291 26.0666L96.6639 21.876C95.2261 22.8979 93.1356 23.7496 90.7381 23.7496C87.7558 23.7496 85.8042 21.8407 85.2549 19.3212H99.9887V18.8423ZM89.8108 12.0262C92.4506 12.0262 94.0273 13.7294 94.4377 15.979H85.2872C85.8042 13.7294 87.4488 12.0262 89.8108 12.0262Z" fill="white"/>
<path d="M107.385 17.7848V0.337891H101.969V27.9753H107.385V18.2636L107.556 18.0258L107.385 17.7848ZM113.621 17.9551L120.609 8.4138H114.648L107.556 18.0258L114.58 27.9753H120.952L113.621 17.9551Z" fill="white"/>
<mask id="mask0_58_399" style="mask-type:luminance" maskUnits="userSpaceOnUse" x="122" y="12" width="12" height="13">
<path d="M122.265 12.8108H133.525V24.0104H122.265V12.8108Z" fill="white"/>
</mask>
<g mask="url(#mask0_58_399)">
<mask id="mask1_58_399" style="mask-type:luminance" maskUnits="userSpaceOnUse" x="122" y="12" width="12" height="13">
<path d="M127.893 12.8108C124.785 12.8108 122.265 15.3174 122.265 18.4122C122.265 21.5037 124.785 24.0104 127.893 24.0104C131.005 24.0104 133.525 21.5037 133.525 18.4122C133.525 15.3174 131.005 12.8108 127.893 12.8108Z" fill="white"/>
</mask>
<g mask="url(#mask1_58_399)">
<path d="M122.213 13.071H133.473V24.2706H122.213V13.071Z" fill="#AD1AAF"/>
</g>
</g>
</g>
<defs>
<clipPath id="clip0_58_399">
<rect width="134" height="29" fill="white" transform="translate(0 0.11377)"/>
</clipPath>
</defs>
</svg>
