<svg width="29" height="24" viewBox="0 0 29 24" fill="none" xmlns="http://www.w3.org/2000/svg">
<mask id="mask0_1348_4580" style="mask-type:luminance" maskUnits="userSpaceOnUse" x="18" y="10" width="11" height="11">
<path d="M18.7344 10.6211H28.3232V20.1582H18.7344V10.6211Z" fill="white"/>
</mask>
<g mask="url(#mask0_1348_4580)">
<mask id="mask1_1348_4580" style="mask-type:luminance" maskUnits="userSpaceOnUse" x="18" y="10" width="11" height="11">
<path d="M23.5274 10.6211C20.8805 10.6211 18.7344 12.7556 18.7344 15.391C18.7344 18.0236 20.8805 20.1582 23.5274 20.1582C26.1771 20.1582 28.3232 18.0236 28.3232 15.391C28.3232 12.7556 26.1771 10.6211 23.5274 10.6211Z" fill="white"/>
</mask>
<g mask="url(#mask1_1348_4580)">
<path d="M18.5088 9.93066H28.7274V21.0009H18.5088V9.93066Z" fill="#AD1AAF"/>
</g>
</g>
<path d="M9.27791 24C12.4008 24 14.5002 23.5348 16.8939 22.3745V0H12.2825V6.64447C11.2617 6.4146 10.1831 6.20935 9.10182 6.20935C3.38429 6.20935 0 9.95302 0 15.0623V15.1197C0 20.2262 3.55763 24 9.27791 24ZM9.27791 19.8787C6.24305 19.8787 4.63895 17.7879 4.63895 15.1197V15.0623C4.63895 12.3913 6.24305 10.3307 9.27791 10.3307C10.2987 10.3307 11.3773 10.5633 12.2825 10.7658V19.501C11.3773 19.7336 10.3867 19.8787 9.27791 19.8787Z" fill="white"/>
</svg>
