<svg width="174" height="32" viewBox="0 0 174 32" fill="none" xmlns="http://www.w3.org/2000/svg">
<path d="M100.771 31.141L114.075 1.03261C114.286 0.575727 114.039 0.18281 113.527 0.18281H104.207C103.934 0.198309 103.67 0.285992 103.442 0.4369C103.214 0.587809 103.03 0.796533 102.909 1.04174L89.7694 31.141C89.5775 31.607 89.8242 31.9908 90.3268 31.9908H99.4735C99.9853 31.9908 100.57 31.607 100.771 31.141ZM148.479 23.036L169.129 0.191948H144.979L139.515 8.99146H148.99L128.001 31.9999H153.559L163.08 23.036H148.479ZM60.0996 0.18281H44.1088C43.6348 0.210282 43.1764 0.362492 42.78 0.624037C42.3837 0.885583 42.0635 1.24718 41.8518 1.67224L29.2693 30.5105C28.9038 31.3329 29.3516 31.9999 30.2471 31.9999H38.1694C39.0649 31.9999 40.0883 31.3329 40.4355 30.5197L44.0266 22.3415H47.7456C48.9061 22.2684 49.3995 22.6979 48.7598 24.0411L46.0003 30.5105C45.6531 31.3329 46.0917 31.9999 46.9872 31.9999H54.9095C55.3853 31.975 55.846 31.8239 56.2442 31.5621C56.6425 31.3004 56.9639 30.9375 57.1756 30.5105L60.7758 22.1862C61.9089 19.4814 60.2732 17.3889 57.8975 17.2793C59.9991 16.5208 61.9363 14.4283 62.8043 12.5277L64.6684 8.14166C66.9163 3.04288 65.3172 0.118847 60.0996 0.191948M55.4394 9.28386L53.4657 13.6242C53.0088 14.6659 52.3509 14.7481 51.693 14.7207H47.243L50.2219 7.95891H54.4891C55.5308 8.02287 55.7958 8.39752 55.4394 9.28386ZM91.2223 0.173672H74.2812C73.9419 0.191354 73.6134 0.2988 73.3292 0.485029C73.0451 0.671259 72.8154 0.929594 72.6638 1.23363L59.6976 30.9308C59.4508 31.5156 59.7524 31.9817 60.392 31.9817H78.5302C84.2777 31.8994 87.5764 30.6293 90.1989 24.5437L92.063 20.4866C93.525 17.0143 92.0904 15.5066 89.3491 15.068C91.6335 14.3644 93.3514 12.217 94.0915 10.3255L95.6083 7.10911C97.4724 2.81444 95.919 0.118847 91.2132 0.173672M82.9071 20.0936L81.7557 22.4055C81.1801 24.0137 80.1749 24.4523 78.7586 24.4706H73.4588L75.999 18.4854H81.2989C82.7974 18.5951 83.3822 18.9606 82.9071 20.0936ZM85.9499 9.4392L85.1549 11.2667L85.0361 11.5043C84.9041 11.8855 84.6497 12.2124 84.3125 12.4338C83.9753 12.6553 83.5743 12.759 83.1721 12.7287H78.5759L80.6775 7.88581H85.3651C86.2057 7.94064 86.3428 8.48889 85.9499 9.4392ZM117.009 0.18281L113.07 8.99146H118.69C119.074 8.99146 119.256 9.26559 119.101 9.62195L109.278 31.3694C109.114 31.7167 109.306 31.9999 109.689 31.9999H119.695C120.079 31.9999 120.517 31.7167 120.673 31.3603L130.103 9.62195C130.193 9.43911 130.33 9.28353 130.501 9.17115C130.671 9.05876 130.868 8.9936 131.071 8.98232H136.837L142.265 0.18281H117.009ZM33.9935 11.02L35.2362 8.30614C37.7399 2.586 36.086 0.127984 31.17 0.191948H19.3368C14.4664 0.127984 10.4093 2.86926 8.16148 7.96805L4.50644 18.2935H1.05243L7.65892 27.2118L18.5784 18.2935H15.8005L19.0078 10.8464C19.5287 9.62195 20.4241 9.03715 21.3836 8.99146H23.2477C23.6863 9.00974 23.9878 9.1468 24.1614 9.33869L29.9547 4.46835L33.9935 11.02Z" fill="white"/>
<path d="M7.41229 29.8344L2.55108 23.6757L2.29523 24.2239C0.0382432 29.3593 0.412885 31.9178 5.28323 31.9909H16.9611C21.7949 31.9178 26.0256 29.3593 28.2917 24.2239L31.764 16.2651H34.8708L29.571 7.33765L18.7429 16.2651H21.7126L19.5196 21.3365C18.9896 22.4147 18.1855 22.9995 17.3266 23.036H15.7732L7.41229 29.8344Z" fill="white"/>
<path d="M172.977 0.000121574C173.406 0.000121574 173.771 0.155461 174.073 0.457002C174.375 0.758543 174.53 1.12405 174.53 1.55351C174.53 1.97384 174.375 2.33935 174.073 2.65003C173.771 2.96071 173.406 3.10691 172.977 3.10691C172.772 3.11005 172.569 3.07111 172.381 2.99251C172.192 2.91391 172.022 2.79733 171.88 2.65003C171.578 2.33935 171.423 1.97384 171.423 1.55351C171.423 1.13318 171.578 0.749405 171.88 0.457002C172.022 0.310133 172.192 0.193842 172.381 0.115274C172.57 0.0367063 172.772 -0.00248031 172.977 0.000121574ZM172.977 2.8145C173.144 2.81829 173.311 2.78783 173.466 2.72499C173.622 2.66214 173.763 2.56823 173.881 2.449C174.001 2.33132 174.095 2.19028 174.158 2.03467C174.221 1.87905 174.251 1.71216 174.247 1.54438C174.25 1.37812 174.219 1.21297 174.156 1.05902C174.093 0.905057 174 0.765513 173.881 0.648891C173.763 0.52922 173.622 0.435021 173.467 0.372144C173.311 0.309268 173.144 0.279057 172.977 0.283387C172.81 0.279772 172.645 0.310346 172.491 0.373218C172.337 0.436089 172.197 0.529918 172.081 0.648891C171.834 0.895607 171.716 1.19715 171.716 1.54438C171.716 1.89161 171.834 2.20228 172.081 2.449C172.328 2.69571 172.629 2.8145 172.977 2.8145ZM173.771 2.3759H173.406L172.949 1.71799H172.757V2.3759H172.428V0.703717H172.949C173.132 0.703717 173.278 0.749405 173.388 0.831644C173.497 0.92302 173.561 1.04181 173.561 1.19715C173.561 1.39818 173.452 1.55351 173.242 1.63575L173.771 2.3759ZM172.766 1.44386H172.94C173.15 1.44386 173.251 1.36162 173.251 1.20629C173.251 1.05095 173.159 0.977845 172.949 0.977845H172.766V1.44386Z" fill="white"/>
</svg>
