<svg width="103" height="32" viewBox="0 0 103 32" fill="none" xmlns="http://www.w3.org/2000/svg">
<path d="M54.4692 8.04048C54.4692 9.19374 53.5399 10.1224 52.3867 10.1224C51.2334 10.1224 50.3048 9.19374 50.3048 8.04048C50.3048 6.88723 51.2017 5.9586 52.3867 5.9586C53.5726 5.9906 54.4692 6.91955 54.4692 8.04048ZM45.8844 12.2369V12.7495C45.8844 12.7495 44.8918 11.4676 42.7776 11.4676C39.2865 11.4676 36.5633 14.1264 36.5633 17.8099C36.5633 21.4617 39.2545 24.1522 42.7776 24.1522C44.9238 24.1522 45.8844 22.8389 45.8844 22.8389V23.3832C45.8844 23.6395 46.077 23.8312 46.333 23.8312H48.9272V11.787H46.333C46.077 11.7879 45.8844 12.0126 45.8844 12.2369ZM45.8844 19.9561C45.4044 20.661 44.4431 21.2697 43.2902 21.2697C41.2403 21.2697 39.6704 19.9884 39.6704 17.8099C39.6704 15.6317 41.2403 14.3504 43.2902 14.3504C44.4115 14.3504 45.4364 14.9911 45.8844 15.6637V19.9561ZM50.8494 11.7879H53.9242V23.8322H50.8494V11.7879ZM96.7829 11.4673C94.6687 11.4673 93.6754 12.7492 93.6754 12.7492V5.9906H90.6006V23.8322H93.1954C93.4518 23.8322 93.6434 23.6078 93.6434 23.3835V22.8392C93.6434 22.8392 94.6367 24.1525 96.7503 24.1525C100.242 24.1525 102.965 21.4626 102.965 17.8108C102.965 14.1591 100.242 11.4673 96.7829 11.4673ZM96.2703 21.2373C95.0847 21.2373 94.1561 20.6293 93.6754 19.9241V15.6317C94.1561 14.9911 95.181 14.3184 96.2703 14.3184C98.3201 14.3184 99.8897 15.5997 99.8897 17.7779C99.8897 19.9561 98.3205 21.2373 96.2703 21.2373ZM88.9994 16.6893V23.8642H85.9239V17.0413C85.9239 15.0557 85.2833 14.2544 83.5547 14.2544C82.6261 14.2544 81.6648 14.7351 81.0552 15.44V23.8325H77.981V11.7882H80.4146C80.6709 11.7882 80.8632 12.0126 80.8632 12.2369V12.7495C81.7602 11.8202 82.9451 11.4676 84.13 11.4676C85.4756 11.4676 86.5969 11.8526 87.4938 12.6212C88.5824 13.5181 88.9994 14.6711 88.9994 16.6893ZM70.5165 11.4673C68.403 11.4673 67.4097 12.7492 67.4097 12.7492V5.9906H64.3349V23.8322H66.9291C67.1854 23.8322 67.3777 23.6078 67.3777 23.3835V22.8392C67.3777 22.8392 68.371 24.1525 70.4845 24.1525C73.9763 24.1525 76.6988 21.4626 76.6988 17.8108C76.7308 14.1588 74.0083 11.4673 70.5165 11.4673ZM70.0039 21.2373C68.819 21.2373 67.8904 20.6293 67.4097 19.9241V15.6317C67.8904 14.9911 68.9153 14.3184 70.0039 14.3184C72.0544 14.3184 73.6237 15.5997 73.6237 17.7779C73.6237 19.9561 72.0544 21.2373 70.0039 21.2373ZM61.6761 11.4673C62.6047 11.4673 63.0853 11.6279 63.0853 11.6279V14.4784C63.0853 14.4784 60.5228 13.6135 58.9216 15.4397V23.8638H55.8461V11.7879H58.4409C58.6973 11.7879 58.8889 12.0122 58.8889 12.2366V12.7492C59.4662 12.0762 60.7155 11.4673 61.6761 11.4673ZM29.741 22.7429C29.581 22.3586 29.4207 21.9423 29.2607 21.5897C29.0041 21.0133 28.7478 20.4684 28.5241 19.9561L28.4921 19.9241C26.2816 15.1191 23.9117 10.2507 21.4129 5.4463L21.3169 5.25365C21.0541 4.75525 20.7979 4.25336 20.5486 3.74809C20.228 3.17114 19.908 2.56315 19.3953 1.9862C18.3704 0.704946 16.8968 0 15.3276 0C13.7257 0 12.2844 0.70495 11.2278 1.92189C10.7472 2.49819 10.3946 3.10683 10.0746 3.68377C9.82457 4.18872 9.56845 4.69061 9.30626 5.18934L9.20994 5.38197C6.74343 10.1864 4.34124 15.0551 2.13104 19.8598L2.09873 19.9234C1.87473 20.4367 1.61809 20.981 1.36178 21.557C1.20178 21.9096 1.04179 22.294 0.881788 22.7103C0.465157 23.8952 0.336833 25.0165 0.49747 26.17C0.849783 28.5726 2.45103 30.5898 4.66155 31.4874C5.49449 31.84 6.35943 32 7.25605 32C7.51237 32 7.83237 31.968 8.08901 31.9357C9.14626 31.8077 10.2352 31.4557 11.2925 30.8471C12.6057 30.1101 13.855 29.0535 15.2642 27.5159C16.6735 29.0535 17.9547 30.1101 19.236 30.8471C20.2936 31.4557 21.3822 31.8077 22.4391 31.9357C22.6954 31.9683 23.0161 32 23.2724 32C24.1693 32 25.0659 31.84 25.8666 31.4874C28.1091 30.5898 29.6783 28.5406 30.031 26.17C30.2853 25.0491 30.1573 23.9285 29.741 22.7429ZM15.2953 24.4085C13.5654 22.2303 12.4441 20.1804 12.0601 18.4512C11.9001 17.7142 11.8678 17.0736 11.9641 16.497C12.0278 15.9843 12.2204 15.5357 12.4767 15.1514C13.0854 14.2871 14.1103 13.7421 15.2956 13.7421C16.4812 13.7421 17.5381 14.2548 18.1147 15.1514C18.371 15.5357 18.563 15.9846 18.6277 16.497C18.7233 17.0739 18.6914 17.7462 18.5314 18.4512C18.1458 20.1484 17.0245 22.1986 15.2953 24.4085ZM28.0752 25.914C27.8512 27.5796 26.7299 29.0215 25.1607 29.6621C24.392 29.9821 23.5588 30.0784 22.7265 29.9821C21.9258 29.8858 21.1246 29.6295 20.2923 29.1495C19.139 28.5082 17.9861 27.5159 16.6405 26.042C18.7544 23.4478 20.0356 21.077 20.5163 18.9635C20.7406 17.9702 20.7729 17.0736 20.6763 16.2403C20.5486 15.4397 20.26 14.7027 19.8116 14.0621C18.8181 12.6202 17.1522 11.7879 15.2949 11.7879C13.4377 11.7879 11.7718 12.6529 10.7789 14.0621C10.3306 14.7027 10.0419 15.4397 9.91392 16.2403C9.78592 17.0736 9.8176 18.0022 10.0739 18.9635C10.5542 21.077 11.8675 23.4795 13.9494 26.074C12.6361 27.5476 11.4509 28.5409 10.2976 29.1815C9.46465 29.6621 8.66435 29.9184 7.86373 30.0141C6.9991 30.1104 6.16584 29.9821 5.42922 29.6941C3.85997 29.0535 2.73871 27.6116 2.51471 25.946C2.41872 25.1454 2.4824 24.3448 2.80303 23.4478C2.89871 23.1272 3.05934 22.8072 3.21934 22.4229C3.44365 21.9103 3.69933 21.3653 3.95596 20.821L3.98829 20.7573C6.19816 15.9843 8.56835 11.1156 11.0349 6.37523L11.1309 6.1826C11.3875 5.70261 11.6438 5.18998 11.8998 4.70935C12.1561 4.19672 12.4441 3.71609 12.7967 3.29945C13.4694 2.53147 14.366 2.11452 15.3593 2.11452C16.3525 2.11452 17.2491 2.53147 17.9218 3.29945C18.2744 3.71705 18.5624 4.19768 18.8187 4.70935C19.0753 5.18998 19.3317 5.70261 19.5873 6.1826L19.6836 6.37523C22.1125 11.1353 24.4513 15.9409 26.6985 20.7893V20.8213C26.9552 21.3346 27.1792 21.9106 27.4355 22.4239C27.5955 22.8075 27.7558 23.1275 27.8518 23.4482C28.1075 24.2802 28.2035 25.0814 28.0752 25.914Z" fill="white"/>
</svg>
