<svg width="104" height="104" viewBox="0 0 104 104" fill="none" xmlns="http://www.w3.org/2000/svg">
<rect width="104" height="104" rx="52" fill="#301E3B" fill-opacity="0.4"/>
<g clip-path="url(#clip0_92_440)">
<path d="M52 24.6534H79.0103V51.6637H52V24.6534ZM64.0477 42.9118L71.7148 35.268L69.5545 33.1086L64.154 38.509L61.4518 35.8108L59.2914 37.9702L64.0477 42.9118Z" fill="#FFA8FC"/>
<path d="M24.9897 57.4005V79.0103H46.5996V57.4005H24.9897ZM41.1951 73.6058H30.3942V62.805H41.1951V73.6058ZM52 52H79.0103V46.6786L57.4004 46.5996L52 52Z" fill="#AD1AAF"/>
<path d="M73.6058 30.3942V46.6502L79.0103 52V24.9897L73.6058 30.3942Z" fill="#DB46DD"/>
<path d="M46.5996 79.0102L41.1951 73.6057V62.8049L46.5996 57.4004V79.0102Z" fill="#FFA8FC"/>
<path d="M24.9897 79.0103L30.3942 73.6058H41.1951L46.5996 79.0103H24.9897Z" fill="#DB46DD"/>
<path d="M24.9897 30.3942V52H46.5996V30.3942H24.9897ZM41.1951 46.5995H30.3942V35.7946H41.1951V46.5995Z" fill="#AD1AAF"/>
<path d="M46.5996 52L41.1951 46.5995V35.7946L46.5996 30.3942V52Z" fill="#FFA8FC"/>
<path d="M24.9897 52L30.3942 46.5996H41.1951L46.5996 52H24.9897Z" fill="#DB46DD"/>
<path d="M52 57.6366V79.2464H73.6058V57.6366H52ZM68.2054 73.842H57.4004V63.0411H68.2054V73.842Z" fill="#AD1AAF"/>
<path d="M73.6058 79.0102L68.2054 73.6057V62.8049L73.6058 57.4004V79.0102Z" fill="#FFA8FC"/>
<path d="M52 79.0103L57.4004 73.6058H68.2054L73.6058 79.0103H52Z" fill="#DB46DD"/>
</g>
<defs>
<clipPath id="clip0_92_440">
<rect width="55" height="55" fill="white" transform="translate(24.5 24.5)"/>
</clipPath>
</defs>
</svg>
