<svg width="392" height="323" viewBox="0 0 392 323" fill="none" xmlns="http://www.w3.org/2000/svg">
<g opacity="0.4" filter="url(#filter0_f_5_4951)">
<rect x="40" y="40" width="229.368" height="228.992" rx="80" fill="url(#paint0_radial_5_4951)"/>
</g>
<path d="M112.89 322.998C112.89 322.998 49.9636 324.168 44.5639 270.619C39.1643 217.07 82.2229 196.592 112.89 201.296C134.073 204.548 177.063 192.44 188.623 167.88C220.813 99.9408 310.599 104.161 330.19 151.137C347.566 192.786 347.358 187.321 371.311 196.661C395.263 206.07 397.963 282.864 381.279 320.155C335.33 322.998 142.329 322.998 112.89 322.998Z" fill="#78657D"/>
<path d="M107.977 318.076C107.977 318.076 45.7929 319.227 40.4569 266.529C35.121 213.83 77.6718 193.676 107.977 198.306C128.911 201.506 171.393 189.591 182.817 165.421C214.628 98.5598 303.355 102.713 322.715 148.944C339.886 189.932 339.681 184.553 363.351 193.744C387.02 203.004 389.688 278.58 373.202 315.278C327.794 318.076 137.069 318.076 107.977 318.076Z" fill="#FFDFFA"/>
<path d="M341.492 127.413C341.492 127.413 334.334 138.04 342.267 153.34C350.2 168.58 371.016 171.909 380.798 158.712C390.58 145.515 386.822 126.187 379.426 123.325C372.03 120.464 349.603 113.048 341.492 127.413Z" fill="#78657D"/>
<path d="M114.294 158.731C110.643 159.408 104.061 158.792 101.308 148.571C98.6151 138.411 110.344 133.115 117.764 134.224C125.244 135.394 134.699 154.913 114.294 158.731Z" fill="#78657C"/>
<path d="M114.294 154.736C110.643 155.37 104.061 154.794 101.308 145.231C98.6151 135.727 110.344 130.773 117.764 131.81C125.244 132.904 134.699 151.165 114.294 154.736Z" fill="#FFDFFA"/>
<path d="M341.492 123.548C341.492 123.548 334.334 134.353 342.267 149.907C350.2 165.402 371.016 168.786 380.798 155.369C390.58 141.952 386.822 122.302 379.426 119.393C372.03 116.484 349.603 108.944 341.492 123.548Z" fill="#FFDFFA"/>
<path d="M206.519 106.443H272.962V173.408H206.519V106.443ZM236.155 151.71L255.016 132.759L249.701 127.406L236.417 140.794L229.769 134.105L224.455 139.459L236.155 151.71Z" fill="#77657B"/>
<path d="M140.075 187.63V241.206H193.234V187.63H140.075ZM179.939 227.807H153.37V201.029H179.939V227.807ZM206.519 174.241H272.962V161.048L219.803 160.853L206.519 174.241Z" fill="#77657B"/>
<path d="M259.667 120.676V160.978L272.962 174.241L272.962 107.277L259.667 120.676Z" fill="#77657B"/>
<path d="M193.234 241.206L179.939 227.807V201.029L193.234 187.63V241.206Z" fill="#77657B"/>
<path d="M140.075 241.206L153.37 227.807H179.939L193.234 241.206H140.075Z" fill="#77657B"/>
<path d="M140.075 120.676V174.241H193.234V120.676H140.075ZM179.939 160.853H153.37V134.065H179.939V160.853Z" fill="#77657B"/>
<path d="M193.234 174.241L179.939 160.853V134.065L193.234 120.676V174.241Z" fill="#77657B"/>
<path d="M140.075 174.241L153.37 160.853H179.939L193.234 174.241H140.075Z" fill="#77657B"/>
<path d="M206.519 188.216V241.791H259.667V188.216H206.519ZM246.383 228.392H219.803V201.615H246.383V228.392Z" fill="#77657B"/>
<path d="M259.667 241.206L246.383 227.807V201.029L259.667 187.63V241.206Z" fill="#77657B"/>
<path d="M206.519 241.206L219.803 227.807H246.383L259.667 241.206H206.519Z" fill="#77657B"/>
<path d="M203.237 103.162H269.681V170.127H203.237V103.162ZM232.874 148.429L251.735 129.478L246.42 124.124L233.135 137.513L226.488 130.824L221.174 136.177L232.874 148.429Z" fill="#FFA8FC"/>
<path d="M136.794 184.349V237.924H189.953V184.349H136.794ZM176.658 224.526H150.089V197.748H176.658V224.526ZM203.237 170.96H269.681V157.767L216.522 157.571L203.237 170.96Z" fill="#AD1AAF"/>
<path d="M256.386 117.395V157.697L269.681 170.96L269.681 103.996L256.386 117.395Z" fill="#DB46DD"/>
<path d="M189.953 237.924L176.658 224.526V197.748L189.953 184.349V237.924Z" fill="#FFA8FC"/>
<path d="M136.794 237.924L150.089 224.526H176.658L189.953 237.924H136.794Z" fill="#DB46DD"/>
<path d="M136.794 117.395V170.96H189.953V117.395H136.794ZM176.658 157.571H150.089V130.784H176.658V157.571Z" fill="#AD1AAF"/>
<path d="M189.953 170.96L176.658 157.571V130.784L189.953 117.395V170.96Z" fill="#FFA8FC"/>
<path d="M136.794 170.96L150.089 157.571H176.658L189.953 170.96H136.794Z" fill="#DB46DD"/>
<path d="M203.237 184.935V238.51H256.386V184.935H203.237ZM243.102 225.111H216.522V198.334H243.102V225.111Z" fill="#AD1AAF"/>
<path d="M256.386 237.924L243.102 224.526V197.748L256.386 184.349V237.924Z" fill="#FFA8FC"/>
<path d="M203.237 237.924L216.522 224.526H243.102L256.386 237.924H203.237Z" fill="#DB46DD"/>
<defs>
<filter id="filter0_f_5_4951" x="0" y="0" width="309.368" height="308.992" filterUnits="userSpaceOnUse" color-interpolation-filters="sRGB">
<feFlood flood-opacity="0" result="BackgroundImageFix"/>
<feBlend mode="normal" in="SourceGraphic" in2="BackgroundImageFix" result="shape"/>
<feGaussianBlur stdDeviation="20" result="effect1_foregroundBlur_5_4951"/>
</filter>
<radialGradient id="paint0_radial_5_4951" cx="0" cy="0" r="1" gradientUnits="userSpaceOnUse" gradientTransform="translate(216.958 101.301) scale(179.274 178.843)">
<stop stop-color="#FF9EFA"/>
<stop offset="0.5" stop-color="#AD1AAF"/>
<stop offset="1" stop-color="#231736"/>
</radialGradient>
</defs>
</svg>
