<svg width="73" height="72" viewBox="0 0 73 72" fill="none" xmlns="http://www.w3.org/2000/svg">
<g clip-path="url(#clip0_1_2239)">
<path d="M35.2422 2.07053C34.6147 2.10219 33.9999 2.25801 33.4339 2.52884L8.75767 14.3375C8.119 14.6429 7.55781 15.0874 7.11581 15.6379C6.6738 16.1884 6.36233 16.8307 6.20452 17.5172L0.116737 44.0423C-0.0238392 44.6535 -0.0395716 45.2864 0.0704707 45.9037C0.180513 46.521 0.414094 47.1101 0.75739 47.6361C0.840631 47.7647 0.930156 47.8892 1.02564 48.0091L18.1055 69.2779C18.5476 69.8282 19.1089 70.2725 19.7476 70.5779C20.3863 70.8832 21.086 71.0417 21.7948 71.0416L49.1851 71.0352C49.8937 71.0358 50.5933 70.8778 51.2319 70.573C51.8706 70.2682 52.432 69.8245 52.8744 69.2747L69.948 48.0028C70.3903 47.4521 70.702 46.8096 70.8599 46.1228C71.0178 45.4361 71.0179 44.7228 70.86 44.036L64.7628 17.5109C64.605 16.8244 64.2935 16.1821 63.8515 15.6316C63.4095 15.0811 62.8483 14.6366 62.2096 14.3311L37.5303 2.52884C36.8183 2.18815 36.0315 2.03056 35.2422 2.07053Z" fill="#326CE5"/>
<path d="M35.4873 11.0974C34.6716 11.0975 34.0102 11.8333 34.0103 12.741C34.0103 12.7549 34.0132 12.7683 34.0135 12.7821C34.0123 12.9054 34.0063 13.054 34.0103 13.1614C34.0298 13.6849 34.1437 14.0856 34.2123 14.5679C34.3366 15.6003 34.4407 16.456 34.3764 17.2514C34.3139 17.5514 34.0934 17.8257 33.8967 18.0163L33.862 18.6422C32.9756 18.7157 32.0833 18.8504 31.1921 19.0531C27.357 19.9251 24.0551 21.9036 21.5413 24.5749C21.3781 24.4635 21.0928 24.2584 21.0079 24.1956C20.7442 24.2313 20.4777 24.3128 20.1306 24.1103C19.4696 23.6647 18.8676 23.0496 18.1392 22.3086C17.8054 21.9542 17.5637 21.6167 17.1671 21.2751C17.0771 21.1975 16.9396 21.0926 16.8389 21.0127C16.5289 20.7652 16.1632 20.6361 15.8101 20.624C15.356 20.6084 14.919 20.7862 14.6329 21.1455C14.1244 21.7842 14.2872 22.7606 14.9959 23.3264C15.003 23.3321 15.0107 23.3366 15.0179 23.3422C15.1153 23.4213 15.2346 23.5226 15.3241 23.5888C15.7449 23.8999 16.1293 24.0592 16.5486 24.3062C17.4319 24.8526 18.1642 25.3056 18.7451 25.8519C18.9719 26.094 19.0116 26.5207 19.0418 26.7053L19.5151 27.1288C16.981 30.9484 15.8081 35.6664 16.5012 40.4736L15.8827 40.6537C15.7197 40.8646 15.4893 41.1963 15.2483 41.2954C14.4884 41.5351 13.6331 41.6231 12.6005 41.7315C12.1157 41.7719 11.6974 41.7478 11.1835 41.8453C11.0704 41.8668 10.9128 41.9079 10.789 41.937C10.7847 41.9379 10.7807 41.9392 10.7764 41.9401C10.7696 41.9417 10.7608 41.945 10.7543 41.9465C9.88374 42.1571 9.3245 42.9585 9.50454 43.7481C9.68462 44.5379 10.535 45.0181 11.4107 44.8291C11.417 44.8276 11.4262 44.8274 11.4328 44.8259C11.4427 44.8237 11.4514 44.8189 11.4612 44.8164C11.5833 44.7896 11.7363 44.7597 11.8431 44.7311C12.3484 44.5956 12.7143 44.3965 13.1686 44.2222C14.1458 43.8712 14.9553 43.5779 15.7438 43.4636C16.0732 43.4378 16.4202 43.6672 16.5928 43.7639L17.2366 43.6533C18.7181 48.2536 21.8229 51.9719 25.7544 54.3051L25.4862 54.9499C25.5829 55.2002 25.6895 55.539 25.6175 55.7863C25.3308 56.5308 24.8398 57.3167 24.2806 58.1928C24.0099 58.5976 23.7328 58.9117 23.4885 59.3749C23.43 59.4858 23.3555 59.656 23.2991 59.7732C22.9195 60.5866 23.198 61.5235 23.9271 61.8751C24.6609 62.2289 25.5717 61.8557 25.9659 61.0406C25.9665 61.0395 25.9685 61.0386 25.969 61.0375C25.9694 61.0366 25.9686 61.0352 25.969 61.0343C26.0252 60.9188 26.1047 60.7669 26.1521 60.6582C26.3613 60.1781 26.431 59.7666 26.5781 59.3022C26.9689 58.3191 27.1836 57.2875 27.7216 56.6448C27.8689 56.4687 28.1091 56.401 28.3581 56.3343L28.6926 55.7274C32.12 57.045 35.9564 57.3986 39.7888 56.5271C40.6631 56.3283 41.5071 56.071 42.323 55.7622C42.4171 55.9292 42.5918 56.2503 42.6386 56.3311C42.8917 56.4136 43.1679 56.4561 43.3929 56.7894C43.7954 57.4781 44.0706 58.2929 44.406 59.277C44.5531 59.7413 44.6259 60.1528 44.8352 60.6329C44.8829 60.7424 44.962 60.8964 45.0182 61.0122C45.4115 61.8299 46.3252 62.2044 47.0601 61.8498C47.7892 61.498 48.0679 60.5612 47.6881 59.7479C47.6317 59.6308 47.5541 59.4605 47.4956 59.3496C47.2513 58.8864 46.9742 58.5754 46.7035 58.1707C46.1443 57.2946 45.6805 56.5668 45.3938 55.8222C45.2739 55.4382 45.414 55.1994 45.5074 54.9499C45.4515 54.8857 45.3318 54.523 45.2612 54.3525C49.347 51.9363 52.3606 48.0794 53.7759 43.6248C53.967 43.6549 54.2992 43.7138 54.4071 43.7355C54.6292 43.5887 54.8335 43.3973 55.234 43.4289C56.0225 43.5431 56.8319 43.8365 57.8092 44.1875C58.2635 44.3617 58.6294 44.564 59.1347 44.6995C59.2415 44.7281 59.3945 44.7549 59.5165 44.7817C59.5264 44.7841 59.5351 44.7889 59.545 44.7912C59.5515 44.7926 59.5607 44.7929 59.567 44.7943C60.4429 44.9832 61.2933 44.5032 61.4732 43.7133C61.6531 42.9237 61.0941 42.1221 60.2235 41.9117C60.0968 41.8829 59.9173 41.8339 59.7943 41.8106C59.2803 41.7131 58.862 41.7371 58.3773 41.6968C57.3447 41.5884 56.4894 41.5003 55.7294 41.2606C55.4196 41.1402 55.1991 40.7709 55.0919 40.619L54.4955 40.4451C54.8047 38.2043 54.7213 35.8722 54.1862 33.5388C53.646 31.1837 52.6915 29.0297 51.4184 27.132C51.5714 26.9927 51.8604 26.7364 51.9423 26.661C51.9663 26.3956 51.9457 26.1173 52.22 25.8234C52.8009 25.2772 53.5332 24.8242 54.4166 24.2778C54.8358 24.0308 55.2234 23.8715 55.6442 23.5603C55.7394 23.4899 55.8693 23.3785 55.9693 23.298C56.6778 22.7319 56.8409 21.7557 56.3322 21.117C55.8235 20.4784 54.8379 20.4182 54.1294 20.9843C54.0285 21.0643 53.8917 21.1686 53.8012 21.2466C53.4046 21.5883 53.1597 21.9258 52.826 22.2802C52.0976 23.0212 51.4955 23.6394 50.8346 24.085C50.5482 24.252 50.1287 24.1942 49.9383 24.183L49.3765 24.5844C46.1733 21.2203 41.8119 19.0694 37.1158 18.6516C37.1026 18.4545 37.0854 18.0983 37.0811 17.991C36.8888 17.8068 36.6566 17.6495 36.5982 17.2514C36.534 16.456 36.6412 15.6003 36.7655 14.5679C36.834 14.0856 36.948 13.6849 36.9674 13.1614C36.9719 13.0424 36.9648 12.8697 36.9643 12.741C36.9642 11.8333 36.303 11.0973 35.4873 11.0974ZM33.6379 22.571L33.1993 30.3307L33.1677 30.3465C33.1383 31.0407 32.5678 31.595 31.8675 31.595C31.5806 31.595 31.3158 31.5027 31.1006 31.3453L31.0879 31.3516L24.7351 26.8412C26.6876 24.9183 29.185 23.4973 32.0631 22.8428C32.5889 22.7233 33.1144 22.6345 33.6379 22.571ZM37.3398 22.571C40.7001 22.9849 43.8077 24.5088 46.1891 26.8443L39.8772 31.3263L39.8551 31.3168C39.2949 31.7266 38.5056 31.6249 38.0689 31.0766C37.89 30.852 37.7961 30.5878 37.7848 30.3212L37.7785 30.318L37.3398 22.571ZM22.4312 29.7396L28.2318 34.9359L28.2255 34.9675C28.7491 35.4234 28.8263 36.2144 28.3896 36.7628C28.2108 36.9875 27.9713 37.1381 27.7143 37.2085L27.7079 37.2338L20.2726 39.3831C19.8941 35.9174 20.7097 32.5484 22.4312 29.7396ZM48.5024 29.7428C49.3642 31.1418 50.0169 32.7045 50.4054 34.3986C50.7893 36.0723 50.8856 37.7431 50.7273 39.3578L43.2541 37.2022L43.2477 37.1705C42.5785 36.9874 42.1673 36.3056 42.3231 35.6218C42.3869 35.3416 42.5354 35.1047 42.7365 34.9296L42.7333 34.9138L48.5024 29.7428ZM34.2975 35.3373H36.6739L38.1509 37.1864L37.6207 39.4937L35.4873 40.521L33.3476 39.4905L32.8174 37.1832L34.2975 35.3373ZM41.9159 41.6652C42.0169 41.66 42.1175 41.6692 42.2158 41.6873L42.2284 41.6715L49.9194 42.9737C48.7938 46.1409 46.64 48.8846 43.7622 50.7207L40.7767 43.4984L40.7861 43.4858C40.5119 42.8475 40.7863 42.0991 41.4173 41.7947C41.5788 41.7168 41.7476 41.6737 41.9159 41.6652ZM28.9987 41.6968C29.5856 41.705 30.1121 42.113 30.2485 42.7114C30.3123 42.9915 30.2812 43.2691 30.1759 43.5142L30.198 43.5426L27.244 50.6923C24.4822 48.9174 22.2825 46.2597 21.1057 42.999L28.7305 41.7031L28.7431 41.7189C28.8284 41.7032 28.9149 41.6956 28.9987 41.6968ZM35.44 44.8291C35.6444 44.8216 35.8519 44.8636 36.0491 44.9587C36.3076 45.0833 36.5072 45.2796 36.6329 45.515H36.6613L40.42 52.3169C39.9322 52.4807 39.4307 52.6207 38.9178 52.7373C36.0432 53.391 33.1777 53.1929 30.583 52.3075L34.3322 45.5181H34.3386C34.5635 45.0969 34.9902 44.8456 35.44 44.8291Z" fill="white" stroke="white" stroke-width="0.25"/>
</g>
<defs>
<clipPath id="clip0_1_2239">
<rect width="73" height="71" fill="white" transform="translate(0 0.0644531)"/>
</clipPath>
</defs>
</svg>
