<svg width="29" height="28" viewBox="0 0 29 28" fill="none" xmlns="http://www.w3.org/2000/svg">
<path d="M25.7778 0H3.22222C1.44194 0 0 1.39222 0 3.11111V24.8889C0 26.6078 1.44194 28 3.22222 28H25.7778C27.5581 28 29 26.6078 29 24.8889V3.11111C29 1.39222 27.5581 0 25.7778 0ZM9.66667 21.7778H5.60183V10.8889H9.66667V21.7778ZM7.56256 8.89311C6.32039 8.89311 5.49067 8.09356 5.49067 7.02644C5.49067 5.95933 6.31878 5.15978 7.6995 5.15978C8.94167 5.15978 9.77139 5.95933 9.77139 7.02644C9.77139 8.09356 8.94328 8.89311 7.56256 8.89311ZM24.1667 21.7778H20.2323V15.8262C20.2323 14.1804 19.1835 13.8009 18.7904 13.8009C18.3973 13.8009 17.0858 14.0544 17.0858 15.8262C17.0858 16.0798 17.0858 21.7778 17.0858 21.7778H13.021V10.8889H17.0858V12.4087C17.6094 11.522 18.6583 10.8889 20.6254 10.8889C22.5926 10.8889 24.1667 12.4087 24.1667 15.8262V21.7778Z" fill="white"/>
</svg>
