<svg width="40" height="84" viewBox="0 0 40 84" fill="none" xmlns="http://www.w3.org/2000/svg">
<path d="M20.067 0.0644531L22.4043 4.23553C22.9297 5.00535 23.4994 5.68654 24.1672 6.32106C26.1313 8.16399 27.9629 10.1329 29.6472 12.2138C33.605 17.15 36.2763 22.6368 38.1816 28.5715C39.3257 32.192 39.9444 35.9152 39.9935 39.671C40.185 50.9105 36.129 60.559 27.958 68.5792C26.6322 69.8483 25.1935 71.0193 23.6614 72.0645C22.8512 72.0645 22.4682 71.4766 22.1342 70.9307C21.5254 69.9229 21.1227 68.8172 20.941 67.6694C20.6513 66.3071 20.4647 64.9494 20.558 63.5497V62.9152C20.4942 62.7705 19.7821 0.386382 20.067 0.0644531Z" fill="#599636"/>
<path d="M19.4627 0.154374C19.3691 -0.027575 19.2705 0.10772 19.1719 0.201027C19.2212 1.11077 18.8811 1.92254 18.3586 2.69699C17.7819 3.46677 17.018 4.05927 16.249 4.69376C11.9953 8.17877 8.64358 12.3963 5.9622 17.1083C2.38868 23.4485 0.550162 30.2459 0.0326169 37.4072C-0.203975 39.9871 0.895192 49.0939 1.75777 51.7205C4.10397 58.6998 8.31334 64.5455 13.7747 69.6168C15.1154 70.8391 16.5497 71.9728 18.0284 73.0645C18.4622 73.0645 18.5065 72.7006 18.6051 72.43C18.7973 71.8515 18.9403 71.2636 19.0388 70.6665L20 63.8737L19.4627 0.154374Z" fill="#6CAC48"/>
<path d="M21.7982 74.7166C21.8922 73.6595 22.4214 72.7873 23 71.9103C22.4214 71.6827 21.9911 71.2229 21.6548 70.7157C21.363 70.2322 21.1256 69.725 20.9377 69.194C20.2651 67.2647 20.1217 65.231 19.9288 63.259V62.0645C19.6914 62.2493 19.637 63.8137 19.637 64.0459C19.4985 66.1365 19.2067 68.208 18.7715 70.2606C18.6281 71.0902 18.5341 71.9198 18 72.6545C18 72.7446 18 72.8394 18.0495 72.9769C18.9149 75.4182 19.1523 77.9022 19.2957 80.4383V81.3627C19.2957 82.4672 19.2463 82.2349 20.2057 82.6046C20.5915 82.7421 21.0218 82.7895 21.4075 83.0645C21.6993 83.0645 21.7438 82.8369 21.7438 82.6473L21.6004 81.1256V76.8877C21.5559 76.1482 21.6993 75.4134 21.7982 74.7166Z" fill="#C2BFBF"/>
</svg>
