<svg width="392" height="323" viewBox="0 0 392 323" fill="none" xmlns="http://www.w3.org/2000/svg">
<g opacity="0.4" filter="url(#filter0_f_5_4914)">
<rect x="40" y="40" width="229.368" height="228.992" rx="80" fill="url(#paint0_radial_5_4914)"/>
</g>
<path d="M112.89 322.998C112.89 322.998 49.9636 324.168 44.5639 270.619C39.1643 217.07 82.2229 196.592 112.89 201.296C134.073 204.548 177.063 192.441 188.623 167.88C220.813 99.9411 310.599 104.161 330.19 151.138C347.566 192.787 347.358 187.321 371.311 196.661C395.263 206.07 397.963 282.865 381.279 320.155C335.33 322.998 142.329 322.998 112.89 322.998Z" fill="#78657D"/>
<path d="M107.977 318.076C107.977 318.076 45.7929 319.228 40.4569 266.529C35.121 213.83 77.6718 193.676 107.977 198.306C128.911 201.506 171.393 189.591 182.817 165.421C214.628 98.5599 303.355 102.713 322.715 148.944C339.886 189.932 339.681 184.553 363.35 193.745C387.02 203.004 389.688 278.58 373.201 315.279C327.794 318.076 137.069 318.076 107.977 318.076Z" fill="#FFDFFA"/>
<path d="M341.491 127.413C341.491 127.413 334.334 138.041 342.266 153.34C350.199 168.581 371.015 171.909 380.797 158.712C390.579 145.515 386.821 126.187 379.425 123.325C372.029 120.464 349.603 113.048 341.491 127.413Z" fill="#78657D"/>
<path d="M114.294 158.731C110.644 159.408 104.061 158.792 101.308 148.571C98.6156 138.411 110.344 133.115 117.765 134.224C125.245 135.394 134.7 154.913 114.294 158.731Z" fill="#78657C"/>
<path d="M114.294 154.736C110.644 155.37 104.061 154.794 101.308 145.232C98.6156 135.727 110.344 130.773 117.765 131.81C125.245 132.905 134.7 151.165 114.294 154.736Z" fill="#FFDFFA"/>
<path d="M341.491 123.548C341.491 123.548 334.334 134.353 342.266 149.907C350.199 165.402 371.015 168.786 380.797 155.369C390.579 141.952 386.821 122.302 379.425 119.393C372.029 116.484 349.603 108.944 341.491 123.548Z" fill="#FFDFFA"/>
<path d="M250.166 249.155H268.574V264.572H222.555V218.322H237.895V239.366C251.93 228.035 260.904 210.768 260.904 191.344C260.904 159.971 237.435 133.994 207.216 130.217V114.646C245.948 118.501 276.243 151.338 276.243 191.344C276.243 214.391 266.119 235.049 250.166 249.155ZM138.189 191.344C138.189 171.919 147.162 154.575 161.198 143.321V164.365H176.537V118.115H130.519V133.532H148.926C132.973 147.638 122.849 168.296 122.849 191.344C122.849 231.349 153.144 264.187 191.877 268.041V252.47C161.658 248.693 138.189 222.716 138.189 191.344ZM232.066 161.358L188.655 204.987L166.95 183.173L156.136 194.041L188.655 226.724L242.88 172.227L232.066 161.358Z" fill="#77657B"/>
<path d="M246.065 245.874H264.473V261.291H218.454V215.041H233.794V236.085C247.829 224.754 256.803 207.487 256.803 188.062C256.803 156.69 233.334 130.713 203.115 126.936V111.365C241.847 115.219 272.142 148.057 272.142 188.062C272.142 211.11 262.018 231.768 246.065 245.874ZM134.087 188.062C134.087 168.638 143.061 151.294 157.097 140.04V161.083H172.436V114.834H126.418V130.25H144.825C128.872 144.357 118.748 165.015 118.748 188.062C118.748 228.068 149.043 260.905 187.775 264.759V249.189C157.557 245.412 134.087 219.435 134.087 188.062ZM227.965 158.077L184.554 201.706L162.849 179.892L152.035 190.76L184.554 223.443L238.779 168.946L227.965 158.077Z" fill="#AD1AAF"/>
<defs>
<filter id="filter0_f_5_4914" x="0" y="0" width="309.368" height="308.992" filterUnits="userSpaceOnUse" color-interpolation-filters="sRGB">
<feFlood flood-opacity="0" result="BackgroundImageFix"/>
<feBlend mode="normal" in="SourceGraphic" in2="BackgroundImageFix" result="shape"/>
<feGaussianBlur stdDeviation="20" result="effect1_foregroundBlur_5_4914"/>
</filter>
<radialGradient id="paint0_radial_5_4914" cx="0" cy="0" r="1" gradientUnits="userSpaceOnUse" gradientTransform="translate(216.958 101.301) scale(179.274 178.843)">
<stop stop-color="#FF9EFA"/>
<stop offset="0.5" stop-color="#AD1AAF"/>
<stop offset="1" stop-color="#231736"/>
</radialGradient>
</defs>
</svg>
