<svg width="104" height="104" viewBox="0 0 104 104" fill="none" xmlns="http://www.w3.org/2000/svg">
<rect width="104" height="104" rx="52" fill="#301E3B" fill-opacity="0.4"/>
<path d="M70.15 72.7286H76.75V78.2563H60.25V61.6734H65.75V69.2186C70.7825 65.1558 74 58.9648 74 52C74 40.7513 65.585 31.4372 54.75 30.0829V24.5C68.6375 25.8819 79.5 37.6558 79.5 52C79.5 60.2638 75.87 67.6709 70.15 72.7286ZM30 52C30 45.0352 33.2175 38.8166 38.25 34.7814V42.3266H43.75V25.7437H27.25V31.2714H33.85C28.13 36.3291 24.5 43.7362 24.5 52C24.5 66.3442 35.3625 78.1181 49.25 79.5V73.9171C38.415 72.5628 30 63.2487 30 52ZM63.66 41.2487L48.095 56.892L40.3125 49.0703L36.435 52.9673L48.095 64.6859L67.5375 45.1457L63.66 41.2487Z" fill="#AD1AAF"/>
</svg>
