<svg width="104" height="104" viewBox="0 0 104 104" fill="none" xmlns="http://www.w3.org/2000/svg">
<rect width="104" height="104" rx="52" fill="#301E3B" fill-opacity="0.4"/>
<path d="M34.1032 41.7793V53.18C34.203 58.476 35.9703 63.5882 39.1291 67.718C42.2879 71.8479 46.6604 74.763 51.5635 76.0079V33.2302L34.1032 41.7793Z" fill="#AD1AAF"/>
<path d="M51.5635 76.0079L53.5656 75.4568C58.41 73.8994 62.6356 70.9342 65.6625 66.9685C68.6894 63.0027 70.3692 58.2307 70.4711 53.3076V41.9695L51.5635 33.4692V76.0079ZM69.1087 28.8225C68.8161 28.8096 68.523 28.8096 68.2304 28.8225L70.7415 25.9036L69.0155 24.5L63.9557 30.3422L70.0143 35.1917L71.471 33.5262L68.4395 31.0434C68.7025 31.0306 68.9661 31.0306 69.2292 31.0434C71.3505 31.0437 73.3849 31.8565 74.8848 33.3031C76.3848 34.7496 77.2274 36.7114 77.2274 38.757C77.2274 39.9676 76.9262 41.1606 76.3491 42.2358L78.0171 43.8705L78.2887 43.4903C79.0841 42.0305 79.4998 40.4061 79.5 38.757C79.5039 37.4442 79.2372 36.1437 78.7152 34.9312C78.1931 33.7187 77.4263 32.6184 76.4593 31.6942C75.4927 30.7696 74.3451 30.0396 73.0831 29.5468C71.8212 29.0539 70.4701 28.8081 69.1087 28.8236V28.8225Z" fill="#DB46DD"/>
<path d="M33.0078 68.8038L31.1879 70.1059L33.4536 73.2355C33.1866 73.2532 32.9173 73.2532 32.6492 73.2355C31.3509 72.9036 30.1597 72.2479 29.189 71.3306C28.2183 70.4133 27.5002 69.2649 27.1032 67.9947C26.7061 66.7245 26.6433 65.3747 26.9206 64.0736C27.1979 62.7725 27.8061 61.5633 28.6875 60.5612L27.5255 58.5476C27.4103 58.6493 27.3014 58.7577 27.1993 58.8723C26.007 60.1432 25.169 61.7002 24.768 63.39C24.367 65.0798 24.4167 66.8441 24.9123 68.5091C25.4087 70.1738 26.3338 71.6816 27.5965 72.8838C28.8591 74.0861 30.4157 74.9413 32.1129 75.3654C32.3967 75.4263 32.685 75.4784 32.9777 75.5128L29.9969 77.6992L31.3108 79.5L37.5952 75.0673L33.0078 68.8038Z" fill="#AD1AAF"/>
</svg>
