<svg width="392" height="323" viewBox="0 0 392 323" fill="none" xmlns="http://www.w3.org/2000/svg">
<g opacity="0.4" filter="url(#filter0_f_5_4904)">
<rect x="40" y="40" width="229.368" height="228.992" rx="80" fill="url(#paint0_radial_5_4904)"/>
</g>
<path d="M112.89 322.998C112.89 322.998 49.9636 324.168 44.5639 270.619C39.1643 217.07 82.2229 196.592 112.89 201.296C134.073 204.548 177.063 192.441 188.623 167.88C220.813 99.9411 310.599 104.161 330.19 151.138C347.566 192.787 347.358 187.321 371.311 196.661C395.263 206.07 397.963 282.865 381.279 320.155C335.33 322.998 142.329 322.998 112.89 322.998Z" fill="#78657D"/>
<path d="M107.977 318.076C107.977 318.076 45.7929 319.228 40.4569 266.529C35.121 213.83 77.6718 193.676 107.977 198.306C128.911 201.506 171.393 189.591 182.817 165.421C214.628 98.5599 303.355 102.713 322.715 148.944C339.886 189.932 339.681 184.553 363.35 193.745C387.02 203.004 389.688 278.58 373.201 315.279C327.794 318.076 137.069 318.076 107.977 318.076Z" fill="#FFDFFA"/>
<path d="M341.491 127.413C341.491 127.413 334.334 138.041 342.266 153.34C350.199 168.581 371.015 171.909 380.797 158.712C390.579 145.515 386.821 126.187 379.425 123.325C372.029 120.464 349.603 113.048 341.491 127.413Z" fill="#78657D"/>
<path d="M114.294 158.731C110.644 159.408 104.061 158.792 101.308 148.571C98.6156 138.411 110.344 133.115 117.765 134.224C125.245 135.393 134.7 154.913 114.294 158.731Z" fill="#78657C"/>
<path d="M114.294 154.736C110.644 155.37 104.061 154.794 101.308 145.232C98.6156 135.727 110.344 130.773 117.765 131.81C125.245 132.905 134.7 151.165 114.294 154.736Z" fill="#FFDFFA"/>
<path d="M341.491 123.548C341.491 123.548 334.334 134.353 342.266 149.907C350.199 165.402 371.015 168.786 380.797 155.369C390.579 141.952 386.821 122.302 379.425 119.393C372.029 116.484 349.603 108.944 341.491 123.548Z" fill="#FFDFFA"/>
<path d="M140.714 142.513V184.171C141.078 203.523 147.536 222.203 159.079 237.294C170.621 252.384 186.598 263.036 204.514 267.585V111.274L140.714 142.513Z" fill="#745D78"/>
<path d="M204.514 267.585L211.83 265.571C229.531 259.88 244.972 249.046 256.032 234.555C267.093 220.064 273.23 202.627 273.603 184.638V143.208L204.514 112.148V267.585ZM268.625 95.1684C267.555 95.1215 266.484 95.1215 265.415 95.1684L274.591 84.5027L268.284 79.374L249.795 100.721L271.934 118.442L277.257 112.356L266.179 103.284C267.14 103.237 268.103 103.237 269.065 103.284C276.816 103.285 284.25 106.255 289.731 111.541C295.211 116.826 298.29 123.995 298.29 131.469C298.29 135.893 297.19 140.252 295.081 144.181L301.176 150.154L302.168 148.765C305.075 143.431 306.594 137.495 306.594 131.469C306.609 126.672 305.634 121.92 303.727 117.49C301.819 113.059 299.017 109.039 295.484 105.662C291.952 102.283 287.758 99.6158 283.147 97.815C278.536 96.0141 273.599 95.1158 268.625 95.1724V95.1684Z" fill="#745D7B"/>
<path d="M136.711 241.261L130.061 246.019L138.34 257.454C137.365 257.519 136.381 257.519 135.401 257.454C130.657 256.242 126.304 253.846 122.757 250.494C119.21 247.142 116.586 242.946 115.136 238.305C113.685 233.663 113.455 228.731 114.468 223.977C115.482 219.222 117.704 214.804 120.925 211.142L116.679 203.785C116.258 204.156 115.86 204.552 115.487 204.971C111.13 209.615 108.068 215.304 106.603 221.479C105.138 227.653 105.319 234.1 107.13 240.184C108.944 246.267 112.324 251.776 116.938 256.169C121.552 260.562 127.24 263.688 133.441 265.237C134.478 265.46 135.532 265.65 136.601 265.776L125.709 273.765L130.51 280.345L153.474 264.148L136.711 241.261Z" fill="#745D78"/>
<path d="M139.893 140.052V181.711C140.258 201.062 146.716 219.742 158.258 234.833C169.801 249.923 185.778 260.575 203.694 265.124V108.813L139.893 140.052Z" fill="#AD1AAF"/>
<path d="M203.694 265.124L211.01 263.11C228.711 257.419 244.152 246.585 255.212 232.094C266.272 217.603 272.41 200.166 272.783 182.177V140.747L203.694 109.687V265.124ZM267.804 92.7074C266.735 92.6606 265.664 92.6606 264.595 92.7074L273.771 82.0417L267.464 76.9131L248.975 98.2605L271.113 115.981L276.436 109.895L265.359 100.823C266.32 100.776 267.283 100.776 268.244 100.823C275.996 100.824 283.43 103.794 288.91 109.08C294.391 114.365 297.47 121.534 297.47 129.008C297.47 133.432 296.369 137.791 294.261 141.72L300.356 147.693L301.348 146.304C304.255 140.97 305.773 135.034 305.774 129.008C305.789 124.211 304.814 119.459 302.906 115.029C300.999 110.598 298.197 106.578 294.663 103.201C291.132 99.8223 286.938 97.1549 282.327 95.3541C277.716 93.5532 272.779 92.6549 267.804 92.7114V92.7074Z" fill="#DB46DD"/>
<path d="M135.891 238.8L129.241 243.558L137.52 254.993C136.544 255.058 135.56 255.058 134.581 254.993C129.836 253.781 125.484 251.385 121.937 248.033C118.39 244.681 115.766 240.485 114.315 235.844C112.864 231.202 112.635 226.27 113.648 221.516C114.661 216.761 116.884 212.343 120.104 208.681L115.859 201.324C115.438 201.695 115.04 202.091 114.667 202.51C110.31 207.154 107.248 212.843 105.783 219.018C104.317 225.193 104.499 231.639 106.31 237.723C108.124 243.806 111.504 249.315 116.118 253.708C120.731 258.102 126.419 261.227 132.621 262.776C133.658 262.999 134.711 263.189 135.781 263.315L124.889 271.304L129.69 277.884L152.653 261.687L135.891 238.8Z" fill="#AD1AAF"/>
<defs>
<filter id="filter0_f_5_4904" x="0" y="0" width="309.368" height="308.992" filterUnits="userSpaceOnUse" color-interpolation-filters="sRGB">
<feFlood flood-opacity="0" result="BackgroundImageFix"/>
<feBlend mode="normal" in="SourceGraphic" in2="BackgroundImageFix" result="shape"/>
<feGaussianBlur stdDeviation="20" result="effect1_foregroundBlur_5_4904"/>
</filter>
<radialGradient id="paint0_radial_5_4904" cx="0" cy="0" r="1" gradientUnits="userSpaceOnUse" gradientTransform="translate(216.958 101.301) scale(179.274 178.843)">
<stop stop-color="#FF9EFA"/>
<stop offset="0.5" stop-color="#AD1AAF"/>
<stop offset="1" stop-color="#231736"/>
</radialGradient>
</defs>
</svg>
