<svg width="19" height="20" viewBox="0 0 19 20" fill="none" xmlns="http://www.w3.org/2000/svg">
<path d="M8.99512 15.0726C6.04924 14.9312 3.70551 12.4615 3.70551 9.42625C3.70551 6.30616 6.19746 3.7705 9.26377 3.7705C12.2467 3.7705 14.6738 6.15534 14.8128 9.15289L12.8674 8.55903C12.4876 6.89059 11.0146 5.65575 9.26377 5.65575C7.21648 5.65575 5.55826 7.34305 5.55826 9.42625C5.55826 11.2078 6.77182 12.7066 8.41151 13.0931L8.99512 15.0726ZM18.5275 9.42625C18.5275 9.70904 18.5183 9.99182 18.4905 10.2746L16.6655 9.71846C16.6748 9.6242 16.6748 9.52051 16.6748 9.42625C16.6748 5.25985 13.3584 1.88525 9.26377 1.88525C5.16919 1.88525 1.85275 5.25985 1.85275 9.42625C1.85275 13.5927 5.16919 16.9672 9.26377 16.9672C9.35641 16.9672 9.45831 16.9672 9.55095 16.9578L10.0975 18.8148C9.8196 18.8431 9.54169 18.8525 9.26377 18.8525C4.15017 18.8525 0 14.6295 0 9.42625C0 4.22296 4.15017 0 9.26377 0C14.3774 0 18.5275 4.22296 18.5275 9.42625ZM15.0351 13.4418L18.5275 12.2541L9.26377 9.42625L12.0429 18.8525L13.2101 15.2988L17.1658 19.3238L19 17.4574L15.0351 13.4418Z" fill="white"/>
</svg>
