<svg width="138" height="138" viewBox="0 0 138 138" fill="none" xmlns="http://www.w3.org/2000/svg">
<g filter="url(#filter0_d_157_163)">
<rect width="43.1957" height="42.1672" rx="8" transform="matrix(-1 0 0 1 90.1955 47.9497)" fill="#AD1AAF"/>
</g>
<path fill-rule="evenodd" clip-rule="evenodd" d="M70.9734 69.1092L62.2381 59.913C62.0187 59.6859 62.0239 59.3108 62.2485 59.0784L63.8106 57.4621C64.0353 57.2297 64.401 57.2244 64.6204 57.4515L75.2888 68.6813C75.4037 68.7975 75.456 68.956 75.4455 69.1092C75.4507 69.2676 75.3985 69.4208 75.2888 69.537L64.6204 80.7721C64.401 80.9992 64.0353 80.9939 63.8106 80.7615L62.2485 79.1452C62.0239 78.9128 62.0187 78.5378 62.2381 78.3106L70.9734 69.1092Z" fill="white"/>
<defs>
<filter id="filter0_d_157_163" x="-0.000183105" y="0.949707" width="137.196" height="136.167" filterUnits="userSpaceOnUse" color-interpolation-filters="sRGB">
<feFlood flood-opacity="0" result="BackgroundImageFix"/>
<feColorMatrix in="SourceAlpha" type="matrix" values="0 0 0 0 0 0 0 0 0 0 0 0 0 0 0 0 0 0 127 0" result="hardAlpha"/>
<feMorphology radius="2" operator="erode" in="SourceAlpha" result="effect1_dropShadow_157_163"/>
<feOffset/>
<feGaussianBlur stdDeviation="24.5"/>
<feColorMatrix type="matrix" values="0 0 0 0 0 0 0 0 0 0 0 0 0 0 0 0 0 0 0.19 0"/>
<feBlend mode="normal" in2="BackgroundImageFix" result="effect1_dropShadow_157_163"/>
<feBlend mode="normal" in="SourceGraphic" in2="effect1_dropShadow_157_163" result="shape"/>
</filter>
</defs>
</svg>
