<svg width="70" height="85" viewBox="0 0 70 85" fill="none" xmlns="http://www.w3.org/2000/svg">
<ellipse cx="35.5" cy="25" rx="24.5" ry="25" fill="#FFE9F7"/>
<path d="M13.25 66V66.625C13.25 67.4844 13.138 68.2552 12.9141 68.9375C12.6901 69.6198 12.3698 70.2005 11.9531 70.6797C11.5417 71.1589 11.0469 71.526 10.4688 71.7812C9.89062 72.0312 9.25 72.1562 8.54688 72.1562C7.84896 72.1562 7.21094 72.0312 6.63281 71.7812C6.0599 71.526 5.5625 71.1589 5.14062 70.6797C4.71875 70.2005 4.39062 69.6198 4.15625 68.9375C3.92708 68.2552 3.8125 67.4844 3.8125 66.625V66C3.8125 65.1406 3.92708 64.3724 4.15625 63.6953C4.38542 63.013 4.70833 62.4323 5.125 61.9531C5.54688 61.4688 6.04427 61.1016 6.61719 60.8516C7.19531 60.5964 7.83333 60.4688 8.53125 60.4688C9.23438 60.4688 9.875 60.5964 10.4531 60.8516C11.0312 61.1016 11.5286 61.4688 11.9453 61.9531C12.362 62.4323 12.6823 63.013 12.9062 63.6953C13.1354 64.3724 13.25 65.1406 13.25 66ZM11.2891 66.625V65.9844C11.2891 65.349 11.2266 64.7891 11.1016 64.3047C10.9818 63.8151 10.8021 63.4062 10.5625 63.0781C10.3281 62.7448 10.0391 62.4948 9.69531 62.3281C9.35156 62.1562 8.96354 62.0703 8.53125 62.0703C8.09896 62.0703 7.71354 62.1562 7.375 62.3281C7.03646 62.4948 6.7474 62.7448 6.50781 63.0781C6.27344 63.4062 6.09375 63.8151 5.96875 64.3047C5.84375 64.7891 5.78125 65.349 5.78125 65.9844V66.625C5.78125 67.2604 5.84375 67.8229 5.96875 68.3125C6.09375 68.8021 6.27604 69.2161 6.51562 69.5547C6.76042 69.888 7.05208 70.1406 7.39062 70.3125C7.72917 70.4792 8.11458 70.5625 8.54688 70.5625C8.98438 70.5625 9.3724 70.4792 9.71094 70.3125C10.0495 70.1406 10.3359 69.888 10.5703 69.5547C10.8047 69.2161 10.9818 68.8021 11.1016 68.3125C11.2266 67.8229 11.2891 67.2604 11.2891 66.625ZM16.9141 65.1719V75.25H15.0312V63.5469H16.7656L16.9141 65.1719ZM22.4219 67.6953V67.8594C22.4219 68.474 22.349 69.0443 22.2031 69.5703C22.0625 70.0911 21.8516 70.5469 21.5703 70.9375C21.2943 71.3229 20.9531 71.6224 20.5469 71.8359C20.1406 72.0495 19.6719 72.1562 19.1406 72.1562C18.6146 72.1562 18.1536 72.0599 17.7578 71.8672C17.3672 71.6693 17.0365 71.3906 16.7656 71.0312C16.4948 70.6719 16.276 70.25 16.1094 69.7656C15.9479 69.276 15.8333 68.7396 15.7656 68.1562V67.5234C15.8333 66.9036 15.9479 66.3411 16.1094 65.8359C16.276 65.3307 16.4948 64.8958 16.7656 64.5312C17.0365 64.1667 17.3672 63.8854 17.7578 63.6875C18.1484 63.4896 18.6042 63.3906 19.125 63.3906C19.6562 63.3906 20.1276 63.4948 20.5391 63.7031C20.9505 63.9062 21.2969 64.1979 21.5781 64.5781C21.8594 64.9531 22.0703 65.4062 22.2109 65.9375C22.3516 66.4635 22.4219 67.0495 22.4219 67.6953ZM20.5391 67.8594V67.6953C20.5391 67.3047 20.5026 66.9427 20.4297 66.6094C20.3568 66.2708 20.2422 65.974 20.0859 65.7188C19.9297 65.4635 19.7292 65.2656 19.4844 65.125C19.2448 64.9792 18.9557 64.9062 18.6172 64.9062C18.2839 64.9062 17.9974 64.9635 17.7578 65.0781C17.5182 65.1875 17.3177 65.3411 17.1562 65.5391C16.9948 65.737 16.8698 65.9688 16.7812 66.2344C16.6927 66.4948 16.6302 66.7786 16.5938 67.0859V68.6016C16.6562 68.9766 16.763 69.3203 16.9141 69.6328C17.0651 69.9453 17.2786 70.1953 17.5547 70.3828C17.8359 70.5651 18.1953 70.6562 18.6328 70.6562C18.9714 70.6562 19.2604 70.5833 19.5 70.4375C19.7396 70.2917 19.9349 70.0911 20.0859 69.8359C20.2422 69.5755 20.3568 69.276 20.4297 68.9375C20.5026 68.599 20.5391 68.2396 20.5391 67.8594ZM27.8984 63.5469V64.9219H23.1328V63.5469H27.8984ZM24.5078 61.4766H26.3906V69.6641C26.3906 69.9245 26.4271 70.125 26.5 70.2656C26.5781 70.401 26.6849 70.4922 26.8203 70.5391C26.9557 70.5859 27.1146 70.6094 27.2969 70.6094C27.4271 70.6094 27.5521 70.6016 27.6719 70.5859C27.7917 70.5703 27.888 70.5547 27.9609 70.5391L27.9688 71.9766C27.8125 72.0234 27.6302 72.0651 27.4219 72.1016C27.2188 72.138 26.9844 72.1562 26.7188 72.1562C26.2865 72.1562 25.9036 72.0807 25.5703 71.9297C25.237 71.7734 24.9766 71.5208 24.7891 71.1719C24.6016 70.8229 24.5078 70.3594 24.5078 69.7812V61.4766ZM31.3672 63.5469V72H29.4766V63.5469H31.3672ZM29.3516 61.3281C29.3516 61.0417 29.4453 60.8047 29.6328 60.6172C29.8255 60.4245 30.0911 60.3281 30.4297 60.3281C30.763 60.3281 31.026 60.4245 31.2188 60.6172C31.4115 60.8047 31.5078 61.0417 31.5078 61.3281C31.5078 61.6094 31.4115 61.8438 31.2188 62.0312C31.026 62.2188 30.763 62.3125 30.4297 62.3125C30.0911 62.3125 29.8255 62.2188 29.6328 62.0312C29.4453 61.8438 29.3516 61.6094 29.3516 61.3281ZM35.3125 65.2656V72H33.4297V63.5469H35.2031L35.3125 65.2656ZM35.0078 67.4609L34.3672 67.4531C34.3672 66.8698 34.4401 66.3307 34.5859 65.8359C34.7318 65.3411 34.9453 64.9115 35.2266 64.5469C35.5078 64.1771 35.8568 63.8932 36.2734 63.6953C36.6953 63.4922 37.1823 63.3906 37.7344 63.3906C38.1198 63.3906 38.4714 63.4479 38.7891 63.5625C39.112 63.6719 39.3906 63.8464 39.625 64.0859C39.8646 64.3255 40.0469 64.6328 40.1719 65.0078C40.3021 65.3828 40.3672 65.8359 40.3672 66.3672V72H38.4844V66.5312C38.4844 66.1198 38.4219 65.7969 38.2969 65.5625C38.1771 65.3281 38.0026 65.1615 37.7734 65.0625C37.5495 64.9583 37.2812 64.9062 36.9688 64.9062C36.6146 64.9062 36.3125 64.974 36.0625 65.1094C35.8177 65.2448 35.6172 65.4297 35.4609 65.6641C35.3047 65.8984 35.1901 66.1693 35.1172 66.4766C35.0443 66.7839 35.0078 67.112 35.0078 67.4609ZM40.25 66.9609L39.3672 67.1562C39.3672 66.6458 39.4375 66.1641 39.5781 65.7109C39.724 65.2526 39.9349 64.8516 40.2109 64.5078C40.4922 64.1589 40.8385 63.8854 41.25 63.6875C41.6615 63.4896 42.1328 63.3906 42.6641 63.3906C43.0964 63.3906 43.4818 63.4505 43.8203 63.5703C44.1641 63.6849 44.4557 63.8672 44.6953 64.1172C44.9349 64.3672 45.1172 64.6927 45.2422 65.0938C45.3672 65.4896 45.4297 65.9688 45.4297 66.5312V72H43.5391V66.5234C43.5391 66.0964 43.4766 65.7656 43.3516 65.5312C43.2318 65.2969 43.0599 65.1354 42.8359 65.0469C42.612 64.9531 42.3438 64.9062 42.0312 64.9062C41.7396 64.9062 41.4818 64.9609 41.2578 65.0703C41.0391 65.1745 40.8542 65.3229 40.7031 65.5156C40.5521 65.7031 40.4375 65.9193 40.3594 66.1641C40.2865 66.4089 40.25 66.6745 40.25 66.9609ZM49.3828 63.5469V72H47.4922V63.5469H49.3828ZM47.3672 61.3281C47.3672 61.0417 47.4609 60.8047 47.6484 60.6172C47.8411 60.4245 48.1068 60.3281 48.4453 60.3281C48.7786 60.3281 49.0417 60.4245 49.2344 60.6172C49.4271 60.8047 49.5234 61.0417 49.5234 61.3281C49.5234 61.6094 49.4271 61.8438 49.2344 62.0312C49.0417 62.2188 48.7786 62.3125 48.4453 62.3125C48.1068 62.3125 47.8411 62.2188 47.6484 62.0312C47.4609 61.8438 47.3672 61.6094 47.3672 61.3281ZM57.9844 70.5V72H51.6875V70.5H57.9844ZM57.8125 64.7188L52.3281 72H51.1094V70.7891L56.5625 63.5469H57.8125V64.7188ZM57.0859 63.5469V65.0469H51.2031V63.5469H57.0859ZM63.0938 72.1562C62.4688 72.1562 61.9036 72.0547 61.3984 71.8516C60.8984 71.6432 60.4714 71.3542 60.1172 70.9844C59.7682 70.6146 59.5 70.1797 59.3125 69.6797C59.125 69.1797 59.0312 68.6406 59.0312 68.0625V67.75C59.0312 67.0885 59.1276 66.4896 59.3203 65.9531C59.513 65.4167 59.7812 64.9583 60.125 64.5781C60.4688 64.1927 60.875 63.8984 61.3438 63.6953C61.8125 63.4922 62.3203 63.3906 62.8672 63.3906C63.4714 63.3906 64 63.4922 64.4531 63.6953C64.9062 63.8984 65.2812 64.1849 65.5781 64.5547C65.8802 64.9193 66.1042 65.3542 66.25 65.8594C66.401 66.3646 66.4766 66.9219 66.4766 67.5312V68.3359H59.9453V66.9844H64.6172V66.8359C64.6068 66.4974 64.5391 66.1797 64.4141 65.8828C64.2943 65.5859 64.1094 65.3464 63.8594 65.1641C63.6094 64.9818 63.276 64.8906 62.8594 64.8906C62.5469 64.8906 62.2682 64.9583 62.0234 65.0938C61.7839 65.224 61.5833 65.4141 61.4219 65.6641C61.2604 65.9141 61.1354 66.2161 61.0469 66.5703C60.9635 66.9193 60.9219 67.3125 60.9219 67.75V68.0625C60.9219 68.4323 60.9714 68.776 61.0703 69.0938C61.1745 69.4062 61.3255 69.6797 61.5234 69.9141C61.7214 70.1484 61.9609 70.3333 62.2422 70.4688C62.5234 70.599 62.8438 70.6641 63.2031 70.6641C63.6562 70.6641 64.0599 70.5729 64.4141 70.3906C64.7682 70.2083 65.0755 69.9505 65.3359 69.6172L66.3281 70.5781C66.1458 70.8438 65.9089 71.099 65.6172 71.3438C65.3255 71.5833 64.9688 71.7786 64.5469 71.9297C64.1302 72.0807 63.6458 72.1562 63.0938 72.1562Z" fill="white"/>
<path d="M36 16.2727V20.6364L42 14.8182L36 9V13.3636C29.37 13.3636 24 18.5709 24 25C24 27.2836 24.69 29.4073 25.86 31.1964L28.05 29.0727C27.375 27.8655 27 26.4691 27 25C27 20.1855 31.035 16.2727 36 16.2727ZM46.14 18.8036L43.95 20.9273C44.61 22.1491 45 23.5309 45 25C45 29.8145 40.965 33.7273 36 33.7273V29.3636L30 35.1818L36 41V36.6364C42.63 36.6364 48 31.4291 48 25C48 22.7164 47.31 20.5927 46.14 18.8036Z" fill="#AD1AAF"/>
</svg>
