<svg width="70" height="85" viewBox="0 0 70 85" fill="none" xmlns="http://www.w3.org/2000/svg">
<ellipse cx="35.5" cy="25" rx="24.5" ry="25" fill="#FFE9F7"/>
<path d="M24.5625 67.7578H21.6016V66.2031H24.5625C25.0781 66.2031 25.4948 66.1198 25.8125 65.9531C26.1302 65.7865 26.362 65.5573 26.5078 65.2656C26.6589 64.9688 26.7344 64.6302 26.7344 64.25C26.7344 63.8906 26.6589 63.5547 26.5078 63.2422C26.362 62.9245 26.1302 62.6693 25.8125 62.4766C25.4948 62.2839 25.0781 62.1875 24.5625 62.1875H22.2031V72H20.2422V60.625H24.5625C25.4427 60.625 26.1901 60.7812 26.8047 61.0938C27.4245 61.401 27.8958 61.8281 28.2188 62.375C28.5417 62.9167 28.7031 63.5365 28.7031 64.2344C28.7031 64.9688 28.5417 65.599 28.2188 66.125C27.8958 66.651 27.4245 67.0547 26.8047 67.3359C26.1901 67.6172 25.4427 67.7578 24.5625 67.7578ZM32.2891 60V72H30.3984V60H32.2891ZM39.1172 70.3047V66.2734C39.1172 65.9714 39.0625 65.7109 38.9531 65.4922C38.8438 65.2734 38.6771 65.1042 38.4531 64.9844C38.2344 64.8646 37.9583 64.8047 37.625 64.8047C37.3177 64.8047 37.0521 64.8568 36.8281 64.9609C36.6042 65.0651 36.4297 65.2057 36.3047 65.3828C36.1797 65.5599 36.1172 65.7604 36.1172 65.9844H34.2422C34.2422 65.651 34.3229 65.3281 34.4844 65.0156C34.6458 64.7031 34.8802 64.4245 35.1875 64.1797C35.4948 63.9349 35.862 63.7422 36.2891 63.6016C36.7161 63.4609 37.1953 63.3906 37.7266 63.3906C38.362 63.3906 38.9245 63.4974 39.4141 63.7109C39.9089 63.9245 40.2969 64.2474 40.5781 64.6797C40.8646 65.1068 41.0078 65.6432 41.0078 66.2891V70.0469C41.0078 70.4323 41.0339 70.7786 41.0859 71.0859C41.1432 71.388 41.224 71.651 41.3281 71.875V72H39.3984C39.3099 71.7969 39.2396 71.5391 39.1875 71.2266C39.1406 70.9089 39.1172 70.6016 39.1172 70.3047ZM39.3906 66.8594L39.4062 68.0234H38.0547C37.7057 68.0234 37.3984 68.0573 37.1328 68.125C36.8672 68.1875 36.6458 68.2812 36.4688 68.4062C36.2917 68.5312 36.1589 68.6823 36.0703 68.8594C35.9818 69.0365 35.9375 69.237 35.9375 69.4609C35.9375 69.6849 35.9896 69.8906 36.0938 70.0781C36.1979 70.2604 36.349 70.4036 36.5469 70.5078C36.75 70.612 36.9948 70.6641 37.2812 70.6641C37.6667 70.6641 38.0026 70.5859 38.2891 70.4297C38.5807 70.2682 38.8099 70.0729 38.9766 69.8438C39.1432 69.6094 39.2318 69.388 39.2422 69.1797L39.8516 70.0156C39.7891 70.2292 39.6823 70.4583 39.5312 70.7031C39.3802 70.9479 39.1823 71.1823 38.9375 71.4062C38.6979 71.625 38.4089 71.8047 38.0703 71.9453C37.737 72.0859 37.3516 72.1562 36.9141 72.1562C36.362 72.1562 35.8698 72.0469 35.4375 71.8281C35.0052 71.6042 34.6667 71.3047 34.4219 70.9297C34.1771 70.5495 34.0547 70.1198 34.0547 69.6406C34.0547 69.1927 34.138 68.7969 34.3047 68.4531C34.4766 68.1042 34.7266 67.8125 35.0547 67.5781C35.388 67.3438 35.7943 67.1667 36.2734 67.0469C36.7526 66.9219 37.2995 66.8594 37.9141 66.8594H39.3906ZM44.8438 65.3516V72H42.9609V63.5469H44.7344L44.8438 65.3516ZM44.5078 67.4609L43.8984 67.4531C43.9036 66.8542 43.987 66.3047 44.1484 65.8047C44.3151 65.3047 44.5443 64.875 44.8359 64.5156C45.1328 64.1562 45.487 63.8802 45.8984 63.6875C46.3099 63.4896 46.7682 63.3906 47.2734 63.3906C47.6797 63.3906 48.0469 63.4479 48.375 63.5625C48.7083 63.6719 48.9922 63.8516 49.2266 64.1016C49.4661 64.3516 49.6484 64.6771 49.7734 65.0781C49.8984 65.474 49.9609 65.9609 49.9609 66.5391V72H48.0703V66.5312C48.0703 66.125 48.0104 65.8047 47.8906 65.5703C47.776 65.3307 47.6068 65.1615 47.3828 65.0625C47.1641 64.9583 46.8906 64.9062 46.5625 64.9062C46.2396 64.9062 45.9505 64.974 45.6953 65.1094C45.4401 65.2448 45.224 65.4297 45.0469 65.6641C44.875 65.8984 44.7422 66.1693 44.6484 66.4766C44.5547 66.7839 44.5078 67.112 44.5078 67.4609Z" fill="white"/>
<path d="M44.4444 14.6H39.1033C38.5667 13.092 37.1611 12 35.5 12C33.8389 12 32.4333 13.092 31.8967 14.6H26.5556C25.15 14.6 24 15.77 24 17.2V35.4C24 36.83 25.15 38 26.5556 38H44.4444C45.85 38 47 36.83 47 35.4V17.2C47 15.77 45.85 14.6 44.4444 14.6ZM35.5 14.6C36.2028 14.6 36.7778 15.185 36.7778 15.9C36.7778 16.615 36.2028 17.2 35.5 17.2C34.7972 17.2 34.2222 16.615 34.2222 15.9C34.2222 15.185 34.7972 14.6 35.5 14.6ZM38.0556 32.8H29.1111V30.2H38.0556V32.8ZM41.8889 27.6H29.1111V25H41.8889V27.6ZM41.8889 22.4H29.1111V19.8H41.8889V22.4Z" fill="#AD1AAF"/>
<path d="M44.4444 14.6H39.1033C38.5667 13.092 37.1611 12 35.5 12C33.8389 12 32.4333 13.092 31.8967 14.6H26.5556C25.15 14.6 24 15.77 24 17.2V35.4C24 36.83 25.15 38 26.5556 38H44.4444C45.85 38 47 36.83 47 35.4V17.2C47 15.77 45.85 14.6 44.4444 14.6ZM35.5 14.6C36.2028 14.6 36.7778 15.185 36.7778 15.9C36.7778 16.615 36.2028 17.2 35.5 17.2C34.7972 17.2 34.2222 16.615 34.2222 15.9C34.2222 15.185 34.7972 14.6 35.5 14.6ZM38.0556 32.8H29.1111V30.2H38.0556V32.8ZM41.8889 27.6H29.1111V25H41.8889V27.6ZM41.8889 22.4H29.1111V19.8H41.8889V22.4Z" stroke="#AD1AAF"/>
</svg>
