<svg width="104" height="104" viewBox="0 0 104 104" fill="none" xmlns="http://www.w3.org/2000/svg">
<rect width="104" height="104" rx="52" fill="#301E3B" fill-opacity="0.4"/>
<path d="M56.853 24.5H43.9118V38.25H56.853V24.5Z" fill="#DB46DD"/>
<path d="M37.4412 65.75H24.5V79.5H37.4412V65.75Z" fill="#DB46DD"/>
<path d="M37.4412 45.125H24.5V58.875H37.4412V45.125Z" fill="#DB46DD"/>
<path d="M37.4412 24.5H24.5V38.25H37.4412V24.5Z" fill="#DB46DD"/>
<path d="M37.4412 24.5H34.2059V38.25H37.4412V24.5Z" fill="#FFA8FC"/>
<path d="M37.4412 45.125H34.2059V58.875H37.4412V45.125Z" fill="#FFA8FC"/>
<path d="M37.4412 65.75H34.2059V79.5H37.4412V65.75Z" fill="#FFA8FC"/>
<path d="M56.8529 24.5H53.6176V38.25H56.8529V24.5Z" fill="#FFA8FC"/>
<path d="M56.853 53.4437V45.125H43.9118V58.875H51.7412L56.853 53.4437Z" fill="#DB46DD"/>
<path d="M79.1118 49.5594L75.3265 45.5375C74.8088 44.9875 73.9676 44.9875 73.45 45.5375L70.6029 48.5625L76.2647 54.5781L79.1118 51.5531C79.6294 51.0031 79.6294 50.1094 79.1118 49.5594Z" fill="#AD1AAF"/>
<path d="M47.1484 73.4843V79.4999H52.8101L74.3896 56.5718L68.7278 50.5562L47.1484 73.4843Z" fill="#AD1AAF"/>
<path d="M76.2647 24.5H63.3235V38.25H76.2647V24.5Z" fill="#DB46DD"/>
<path d="M76.2647 24.5H73.0294V38.25H76.2647V24.5Z" fill="#FFA8FC"/>
</svg>
