<svg width="391" height="322" viewBox="0 0 391 322" fill="none" xmlns="http://www.w3.org/2000/svg">
<g opacity="0.4" filter="url(#filter0_f_5_4867)">
<rect x="40" y="40" width="228.558" height="228.183" rx="80" fill="url(#paint0_radial_5_4867)"/>
</g>
<path d="M112.632 321.998C112.632 321.998 49.9282 323.164 44.5477 269.804C39.1671 216.444 82.0735 196.038 112.632 200.726C133.741 203.966 176.578 191.902 188.098 167.428C220.174 99.7291 309.643 103.934 329.165 150.745C346.479 192.247 346.272 186.8 370.14 196.107C394.007 205.483 396.698 282.006 380.073 319.165C334.287 321.998 141.968 321.998 112.632 321.998Z" fill="#78657D"/>
<path d="M107.737 317.094C107.737 317.094 45.7724 318.241 40.4553 265.728C35.1382 213.216 77.5387 193.133 107.737 197.747C128.596 200.936 170.929 189.063 182.313 164.977C214.011 98.3529 302.425 102.491 321.716 148.559C338.826 189.402 338.622 184.042 362.208 193.201C385.794 202.428 388.453 277.737 372.024 314.306C326.778 317.094 136.726 317.094 107.737 317.094Z" fill="#FFDFFA"/>
<path d="M340.426 127.104C340.426 127.104 333.294 137.694 341.199 152.939C349.103 168.126 369.846 171.443 379.593 158.292C389.34 145.142 385.596 125.882 378.226 123.031C370.856 120.18 348.509 112.79 340.426 127.104Z" fill="#78657D"/>
<path d="M114.031 158.311C110.394 158.986 103.835 158.373 101.092 148.187C98.4084 138.063 110.096 132.786 117.49 133.891C124.944 135.057 134.365 154.507 114.031 158.311Z" fill="#78657C"/>
<path d="M114.031 154.33C110.394 154.962 103.835 154.388 101.092 144.859C98.4084 135.389 110.096 130.452 117.49 131.485C124.944 132.576 134.365 150.772 114.031 154.33Z" fill="#FFDFFA"/>
<path d="M340.426 123.253C340.426 123.253 333.294 134.02 341.199 149.519C349.103 164.959 369.846 168.331 379.593 154.961C389.34 141.592 385.596 122.011 378.226 119.112C370.856 116.213 348.509 108.7 340.426 123.253Z" fill="#FFDFFA"/>
<path d="M230.542 86.3225H194.161V124.977H230.542V86.3225Z" fill="#77657B"/>
<path d="M175.971 202.287H139.59V240.942H175.971V202.287Z" fill="#77657B"/>
<path d="M175.971 144.305H139.59V182.96H175.971V144.305Z" fill="#77657B"/>
<path d="M175.971 86.3224H139.59V124.977H175.971V86.3224Z" fill="#77657B"/>
<path d="M175.971 86.3225H166.876V124.977H175.971V86.3225Z" fill="#77657B"/>
<path d="M175.971 144.305H166.876V182.96H175.971V144.305Z" fill="#77657B"/>
<path d="M175.971 202.287H166.876V240.942H175.971V202.287Z" fill="#77657B"/>
<path d="M230.543 86.3225H221.447V124.977H230.543V86.3225Z" fill="#77657B"/>
<path d="M230.542 167.691V144.305H194.161V182.96H216.171L230.542 167.691Z" fill="#77657B"/>
<path d="M293.118 156.771L282.476 145.464C281.021 143.918 278.656 143.918 277.201 145.464L269.197 153.968L285.114 170.88L293.118 162.376C294.573 160.83 294.573 158.317 293.118 156.771Z" fill="#77657B"/>
<path d="M203.26 224.031V240.942H219.176L279.842 176.485L263.925 159.573L203.26 224.031Z" fill="#77657B"/>
<path d="M285.115 86.3225H248.733V124.977H285.115V86.3225Z" fill="#77657B"/>
<path d="M285.114 86.3225H276.019V124.977H285.114V86.3225Z" fill="#77657B"/>
<path d="M225.769 82.5044H189.388V121.159H225.769V82.5044Z" fill="#DB46DD"/>
<path d="M171.198 198.469H134.817V237.124H171.198V198.469Z" fill="#DB46DD"/>
<path d="M171.198 140.487H134.817V179.142H171.198V140.487Z" fill="#DB46DD"/>
<path d="M171.198 82.5044H134.817V121.159H171.198V82.5044Z" fill="#DB46DD"/>
<path d="M171.199 82.5044H162.104V121.159H171.199V82.5044Z" fill="#FFA8FC"/>
<path d="M171.199 140.487H162.104V179.142H171.199V140.487Z" fill="#FFA8FC"/>
<path d="M171.199 198.469H162.104V237.124H171.199V198.469Z" fill="#FFA8FC"/>
<path d="M225.77 82.5044H216.675V121.159H225.77V82.5044Z" fill="#FFA8FC"/>
<path d="M225.769 163.873V140.487H189.388V179.142H211.399L225.769 163.873Z" fill="#DB46DD"/>
<path d="M288.345 152.953L277.704 141.646C276.249 140.1 273.884 140.1 272.429 141.646L264.425 150.15L280.342 167.062L288.345 158.558C289.801 157.012 289.801 154.499 288.345 152.953Z" fill="#AD1AAF"/>
<path d="M198.488 220.212V237.124H214.405L275.07 172.667L259.153 155.755L198.488 220.212Z" fill="#AD1AAF"/>
<path d="M280.342 82.5044H243.961V121.159H280.342V82.5044Z" fill="#DB46DD"/>
<path d="M280.341 82.5044H271.246V121.159H280.341V82.5044Z" fill="#FFA8FC"/>
<defs>
<filter id="filter0_f_5_4867" x="0" y="0" width="308.558" height="308.183" filterUnits="userSpaceOnUse" color-interpolation-filters="sRGB">
<feFlood flood-opacity="0" result="BackgroundImageFix"/>
<feBlend mode="normal" in="SourceGraphic" in2="BackgroundImageFix" result="shape"/>
<feGaussianBlur stdDeviation="20" result="effect1_foregroundBlur_5_4867"/>
</filter>
<radialGradient id="paint0_radial_5_4867" cx="0" cy="0" r="1" gradientUnits="userSpaceOnUse" gradientTransform="translate(216.332 101.085) scale(178.641 178.211)">
<stop stop-color="#FF9EFA"/>
<stop offset="0.5" stop-color="#AD1AAF"/>
<stop offset="1" stop-color="#231736"/>
</radialGradient>
</defs>
</svg>
