<svg width="43" height="35" viewBox="0 0 43 35" fill="none" xmlns="http://www.w3.org/2000/svg">
<path d="M0.00124359 34.3H16.2412C17.8279 29.1667 18.6212 23.8467 18.6212 18.34C18.6212 12.74 17.1746 8.30666 14.2812 5.03999C11.2946 1.68 6.90791 0 1.12125 0V7.84C5.78791 7.84 8.12125 10.6867 8.12125 16.38V19.04H0.00124359V34.3ZM23.6612 34.3H39.9012C41.4879 29.1667 42.2812 23.8467 42.2812 18.34C42.2812 12.74 40.8346 8.30666 37.9412 5.03999C34.9546 1.68 30.5679 0 24.7812 0V7.84C29.4479 7.84 31.7812 10.6867 31.7812 16.38V19.04H23.6612V34.3Z" fill="#AD1AAF"/>
</svg>
