<svg width="70" height="85" viewBox="0 0 70 85" fill="none" xmlns="http://www.w3.org/2000/svg">
<ellipse cx="35" cy="25" rx="24.5" ry="25" fill="#FFE9F7"/>
<path d="M8.39062 72H5.96094L5.97656 70.4453H8.39062C9.09375 70.4453 9.68229 70.2917 10.1562 69.9844C10.6354 69.6771 10.9948 69.237 11.2344 68.6641C11.4792 68.0911 11.6016 67.4089 11.6016 66.6172V66C11.6016 65.3854 11.5312 64.8411 11.3906 64.3672C11.2552 63.8932 11.0521 63.4948 10.7812 63.1719C10.5156 62.849 10.1875 62.6042 9.79688 62.4375C9.41146 62.2708 8.96615 62.1875 8.46094 62.1875H5.91406V60.625H8.46094C9.21615 60.625 9.90625 60.7526 10.5312 61.0078C11.1562 61.2578 11.6953 61.6198 12.1484 62.0938C12.6068 62.5677 12.9583 63.1354 13.2031 63.7969C13.4479 64.4583 13.5703 65.1979 13.5703 66.0156V66.6172C13.5703 67.4349 13.4479 68.1745 13.2031 68.8359C12.9583 69.4974 12.6068 70.0651 12.1484 70.5391C11.6901 71.0078 11.1432 71.3698 10.5078 71.625C9.8776 71.875 9.17188 72 8.39062 72ZM7.04688 60.625V72H5.08594V60.625H7.04688ZM17.3672 63.5469V72H15.4766V63.5469H17.3672ZM15.3516 61.3281C15.3516 61.0417 15.4453 60.8047 15.6328 60.6172C15.8255 60.4245 16.0911 60.3281 16.4297 60.3281C16.763 60.3281 17.026 60.4245 17.2188 60.6172C17.4115 60.8047 17.5078 61.0417 17.5078 61.3281C17.5078 61.6094 17.4115 61.8438 17.2188 62.0312C17.026 62.2188 16.763 62.3125 16.4297 62.3125C16.0911 62.3125 15.8255 62.2188 15.6328 62.0312C15.4453 61.8438 15.3516 61.6094 15.3516 61.3281ZM24.1719 69.7109C24.1719 69.5234 24.125 69.3542 24.0312 69.2031C23.9375 69.0469 23.7578 68.9062 23.4922 68.7812C23.2318 68.6562 22.8464 68.5417 22.3359 68.4375C21.888 68.3385 21.4766 68.2214 21.1016 68.0859C20.7318 67.9453 20.4141 67.776 20.1484 67.5781C19.8828 67.3802 19.6771 67.1458 19.5312 66.875C19.3854 66.6042 19.3125 66.2917 19.3125 65.9375C19.3125 65.5938 19.388 65.2682 19.5391 64.9609C19.6901 64.6536 19.9062 64.3828 20.1875 64.1484C20.4688 63.9141 20.8099 63.7292 21.2109 63.5938C21.6172 63.4583 22.0703 63.3906 22.5703 63.3906C23.2786 63.3906 23.8854 63.5104 24.3906 63.75C24.901 63.9844 25.2917 64.3047 25.5625 64.7109C25.8333 65.112 25.9688 65.5651 25.9688 66.0703H24.0859C24.0859 65.8464 24.0286 65.638 23.9141 65.4453C23.8047 65.2474 23.638 65.0885 23.4141 64.9688C23.1901 64.8438 22.9089 64.7812 22.5703 64.7812C22.2474 64.7812 21.9792 64.8333 21.7656 64.9375C21.5573 65.0365 21.401 65.1667 21.2969 65.3281C21.1979 65.4896 21.1484 65.6667 21.1484 65.8594C21.1484 66 21.1745 66.1276 21.2266 66.2422C21.2839 66.3516 21.3776 66.4531 21.5078 66.5469C21.638 66.6354 21.8151 66.7188 22.0391 66.7969C22.2682 66.875 22.5547 66.9505 22.8984 67.0234C23.5443 67.1589 24.099 67.3333 24.5625 67.5469C25.0312 67.7552 25.3906 68.026 25.6406 68.3594C25.8906 68.6875 26.0156 69.1042 26.0156 69.6094C26.0156 69.9844 25.9349 70.3281 25.7734 70.6406C25.6172 70.9479 25.388 71.2161 25.0859 71.4453C24.7839 71.6693 24.4219 71.8438 24 71.9688C23.5833 72.0938 23.1146 72.1562 22.5938 72.1562C21.8281 72.1562 21.1797 72.0208 20.6484 71.75C20.1172 71.474 19.7135 71.1224 19.4375 70.6953C19.1667 70.263 19.0312 69.8151 19.0312 69.3516H20.8516C20.8724 69.7005 20.9688 69.9792 21.1406 70.1875C21.3177 70.3906 21.5365 70.5391 21.7969 70.6328C22.0625 70.7214 22.3359 70.7656 22.6172 70.7656C22.9557 70.7656 23.2396 70.7214 23.4688 70.6328C23.6979 70.5391 23.8724 70.4141 23.9922 70.2578C24.112 70.0964 24.1719 69.9141 24.1719 69.7109ZM31.1172 70.6562C31.4245 70.6562 31.7005 70.5964 31.9453 70.4766C32.1953 70.3516 32.3958 70.1797 32.5469 69.9609C32.7031 69.7422 32.7891 69.4896 32.8047 69.2031H34.5781C34.5677 69.75 34.4062 70.2474 34.0938 70.6953C33.7812 71.1432 33.3672 71.5 32.8516 71.7656C32.3359 72.026 31.7656 72.1562 31.1406 72.1562C30.4948 72.1562 29.9323 72.0469 29.4531 71.8281C28.974 71.6042 28.5755 71.2969 28.2578 70.9062C27.9401 70.5156 27.7005 70.0651 27.5391 69.5547C27.3828 69.0443 27.3047 68.4974 27.3047 67.9141V67.6406C27.3047 67.0573 27.3828 66.5104 27.5391 66C27.7005 65.4844 27.9401 65.0312 28.2578 64.6406C28.5755 64.25 28.974 63.9453 29.4531 63.7266C29.9323 63.5026 30.4922 63.3906 31.1328 63.3906C31.8099 63.3906 32.4036 63.526 32.9141 63.7969C33.4245 64.0625 33.8255 64.4349 34.1172 64.9141C34.4141 65.388 34.5677 65.9401 34.5781 66.5703H32.8047C32.7891 66.2578 32.7109 65.9766 32.5703 65.7266C32.4349 65.4714 32.2422 65.2682 31.9922 65.1172C31.7474 64.9661 31.4531 64.8906 31.1094 64.8906C30.7292 64.8906 30.4141 64.9688 30.1641 65.125C29.9141 65.276 29.7188 65.4844 29.5781 65.75C29.4375 66.0104 29.3359 66.3047 29.2734 66.6328C29.2161 66.9557 29.1875 67.2917 29.1875 67.6406V67.9141C29.1875 68.263 29.2161 68.6016 29.2734 68.9297C29.3307 69.2578 29.4297 69.5521 29.5703 69.8125C29.7161 70.0677 29.9141 70.2734 30.1641 70.4297C30.4141 70.5807 30.7318 70.6562 31.1172 70.6562ZM35.6641 67.8672V67.6875C35.6641 67.0781 35.7526 66.513 35.9297 65.9922C36.1068 65.4661 36.362 65.0104 36.6953 64.625C37.0339 64.2344 37.4453 63.9323 37.9297 63.7188C38.4193 63.5 38.9714 63.3906 39.5859 63.3906C40.2057 63.3906 40.7578 63.5 41.2422 63.7188C41.7318 63.9323 42.1458 64.2344 42.4844 64.625C42.8229 65.0104 43.0807 65.4661 43.2578 65.9922C43.4349 66.513 43.5234 67.0781 43.5234 67.6875V67.8672C43.5234 68.4766 43.4349 69.0417 43.2578 69.5625C43.0807 70.0833 42.8229 70.5391 42.4844 70.9297C42.1458 71.3151 41.7344 71.6172 41.25 71.8359C40.7656 72.0495 40.2161 72.1562 39.6016 72.1562C38.9818 72.1562 38.4271 72.0495 37.9375 71.8359C37.4531 71.6172 37.0417 71.3151 36.7031 70.9297C36.3646 70.5391 36.1068 70.0833 35.9297 69.5625C35.7526 69.0417 35.6641 68.4766 35.6641 67.8672ZM37.5469 67.6875V67.8672C37.5469 68.2474 37.5859 68.6068 37.6641 68.9453C37.7422 69.2839 37.8646 69.5807 38.0312 69.8359C38.1979 70.0911 38.4115 70.2917 38.6719 70.4375C38.9323 70.5833 39.2422 70.6562 39.6016 70.6562C39.9505 70.6562 40.2526 70.5833 40.5078 70.4375C40.7682 70.2917 40.9818 70.0911 41.1484 69.8359C41.3151 69.5807 41.4375 69.2839 41.5156 68.9453C41.599 68.6068 41.6406 68.2474 41.6406 67.8672V67.6875C41.6406 67.3125 41.599 66.9583 41.5156 66.625C41.4375 66.2865 41.3125 65.987 41.1406 65.7266C40.974 65.4661 40.7604 65.263 40.5 65.1172C40.2448 64.9661 39.9401 64.8906 39.5859 64.8906C39.2318 64.8906 38.9245 64.9661 38.6641 65.1172C38.4089 65.263 38.1979 65.4661 38.0312 65.7266C37.8646 65.987 37.7422 66.2865 37.6641 66.625C37.5859 66.9583 37.5469 67.3125 37.5469 67.6875ZM47.7266 70.5078L49.7969 63.5469H51.75L48.8125 72H47.5938L47.7266 70.5078ZM46.1406 63.5469L48.25 70.5391L48.3516 72H47.1328L44.1797 63.5469H46.1406ZM56.5312 72.1562C55.9062 72.1562 55.3411 72.0547 54.8359 71.8516C54.3359 71.6432 53.9089 71.3542 53.5547 70.9844C53.2057 70.6146 52.9375 70.1797 52.75 69.6797C52.5625 69.1797 52.4688 68.6406 52.4688 68.0625V67.75C52.4688 67.0885 52.5651 66.4896 52.7578 65.9531C52.9505 65.4167 53.2188 64.9583 53.5625 64.5781C53.9062 64.1927 54.3125 63.8984 54.7812 63.6953C55.25 63.4922 55.7578 63.3906 56.3047 63.3906C56.9089 63.3906 57.4375 63.4922 57.8906 63.6953C58.3438 63.8984 58.7188 64.1849 59.0156 64.5547C59.3177 64.9193 59.5417 65.3542 59.6875 65.8594C59.8385 66.3646 59.9141 66.9219 59.9141 67.5312V68.3359H53.3828V66.9844H58.0547V66.8359C58.0443 66.4974 57.9766 66.1797 57.8516 65.8828C57.7318 65.5859 57.5469 65.3464 57.2969 65.1641C57.0469 64.9818 56.7135 64.8906 56.2969 64.8906C55.9844 64.8906 55.7057 64.9583 55.4609 65.0938C55.2214 65.224 55.0208 65.4141 54.8594 65.6641C54.6979 65.9141 54.5729 66.2161 54.4844 66.5703C54.401 66.9193 54.3594 67.3125 54.3594 67.75V68.0625C54.3594 68.4323 54.4089 68.776 54.5078 69.0938C54.612 69.4062 54.763 69.6797 54.9609 69.9141C55.1589 70.1484 55.3984 70.3333 55.6797 70.4688C55.9609 70.599 56.2812 70.6641 56.6406 70.6641C57.0938 70.6641 57.4974 70.5729 57.8516 70.3906C58.2057 70.2083 58.513 69.9505 58.7734 69.6172L59.7656 70.5781C59.5833 70.8438 59.3464 71.099 59.0547 71.3438C58.763 71.5833 58.4062 71.7786 57.9844 71.9297C57.5677 72.0807 57.0833 72.1562 56.5312 72.1562ZM63.2734 65.1562V72H61.3906V63.5469H63.1875L63.2734 65.1562ZM65.8594 63.4922L65.8438 65.2422C65.7292 65.2214 65.6042 65.2057 65.4688 65.1953C65.3385 65.1849 65.2083 65.1797 65.0781 65.1797C64.7552 65.1797 64.4714 65.2266 64.2266 65.3203C63.9818 65.4089 63.776 65.5391 63.6094 65.7109C63.4479 65.8776 63.3229 66.0807 63.2344 66.3203C63.1458 66.5599 63.0938 66.8281 63.0781 67.125L62.6484 67.1562C62.6484 66.625 62.7005 66.1328 62.8047 65.6797C62.9089 65.2266 63.0651 64.8281 63.2734 64.4844C63.487 64.1406 63.7526 63.8724 64.0703 63.6797C64.3932 63.487 64.7656 63.3906 65.1875 63.3906C65.3021 63.3906 65.4245 63.401 65.5547 63.4219C65.6901 63.4427 65.7917 63.4661 65.8594 63.4922Z" fill="white"/>
<path d="M41.2492 13.5298C39.1965 12.2597 36.7501 11.7562 34.3532 12.1106C31.9563 12.4651 29.7675 13.654 28.1832 15.4619C26.5542 17.2703 25.6694 19.6133 25.7024 22.0315C25.7066 23.6628 26.1151 25.2684 26.8923 26.7086C27.6696 28.1488 28.7921 29.38 30.1621 30.2951L29.8477 30.8082L28.8121 31.099C27.1636 33.9452 26.5534 34.7478 25 37.4469L27.7383 39C29.3111 36.2633 29.9046 35.4587 31.5316 32.6494L31.2359 31.5376L31.4962 31.0621C36.355 33.3254 42.1627 31.4685 44.7469 26.8228C47.3311 22.1779 45.7992 16.3527 41.2492 13.5298ZM37.6975 28.6722C33.9583 29.6766 30.0997 27.5043 29.0807 23.8186C28.0638 20.1329 30.2676 16.3302 34.0096 15.3278C37.7488 14.3255 41.6046 16.5012 42.6215 20.1862C43.6245 23.8692 41.4255 27.6589 37.6975 28.6722Z" fill="#AD1AAF"/>
</svg>
