<svg width="31" height="41" viewBox="0 0 31 41" fill="none" xmlns="http://www.w3.org/2000/svg">
<path d="M27.125 13.6667H25.1875V9.7619C25.1875 4.37333 20.8475 0 15.5 0C10.1525 0 5.8125 4.37333 5.8125 9.7619V13.6667H3.875C1.74375 13.6667 0 15.4238 0 17.5714V37.0952C0 39.2429 1.74375 41 3.875 41H27.125C29.2563 41 31 39.2429 31 37.0952V17.5714C31 15.4238 29.2563 13.6667 27.125 13.6667ZM15.5 31.2381C13.3687 31.2381 11.625 29.481 11.625 27.3333C11.625 25.1857 13.3687 23.4286 15.5 23.4286C17.6313 23.4286 19.375 25.1857 19.375 27.3333C19.375 29.481 17.6313 31.2381 15.5 31.2381ZM21.5063 13.6667H9.49375V9.7619C9.49375 6.42333 12.1869 3.70952 15.5 3.70952C18.8131 3.70952 21.5063 6.42333 21.5063 9.7619V13.6667Z" fill="white"/>
</svg>
