<svg width="105" height="105" viewBox="0 0 105 105" fill="none" xmlns="http://www.w3.org/2000/svg">
<circle cx="52.5" cy="52.5" r="52.5" fill="#AD1AAF"/>
<path d="M34.2778 73C33.6324 73 33.0918 72.7813 32.656 72.344C32.2187 71.9082 32 71.3676 32 70.7222V63.8889C32 63.2435 32.2187 62.7029 32.656 62.2671C33.0918 61.8298 33.6324 61.6111 34.2778 61.6111H41.1111L50.2222 52.5V45.2111C48.8556 44.7176 47.7546 43.8915 46.9194 42.7329C46.0843 41.5758 45.6667 40.2759 45.6667 38.8333C45.6667 36.9352 46.331 35.3218 47.6597 33.9931C48.9884 32.6644 50.6019 32 52.5 32C54.3981 32 56.0116 32.6644 57.3403 33.9931C58.669 35.3218 59.3333 36.9352 59.3333 38.8333C59.3333 40.2759 58.9157 41.5758 58.0806 42.7329C57.2454 43.8915 56.1444 44.7176 54.7778 45.2111V52.5L63.8889 61.6111H70.7222C71.3676 61.6111 71.9082 61.8298 72.344 62.2671C72.7813 62.7029 73 63.2435 73 63.8889V70.7222C73 71.3676 72.7813 71.9082 72.344 72.344C71.9082 72.7813 71.3676 73 70.7222 73H63.8889C63.2435 73 62.7029 72.7813 62.2671 72.344C61.8298 71.9082 61.6111 71.3676 61.6111 70.7222V66.0528L52.5 56.9417L43.3889 66.0528V70.7222C43.3889 71.3676 43.171 71.9082 42.7352 72.344C42.2978 72.7813 41.7565 73 41.1111 73H34.2778Z" fill="white"/>
</svg>
