<svg width="104" height="104" viewBox="0 0 104 104" fill="none" xmlns="http://www.w3.org/2000/svg">
<rect width="104" height="104" rx="52" fill="#301E3B" fill-opacity="0.4"/>
<path d="M53.5 24.5C37.492 24.5 24.5 37.492 24.5 53.5C24.5 69.508 37.492 82.5 53.5 82.5C69.508 82.5 82.5 69.508 82.5 53.5C82.5 37.492 69.508 24.5 53.5 24.5ZM53.5 76.7C40.711 76.7 30.3 66.289 30.3 53.5C30.3 40.711 40.711 30.3 53.5 30.3C66.289 30.3 76.7 40.711 76.7 53.5C76.7 66.289 66.289 76.7 53.5 76.7Z" fill="#AD1AAF"/>
<path d="M65 66.5C68.5899 66.5 71.5 63.5899 71.5 60C71.5 56.4101 68.5899 53.5 65 53.5C61.4101 53.5 58.5 56.4101 58.5 60C58.5 63.5899 61.4101 66.5 65 66.5Z" fill="#FFA8FC"/>
<path d="M43 66.5C46.5899 66.5 49.5 63.5899 49.5 60C49.5 56.4101 46.5899 53.5 43 53.5C39.4101 53.5 36.5 56.4101 36.5 60C36.5 63.5899 39.4101 66.5 43 66.5Z" fill="#FFA8FC"/>
<path d="M54 49.5C57.5899 49.5 60.5 46.5899 60.5 43C60.5 39.4101 57.5899 36.5 54 36.5C50.4101 36.5 47.5 39.4101 47.5 43C47.5 46.5899 50.4101 49.5 54 49.5Z" fill="#FFA8FC"/>
</svg>
