<svg width="391" height="322" viewBox="0 0 391 322" fill="none" xmlns="http://www.w3.org/2000/svg">
<g opacity="0.4" filter="url(#filter0_f_5_4939)">
<rect x="40.3389" y="40" width="228.558" height="228.183" rx="80" fill="url(#paint0_radial_5_4939)"/>
</g>
<path d="M112.971 321.998C112.971 321.998 50.2671 323.164 44.8865 269.804C39.506 216.444 82.4124 196.038 112.971 200.726C134.079 203.966 176.917 191.902 188.437 167.428C220.513 99.7291 309.982 103.934 329.504 150.745C346.818 192.247 346.611 186.8 370.479 196.107C394.346 205.483 397.036 282.006 380.412 319.165C334.625 321.998 142.306 321.998 112.971 321.998Z" fill="#78657D"/>
<path d="M108.076 317.094C108.076 317.094 46.1113 318.241 40.7942 265.728C35.4771 213.216 77.8775 193.133 108.076 197.747C128.935 200.936 171.268 189.063 182.652 164.977C214.35 98.3529 302.764 102.491 322.055 148.559C339.165 189.402 338.961 184.042 362.547 193.201C386.133 202.428 388.791 277.737 372.363 314.306C327.116 317.094 137.065 317.094 108.076 317.094Z" fill="#FFDFFA"/>
<path d="M340.764 127.104C340.764 127.104 333.632 137.694 341.537 152.939C349.442 168.126 370.184 171.443 379.932 158.292C389.679 145.142 385.934 125.882 378.565 123.031C371.195 120.179 348.847 112.79 340.764 127.104Z" fill="#78657D"/>
<path d="M114.37 158.311C110.733 158.986 104.174 158.373 101.431 148.187C98.7473 138.063 110.435 132.786 117.829 133.891C125.282 135.057 134.704 154.507 114.37 158.311Z" fill="#78657C"/>
<path d="M114.37 154.331C110.733 154.962 104.174 154.388 101.431 144.86C98.7473 135.389 110.435 130.452 117.829 131.486C125.282 132.576 134.704 150.772 114.37 154.331Z" fill="#FFDFFA"/>
<path d="M340.764 123.253C340.764 123.253 333.632 134.02 341.537 149.519C349.442 164.959 370.184 168.331 379.932 154.961C389.679 141.592 385.934 122.011 378.565 119.112C371.195 116.213 348.847 108.7 340.764 123.253Z" fill="#FFDFFA"/>
<path d="M229.646 205.067C228.41 205.067 227.291 204.576 226.287 203.593C225.284 202.611 224.782 201.515 224.782 200.306V188.404C224.782 181.602 226.944 175.594 231.267 170.38C235.591 165.166 241.149 161.841 247.944 160.405C244.855 162.521 242.462 165.185 240.763 168.396C239.065 171.608 238.216 175.065 238.216 178.768V200.306C238.216 201.137 238.331 201.968 238.563 202.8C238.795 203.631 239.181 204.387 239.721 205.067H229.646ZM246.67 205.067C245.357 205.067 244.218 204.594 243.253 203.65C242.288 202.705 241.806 201.591 241.806 200.306V178.768C241.806 173.478 243.717 168.982 247.538 165.279C251.36 161.576 255.973 159.725 261.377 159.725H283.265C288.67 159.725 293.263 161.576 297.046 165.279C300.83 168.982 302.721 173.478 302.721 178.768V186.023C302.721 191.313 300.83 195.809 297.046 199.512C293.263 203.215 288.67 205.067 283.265 205.067H246.67ZM263.809 150.203C258.714 150.203 254.39 148.465 250.839 144.988C247.287 141.512 245.512 137.28 245.512 132.293C245.512 127.305 247.287 123.073 250.839 119.597C254.39 116.121 258.714 114.383 263.809 114.383C268.905 114.383 273.228 116.121 276.78 119.597C280.331 123.073 282.107 127.305 282.107 132.293C282.107 137.28 280.331 141.512 276.78 144.988C273.228 148.465 268.905 150.203 263.809 150.203Z" fill="#77657B"/>
<path d="M128.576 205.067C127.341 205.067 126.222 204.576 125.218 203.593C124.214 202.611 123.712 201.515 123.712 200.306V188.404C123.712 181.602 125.874 175.594 130.198 170.38C134.521 165.166 140.08 161.841 146.874 160.405C143.786 162.521 141.393 165.185 139.694 168.396C137.995 171.608 137.146 175.065 137.146 178.768V200.306C137.146 201.137 137.262 201.968 137.494 202.8C137.725 203.631 138.111 204.387 138.652 205.067H128.576ZM145.6 205.067C144.288 205.067 143.149 204.594 142.184 203.65C141.219 202.705 140.736 201.591 140.736 200.306V178.768C140.736 173.478 142.647 168.982 146.469 165.279C150.291 161.576 154.904 159.725 160.308 159.725H182.196C187.6 159.725 192.194 161.576 195.977 165.279C199.76 168.982 201.652 173.478 201.652 178.768V186.023C201.652 191.313 199.76 195.809 195.977 199.512C192.194 203.215 187.6 205.067 182.196 205.067H145.6ZM162.74 150.203C157.644 150.203 153.321 148.465 149.769 144.988C146.218 141.512 144.442 137.28 144.442 132.293C144.442 127.305 146.218 123.073 149.769 119.597C153.321 116.121 157.644 114.383 162.74 114.383C167.836 114.383 172.159 116.121 175.711 119.597C179.262 123.073 181.038 127.305 181.038 132.293C181.038 137.28 179.262 141.512 175.711 144.988C172.159 148.465 167.836 150.203 162.74 150.203Z" fill="#77657B"/>
<path d="M173.68 234.539C172.185 234.539 170.83 233.95 169.616 232.771C168.401 231.592 167.793 230.277 167.793 228.826V214.543C167.793 206.382 170.41 199.172 175.643 192.915C180.876 186.658 187.603 182.668 195.827 180.945C192.089 183.484 189.192 186.681 187.136 190.535C185.081 194.389 184.053 198.537 184.053 202.981V228.826C184.053 229.824 184.193 230.821 184.473 231.819C184.753 232.816 185.221 233.723 185.875 234.539H173.68ZM194.285 234.539C192.696 234.539 191.318 233.972 190.15 232.839C188.982 231.705 188.398 230.368 188.398 228.826V202.981C188.398 196.633 190.71 191.237 195.336 186.794C199.961 182.35 205.545 180.129 212.086 180.129H238.577C245.118 180.129 250.678 182.35 255.257 186.794C259.836 191.237 262.125 196.633 262.125 202.981V211.687C262.125 218.035 259.836 223.43 255.257 227.874C250.678 232.317 245.118 234.539 238.577 234.539H194.285ZM215.029 168.702C208.862 168.702 203.629 166.617 199.331 162.445C195.032 158.274 192.883 153.195 192.883 147.21C192.883 141.225 195.032 136.147 199.331 131.975C203.629 127.804 208.862 125.718 215.029 125.718C221.197 125.718 226.429 127.804 230.728 131.975C235.026 136.147 237.175 141.225 237.175 147.21C237.175 153.195 235.026 158.274 230.728 162.445C226.429 166.617 221.197 168.702 215.029 168.702Z" fill="#77657B"/>
<path d="M225.559 202.615C224.324 202.615 223.204 202.123 222.2 201.141C221.197 200.159 220.695 199.063 220.695 197.854V185.951C220.695 179.15 222.857 173.142 227.18 167.928C231.504 162.714 237.063 159.388 243.857 157.953C240.768 160.069 238.375 162.732 236.677 165.944C234.978 169.156 234.129 172.613 234.129 176.316V197.854C234.129 198.685 234.245 199.516 234.476 200.347C234.708 201.179 235.094 201.934 235.634 202.615H225.559ZM242.583 202.615C241.27 202.615 240.131 202.142 239.166 201.198C238.201 200.253 237.719 199.138 237.719 197.854V176.316C237.719 171.026 239.63 166.53 243.451 162.827C247.273 159.124 251.886 157.273 257.29 157.273H279.178C284.583 157.273 289.176 159.124 292.96 162.827C296.743 166.53 298.634 171.026 298.634 176.316V183.571C298.634 188.861 296.743 193.357 292.96 197.06C289.176 200.763 284.583 202.615 279.178 202.615H242.583ZM259.722 147.751C254.627 147.751 250.303 146.013 246.752 142.536C243.2 139.06 241.425 134.828 241.425 129.841C241.425 124.853 243.2 120.621 246.752 117.145C250.303 113.669 254.627 111.93 259.722 111.93C264.818 111.93 269.142 113.669 272.693 117.145C276.244 120.621 278.02 124.853 278.02 129.841C278.02 134.828 276.244 139.06 272.693 142.536C269.142 146.013 264.818 147.751 259.722 147.751Z" fill="#FFA8FC"/>
<path d="M124.489 202.615C123.254 202.615 122.135 202.123 121.131 201.141C120.127 200.159 119.625 199.063 119.625 197.854V185.951C119.625 179.15 121.787 173.142 126.111 167.928C130.434 162.714 135.993 159.388 142.787 157.953C139.699 160.069 137.306 162.732 135.607 165.944C133.909 169.156 133.059 172.613 133.059 176.316V197.854C133.059 198.685 133.175 199.516 133.407 200.347C133.638 201.179 134.024 201.934 134.565 202.615H124.489ZM141.513 202.615C140.201 202.615 139.062 202.142 138.097 201.198C137.132 200.253 136.649 199.138 136.649 197.854V176.316C136.649 171.026 138.56 166.53 142.382 162.827C146.204 159.124 150.817 157.273 156.221 157.273H178.109C183.513 157.273 188.107 159.124 191.89 162.827C195.673 166.53 197.565 171.026 197.565 176.316V183.571C197.565 188.861 195.673 193.357 191.89 197.06C188.107 200.763 183.513 202.615 178.109 202.615H141.513ZM158.653 147.751C153.557 147.751 149.234 146.013 145.682 142.536C142.131 139.06 140.355 134.828 140.355 129.841C140.355 124.853 142.131 120.621 145.682 117.145C149.234 113.669 153.557 111.93 158.653 111.93C163.749 111.93 168.072 113.669 171.624 117.145C175.175 120.621 176.951 124.853 176.951 129.841C176.951 134.828 175.175 139.06 171.624 142.536C168.072 146.013 163.749 147.751 158.653 147.751Z" fill="#FFA8FC"/>
<path d="M169.593 232.087C168.098 232.087 166.743 231.498 165.529 230.319C164.314 229.14 163.707 227.825 163.707 226.374V212.091C163.707 203.93 166.323 196.72 171.556 190.463C176.789 184.206 183.517 180.216 191.74 178.493C188.002 181.032 185.105 184.228 183.049 188.082C180.994 191.937 179.966 196.085 179.966 200.529V226.374C179.966 227.371 180.106 228.369 180.386 229.366C180.667 230.364 181.134 231.271 181.788 232.087H169.593ZM190.198 232.087C188.609 232.087 187.231 231.52 186.063 230.387C184.895 229.253 184.311 227.915 184.311 226.374V200.529C184.311 194.181 186.624 188.785 191.249 184.342C195.875 179.898 201.458 177.676 207.999 177.676H234.49C241.031 177.676 246.591 179.898 251.17 184.342C255.749 188.785 258.038 194.181 258.038 200.529V209.235C258.038 215.582 255.749 220.978 251.17 225.422C246.591 229.865 241.031 232.087 234.49 232.087H190.198ZM210.942 166.25C204.775 166.25 199.542 164.165 195.244 159.993C190.945 155.822 188.796 150.743 188.796 144.758C188.796 138.773 190.945 133.695 195.244 129.523C199.542 125.352 204.775 123.266 210.942 123.266C217.11 123.266 222.342 125.352 226.641 129.523C230.939 133.695 233.088 138.773 233.088 144.758C233.088 150.743 230.939 155.822 226.641 159.993C222.342 164.165 217.11 166.25 210.942 166.25Z" fill="#AD1AAF"/>
<defs>
<filter id="filter0_f_5_4939" x="0.338867" y="0" width="308.558" height="308.183" filterUnits="userSpaceOnUse" color-interpolation-filters="sRGB">
<feFlood flood-opacity="0" result="BackgroundImageFix"/>
<feBlend mode="normal" in="SourceGraphic" in2="BackgroundImageFix" result="shape"/>
<feGaussianBlur stdDeviation="20" result="effect1_foregroundBlur_5_4939"/>
</filter>
<radialGradient id="paint0_radial_5_4939" cx="0" cy="0" r="1" gradientUnits="userSpaceOnUse" gradientTransform="translate(216.671 101.085) scale(178.641 178.211)">
<stop stop-color="#FF9EFA"/>
<stop offset="0.5" stop-color="#AD1AAF"/>
<stop offset="1" stop-color="#231736"/>
</radialGradient>
</defs>
</svg>
