<svg width="1440" height="810" viewBox="0 0 1440 810" fill="none" xmlns="http://www.w3.org/2000/svg">
<path d="M-129.046 808.907C-79.7637 800.18 -5.32403 794.415 60.8472 800.056C94.7726 802.993 126.526 807.29 157.429 806.672C189.04 806.095 218.321 801.058 251.293 789.751C261.818 786.045 272.446 781.67 283.404 776.232C325.123 755.305 365.094 736.032 412.098 720.01C460.177 703.51 502.515 679.917 540.426 659.306C549.457 654.432 558.182 650.215 566.682 646.39C591.047 635.254 613.292 627.642 640.945 624.536C657.497 622.67 675.203 620.736 694.424 619.568C744.149 616.406 777.25 622.673 814.403 609.18C819.412 607.312 824.443 605.04 829.497 602.364C854.579 589.243 881.547 565.694 905.718 533.197C934.857 493.966 959.189 442.292 974.038 391.952C987.305 347.06 995.347 302.401 1007.87 256.925C1029.17 179.399 1064.68 98.2491 1109.77 30.7681C1135.26 -7.32622 1163.44 -40.1279 1193.63 -68.0827C1248.33 -118.65 1309.72 -152.204 1373.1 -173.211C1408.47 -184.917 1443.57 -191.099 1476.92 -191.304" stroke="#AD1AAF" stroke-miterlimit="10"/>
</svg>
