<svg width="1440" height="738" viewBox="0 0 1440 738" fill="none" xmlns="http://www.w3.org/2000/svg">
<path d="M-160.091 723.549C-99.3855 663.417 -12.7976 633.111 53.9656 651.047C87.572 659.96 116.071 679.325 144.25 697.039C173.08 715.334 201.202 732.228 234.726 736.372C245.541 737.687 256.872 737.672 268.842 735.924C314.133 728.919 358.284 725.929 406.474 713.922C460.06 700.598 502.483 662.257 543.129 614.558C552.465 603.537 561.8 592.516 570.993 581.623C598.118 549.734 624.989 520.008 656.942 504.734C674.985 496.13 694.625 491.43 716.135 493.1C769.811 496.93 790.249 549.031 831.191 566.132C836.632 568.357 842.383 569.919 848.442 570.819C878.414 575.027 914.993 561.931 947.658 532.953C986.881 498.235 1019.03 441.735 1031.25 386.515C1041.84 339.229 1039.09 295.107 1042.78 249.322C1048.97 170.611 1075.55 84.7948 1116.66 9.08579C1138.89 -31.8012 1165.24 -69.5877 1194.8 -102.287C1248.62 -162.007 1312.31 -204.271 1375.78 -225.998C1412 -238.299 1447.98 -243.401 1481.53 -240.344" stroke="#AD1AAF" stroke-miterlimit="10"/>
</svg>
