<svg width="1440" height="718" viewBox="0 0 1440 718" fill="none" xmlns="http://www.w3.org/2000/svg">
<path d="M-166.485 703.524C-122.52 646.897 -63.8326 610.824 -10.2092 602.212C12.8662 598.507 35.1197 599.813 55.484 606.204C81.6046 614.574 104.327 630.539 126.266 647.688C171.104 682.59 212.844 722.095 272.423 716.841C319.113 712.744 364.907 711.876 412.665 698.271C450.46 687.499 482.305 662.567 511.79 628.746C524.635 613.912 537.057 597.412 549.444 579.679C573.743 544.733 597.396 507.151 623.437 477.367C653.21 443.289 686.056 419.51 726.095 421.039C736.596 421.519 745.859 423.977 754.211 428.022C789.648 445.416 808.814 491.391 843.178 514.602C858.888 525.233 877.72 530.167 897.499 529.687C919.719 529.077 943.181 521.429 965.051 507.124C1006.51 480.159 1041.33 430.106 1054.54 379.741C1065.68 337.049 1061.77 297.439 1064.64 255.492C1070.54 168.736 1106.28 69.2379 1161.08 -16.2886C1176.4 -40.1386 1193.18 -62.9463 1211.16 -83.9058C1293.66 -179.976 1400.57 -237.558 1489.1 -233.456" stroke="#AD1AAF" stroke-miterlimit="10"/>
</svg>
