<svg width="1440" height="752" viewBox="0 0 1440 752" fill="none" xmlns="http://www.w3.org/2000/svg">
<path d="M-145.644 751.673C-107.647 691.204 -47.0033 655.08 5.79859 647.985C28.6318 644.917 50.4099 646.61 70.9939 651.816C97.6481 658.481 122.108 670.529 146.78 681.212C196.929 703.038 247.625 718.005 307.732 699.902C354.592 685.843 400.183 669.092 445.178 642.383C479.21 622.197 508.942 592.8 535.522 556.604C547.315 540.622 558.451 523.362 569.488 505.407C591.458 469.491 612.546 432.007 636.298 399.503C663.295 362.642 694.393 332.913 731.277 321.851C741.605 318.737 751.514 316.976 760.877 316.975C800.665 317.246 829.651 347.613 864.602 370.612C880.243 380.902 897.073 389.057 913.853 394.315C932.636 400.242 951.889 402.613 970.209 401.209C1005.46 398.457 1037.96 384.244 1059.88 359.349C1077.08 339.827 1085.06 316.456 1098.16 290.492C1125.17 236.957 1171.4 165.535 1226.45 97.2496C1241.68 78.3012 1257.71 59.5367 1274.2 41.6267C1349.17 -39.6823 1435.96 -104.173 1511.57 -132.252" stroke="#FF1CF7" stroke-miterlimit="10"/>
</svg>
