<svg width="1440" height="746" viewBox="0 0 1440 746" fill="none" xmlns="http://www.w3.org/2000/svg">
<path d="M-148.18 745.579C-109.419 685.633 -48.999 649.399 3.89679 642.182C26.7079 639.117 48.6101 640.679 69.1325 646.015C95.7806 652.949 119.946 665.519 144.24 676.995C193.735 700.414 243.316 718.469 303.377 702.037C350.228 689.234 395.806 674.429 441.183 649.425C475.672 630.389 505.62 601.588 532.606 565.729C544.448 549.906 555.841 532.817 566.97 514.887C589.185 479.161 610.603 441.599 634.619 409.559C662.021 373.037 693.292 344.038 730.607 334.529C741.006 331.836 750.738 330.618 760.028 331.164C799.313 333.61 827.024 365.936 861.9 389.046C877.526 399.325 894.569 407.072 911.749 411.66C930.972 416.782 950.729 417.805 969.534 414.78C1005.57 409.05 1038.57 390.064 1059.12 362.088C1075.79 339.527 1082.07 314.154 1093.79 286.209C1118.1 228.443 1163.11 153.447 1218.04 83.0262C1233.27 63.4093 1249.3 44.2525 1266.15 25.8324C1342.08 -57.3962 1431.37 -120.981 1508.62 -145.076" stroke="#FF1CF7" stroke-miterlimit="10"/>
</svg>
