<svg width="1440" height="812" viewBox="0 0 1440 812" fill="none" xmlns="http://www.w3.org/2000/svg">
<path d="M-119.463 811.647C-89.1194 746.283 -25.9079 709.885 25.8835 704.857C48.3243 702.697 69.555 704.784 90.4237 708.382C117.86 713.065 144.575 720.073 172.481 722.553C229.44 727.582 291.529 711.598 352.374 677.01C399.431 650.248 445.052 614.067 486.267 569.824C515.653 538.398 542.451 502.64 565.531 463.458C575.841 445.954 585.485 427.854 594.859 409.598C613.881 372.546 631.717 334.866 652.547 299.175C676.156 258.631 704.972 219.787 737.772 194.135C748.014 186.101 758.501 179.335 769.355 174.124C814.739 152.418 856.104 163.215 891.818 186.078C907.253 195.905 921.653 208.038 934.59 220.782C949.043 235.148 962.781 250.447 976.585 265.193C1003.74 294.099 1031.21 320.936 1066.42 332.066C1089.31 339.407 1114.12 339.197 1140.48 333.645C1193.85 322.162 1253.91 286.693 1309.24 240.077C1324.34 227.315 1339.29 213.706 1354.04 199.669C1419.47 136.93 1480.63 63.6305 1540 -5.59527" stroke="#F552C5" stroke-miterlimit="10"/>
</svg>
