<svg width="1440" height="800" viewBox="0 0 1440 800" fill="none" xmlns="http://www.w3.org/2000/svg">
<path d="M-124.669 799.603C-92.7686 735.32 -30.1589 698.838 21.8683 693.424C44.3083 691.132 65.7493 693.089 86.5978 696.958C113.855 702.038 140.077 710.115 167.422 714.227C223.006 722.644 282.718 712.956 343.512 681.649C390.444 657.448 436.081 625.109 478.135 584.498C508.389 555.284 535.836 520.762 559.637 482.272C570.257 465.106 580.152 447.203 589.923 429.014C609.488 392.221 628.057 354.535 649.405 319.515C673.733 279.666 703.044 242.891 736.537 219.984C746.879 212.948 757.153 207.159 767.752 203.058C812.006 185.788 850.879 200.587 886.422 223.39C901.89 233.336 916.726 244.634 930.521 255.871C945.913 268.453 960.742 281.141 975.39 292.706C1004.23 315.254 1032.15 334.272 1065.14 337.605C1086.5 339.836 1108.33 334.728 1131.9 324.997C1179.92 305.169 1237.31 262.264 1292.43 211.302C1307.58 197.322 1322.72 182.646 1337.81 167.829C1405.17 101.325 1471.55 29.7609 1534.07 -31.0505" stroke="#E15DC8" stroke-miterlimit="10"/>
</svg>
