<svg width="1440" height="716" viewBox="0 0 1440 716" fill="none" xmlns="http://www.w3.org/2000/svg">
<path d="M-161.279 715.59C-118.768 658.083 -59.5594 621.968 -6.16663 613.732C16.91 610.155 39.0601 611.592 59.3399 617.715C85.6337 625.697 108.732 640.615 131.416 656.193C177.583 687.808 221.523 721.211 281.247 712.798C327.953 706.225 373.706 701.376 420.867 684.554C457.798 671.379 489.071 645.406 517.709 611.059C530.354 595.91 542.431 579.221 554.43 561.432C578.098 526.244 601.139 488.691 626.574 458.266C655.645 423.533 688.046 398.31 727.269 396.64C737.774 396.161 747.181 397.535 755.841 400.646C792.368 413.75 814.052 455.846 848.521 478.966C864.198 489.475 882.506 495.208 901.555 496.189C922.906 497.168 945.311 492.045 966.324 480.949C1006.23 459.866 1040.67 418.599 1055.81 374.828C1068.69 337.638 1067.43 302.221 1072.9 264.321C1083.91 185.924 1122.47 93.2525 1177.23 12.0807C1192.52 -10.5843 1209.1 -32.3516 1226.76 -52.5484C1307.38 -144.942 1409.22 -204.172 1494.58 -208.203" stroke="#AD1AAF" stroke-miterlimit="10"/>
</svg>
