<svg width="1440" height="716" viewBox="0 0 1440 716" fill="none" xmlns="http://www.w3.org/2000/svg">
<path d="M-163.933 709.488C-120.623 652.359 -61.7793 616.26 -8.19029 607.909C14.8644 604.335 37.0353 605.637 57.357 611.893C83.5844 620.002 106.453 635.578 128.805 651.808C174.285 685.134 217.165 721.455 276.743 714.688C323.44 709.354 369.14 706.562 416.723 691.289C454.106 679.25 485.593 653.862 514.675 619.712C527.471 604.724 539.7 588.197 551.79 570.431C575.845 535.301 599.171 497.802 624.909 467.697C654.279 433.29 686.953 408.794 726.563 408.792C736.994 408.857 746.328 410.773 754.958 414.291C790.99 429.544 811.31 473.574 845.747 496.672C861.471 507.312 879.99 512.642 899.373 512.821C921.159 513.005 944.062 506.549 965.555 493.85C1006.23 469.824 1040.89 424.094 1055.02 377.158C1067.08 337.219 1064.49 299.704 1068.63 259.71C1077.08 177.131 1114.18 81.0427 1169.04 -2.23316C1184.32 -25.5608 1201 -47.7108 1218.92 -68.4202C1300.5 -162.719 1404.91 -221.052 1491.74 -221.019" stroke="#FF1CF7" stroke-miterlimit="10"/>
</svg>
