<svg width="1440" height="794" viewBox="0 0 1440 794" fill="none" xmlns="http://www.w3.org/2000/svg">
<path d="M-127.339 793.628C-94.6178 729.742 -32.3157 693.422 19.8532 687.746C42.4193 685.326 63.841 687.281 84.5865 691.418C111.735 696.766 137.807 705.243 164.728 710.299C219.651 720.336 278.233 713.788 338.88 684.174C385.805 661.251 431.433 630.892 473.877 592.015C504.596 563.972 532.368 530.063 556.478 491.911C567.296 474.776 577.347 457.04 587.212 438.877C607.028 402.278 625.934 364.514 647.697 329.835C672.395 290.468 701.883 254.439 735.817 233.111C746.084 226.634 756.43 221.273 766.746 217.715C810.491 202.657 848.072 219.448 883.438 242.357C898.85 252.428 914.05 263.181 928.148 273.73C943.885 285.486 959.394 296.952 974.474 306.726C1004.2 325.97 1032.4 341.237 1064.22 340.75C1084.86 340.438 1105.1 332.882 1127.42 321.006C1172.81 296.881 1228.71 250.466 1283.93 197.346C1299.07 182.687 1314.33 167.618 1329.63 152.413C1397.93 84.0958 1466.85 13.4545 1531.04 -43.3028" stroke="#D762CA" stroke-miterlimit="10"/>
</svg>
