<svg width="1440" height="892" viewBox="0 0 1440 892" fill="none" xmlns="http://www.w3.org/2000/svg">
<path d="M-105.613 860.138C-63.5815 883.285 3.3987 892.189 68.835 890.531C102.87 889.578 136.538 884.844 169.091 872.794C202.388 860.653 232.295 842.272 264.805 821.09C275.138 814.447 285.332 807.259 295.488 799.531C334.944 769.762 372.126 741.067 418.347 722.168C462.777 704.103 505.163 689.677 541.22 685.486C550.003 684.526 558.359 684.614 566.434 684.954C589.05 685.881 608.407 693.06 633.3 697.209C648.778 699.73 665.434 699.098 683.084 696.242C730.244 688.541 771.095 666.506 805.779 634.308C810.518 629.887 815.138 625.191 819.556 620.483C841.53 596.668 862.525 566.753 881.49 532.154C904.341 490.265 923.825 441.733 940.19 394.36C955.193 351.07 969.579 306.132 987.543 260.868C1017.81 184.372 1059.15 106.11 1106.41 43.7708C1133.86 7.52226 1163.01 -22.316 1193.47 -47.1098C1248.55 -92.072 1308.33 -120.11 1371.64 -140.691C1406.3 -151.945 1440.72 -158.783 1474.05 -161.12" stroke="#AD1AAF" stroke-miterlimit="10"/>
</svg>
