<svg width="1440" height="727" viewBox="0 0 1440 727" fill="none" xmlns="http://www.w3.org/2000/svg">
<path d="M-167.903 702.129C-104.217 628.963 -14.669 592.629 52.2334 613.599C85.7565 624.02 113.456 647.19 140.996 669.531C169.146 692.59 196.89 714.944 230.608 723.059C241.479 725.605 252.97 726.825 265.227 725.908C311.369 722.48 356.612 723.635 405.12 712.573C460.097 700.118 502.601 658.025 543.869 603.451C553.374 590.919 562.757 578.107 572.2 565.435C599.976 528.204 628.151 493.042 661.123 474.66C679.639 464.293 699.585 459.055 721.749 461.446C776.423 467.109 793.722 530.573 835.447 555.52C840.976 558.844 846.959 561.377 853.19 563.106C884.348 571.752 923.321 561.222 958.155 533.132C999.927 499.449 1034.05 441.729 1045.6 385.275C1055.42 337.446 1050.13 293.366 1051.54 247.498C1053.96 168.419 1078.39 81.4955 1118.43 3.66937C1139.84 -37.8891 1165.76 -76.8649 1195.04 -110.872C1248.61 -172.905 1312.89 -217.402 1376.38 -239.175C1412.82 -251.626 1448.99 -256.458 1482.56 -252.579" stroke="#AD1AAF" stroke-miterlimit="10"/>
</svg>
