<svg width="1440" height="751" viewBox="0 0 1440 751" fill="none" xmlns="http://www.w3.org/2000/svg">
<path d="M-152.381 744.832C-94.5018 697.557 -11.0488 673.518 55.6145 688.297C89.3027 695.708 118.698 711.289 147.513 724.391C177.019 737.942 205.413 749.389 238.846 749.585C249.604 749.673 260.733 748.56 272.459 745.851C316.858 735.415 359.919 728.296 407.834 715.213C460.031 701.023 502.373 666.421 542.398 625.57C551.668 616.061 560.855 606.819 569.899 597.704C596.315 570.997 622.048 546.832 652.987 534.655C670.701 527.679 689.748 523.77 710.709 524.728C763.305 527 786.993 567.378 827.009 576.79C832.321 578.053 837.983 578.521 843.668 578.583C872.314 578.498 906.549 562.71 937.053 532.847C973.777 496.964 1003.86 441.673 1016.84 387.687C1028.06 341.07 1028.09 296.785 1033.94 251.075C1043.93 172.597 1072.71 88.0215 1114.93 14.2875C1137.96 -25.9311 1164.81 -62.3938 1194.48 -93.9355C1248.56 -151.352 1311.7 -191.526 1375.16 -212.934C1411.17 -225.085 1446.85 -230.464 1480.37 -228.225" stroke="#AD1AAF" stroke-miterlimit="10"/>
</svg>
