<svg width="1440" height="744" viewBox="0 0 1440 744" fill="none" xmlns="http://www.w3.org/2000/svg">
<path d="M-156.185 734.268C-96.8726 680.502 -11.8735 653.4 54.8709 669.826C88.5902 677.923 117.436 695.389 145.944 710.931C175.184 726.788 203.391 740.953 236.85 743.188C247.615 743.956 258.794 743.388 270.715 741.096C315.539 732.44 359.145 727.384 407.249 714.841C460.089 701.081 502.502 664.681 542.828 620.271C552.11 610.074 561.393 599.877 570.532 589.807C597.353 560.514 623.573 533.498 654.999 519.841C672.878 512.051 692.188 508.017 713.435 509.128C766.634 511.978 788.586 558.409 829.115 571.666C834.472 573.476 840.178 574.49 846.091 574.837C875.472 576.833 910.755 562.45 942.39 533.032C980.312 497.728 1011.41 441.899 1024.1 387.166C1035.01 340.215 1033.67 295.944 1038.47 250.267C1046.53 171.602 1074.24 86.4761 1115.98 11.6913C1138.61 -28.8614 1165.24 -65.9158 1194.85 -98.1723C1248.8 -156.74 1312.24 -198.025 1375.65 -219.459C1411.85 -231.749 1447.62 -236.992 1481.12 -234.211" stroke="#FF1CF7" stroke-miterlimit="10"/>
</svg>
