<svg width="1440" height="939" viewBox="0 0 1440 939" fill="none" xmlns="http://www.w3.org/2000/svg">
<path d="M-78.61 909.661C-25.4231 992.621 84.9179 1004.32 183.73 937.118C218.541 913.45 248.99 881.929 280.987 851.299C330.229 804.095 370.151 751.011 426.987 723.844C478.026 699.4 530.702 697.574 568.238 722.575C589 736.325 605.318 757.276 627.621 768.319C686.932 797.535 769.769 712.865 810.992 638.136C853.055 561.99 875.428 477.487 907.827 396.907C952.599 285.34 1025.17 148.892 1103.66 57.3029C1186.23 -38.9769 1272.29 -76.2815 1370.06 -107.566C1403.99 -118.493 1437.72 -125.833 1470.86 -130.276" stroke="#AD1AAF" stroke-miterlimit="10"/>
</svg>
