<svg width="1440" height="722" viewBox="0 0 1440 722" fill="none" xmlns="http://www.w3.org/2000/svg">
<path d="M-158.609 721.578C-116.855 663.556 -57.3819 627.417 -4.12259 619.437C18.8323 615.985 41.0043 617.424 61.3458 623.417C87.6459 631.132 110.994 645.667 133.993 660.319C180.809 690.356 225.855 720.701 285.624 710.634C332.341 702.818 378.147 695.908 424.89 677.534C461.266 663.215 492.326 636.652 520.665 601.977C533.159 586.667 545.042 569.949 556.951 552.136C580.334 516.895 603.091 479.287 628.223 448.537C656.894 413.47 689.021 387.519 728.022 384.324C738.457 383.428 747.938 384.259 756.731 386.969C793.859 397.925 816.704 438.073 851.206 461.217C866.899 471.737 884.997 477.873 903.65 479.517C924.565 481.293 946.411 477.365 967.048 467.881C1006.13 449.88 1040.45 412.813 1056.61 372.487C1070.33 338.05 1070.45 304.872 1077.19 268.929C1090.81 194.582 1130.69 105.458 1185.52 26.5373C1200.82 4.53515 1217.25 -16.7151 1234.74 -36.6687C1314.45 -127.293 1413.82 -187.418 1497.51 -195.258" stroke="#AD1AAF" stroke-miterlimit="10"/>
</svg>
