<svg width="1440" height="782" viewBox="0 0 1440 782" fill="none" xmlns="http://www.w3.org/2000/svg">
<path d="M-132.546 781.635C-98.3781 718.808 -36.4641 682.413 15.8988 676.489C38.4648 673.937 60.0963 675.764 80.719 680.164C107.794 685.913 133.377 695.454 159.68 701.989C213.24 715.392 269.564 715.103 330.06 688.738C376.966 668.362 422.511 641.809 465.79 606.534C497.479 580.691 525.752 548.135 550.621 510.53C561.645 493.722 572.049 476.186 582.31 458.087C602.813 421.61 622.304 383.966 644.582 349.949C669.893 311.261 699.917 277.146 734.707 258.689C745.075 253.203 755.21 248.812 765.273 246.356C807.897 235.702 843.044 256.335 878.303 279.329C893.791 289.384 909.485 299.451 924.333 308.498C940.963 318.62 957.494 327.351 973.621 333.98C1004.92 346.905 1034.08 354.439 1063.38 346.188C1082.85 340.684 1099.81 328.243 1119.43 312.357C1159.5 279.941 1212.75 226.134 1267.87 168.696C1283.04 152.826 1298.51 136.695 1314.14 120.713C1384.36 48.6475 1458.47 -20.2797 1525.94 -68.8165" stroke="#C36CCD" stroke-miterlimit="10"/>
</svg>
