<svg width="1440" height="806" viewBox="0 0 1440 806" fill="none" xmlns="http://www.w3.org/2000/svg">
<path d="M-122.016 805.687C-90.8927 740.865 -27.9511 704.496 23.9797 699.206C46.4414 696.912 67.7562 699.003 88.667 702.739C115.992 707.689 142.409 715.229 170.138 718.533C226.388 725.326 287.278 712.353 348.076 679.476C395.123 653.999 440.669 619.667 482.336 577.314C512.125 546.924 539.248 511.784 562.741 472.952C573.205 455.618 583.049 437.551 592.517 419.323C611.79 382.468 629.962 344.714 651.103 309.362C675.124 269.169 704.136 231.358 737.314 207.151C747.585 199.686 758.038 193.344 768.713 188.685C813.583 169.202 853.649 182 889.226 204.83C904.708 214.787 919.369 226.366 932.61 238.418C947.554 251.822 961.827 266.022 976.064 278.968C1004.06 304.691 1031.65 327.608 1065.78 334.906C1087.86 339.686 1111.28 337.03 1136.27 329.318C1187 313.521 1245.7 274.398 1300.89 225.744C1316.08 212.306 1331.04 198.297 1345.91 183.866C1412.28 119.311 1476.02 46.8091 1537.01 -18.2013" stroke="#EB57C7" stroke-miterlimit="10"/>
</svg>
