<svg width="1440" height="788" viewBox="0 0 1440 788" fill="none" xmlns="http://www.w3.org/2000/svg">
<path d="M-129.891 787.695C-96.5004 724.341 -34.3652 688.057 17.9401 682.121C40.526 679.567 62.0304 681.526 82.7133 685.794C109.793 691.271 135.628 700.419 162.207 706.144C216.424 717.933 273.915 714.382 334.514 686.468C381.427 664.821 426.98 636.298 469.87 599.298C501.094 572.29 529.042 539.125 553.603 501.185C564.576 484.218 574.824 466.515 584.783 448.379C604.993 411.847 624.191 374.146 646.158 339.797C671.161 300.773 700.947 265.775 735.297 245.747C745.636 239.698 755.802 234.888 766.043 231.885C809.173 219.03 845.606 237.677 880.896 260.695C896.397 270.76 911.771 281.234 926.317 290.966C942.499 301.903 958.519 311.999 974.049 320.263C1004.61 336.346 1033.14 347.733 1063.82 343.298C1083.85 340.455 1102.4 330.452 1123.46 316.436C1166.18 288.163 1220.77 237.984 1275.89 182.703C1291.12 167.374 1306.43 151.771 1321.84 136.175C1391.12 65.919 1462.56 -3.79428 1528.47 -56.3589" stroke="#CD67CB" stroke-miterlimit="10"/>
</svg>
