<svg width="1440" height="720" viewBox="0 0 1440 720" fill="none" xmlns="http://www.w3.org/2000/svg">
<path d="M-169.156 697.538C-124.436 641.419 -66.0093 605.367 -12.2923 596.634C10.9053 592.804 33.1378 594.109 53.4416 600.628C79.4962 609.125 102.032 625.611 123.598 643.543C167.752 680.151 208.437 722.566 267.87 718.95C314.552 716.088 360.253 717.404 408.471 705.207C446.676 695.7 478.879 671.224 508.661 637.726C521.658 623.051 534.273 606.579 546.75 588.868C571.333 553.972 595.373 516.449 621.613 486.978C651.683 453.223 684.844 430.033 725.227 433.359C735.697 434.247 744.887 437.245 753.168 441.829C788.111 461.366 806.063 509.141 840.354 532.465C856.151 543.091 875.152 547.758 895.264 546.48C917.815 545.071 941.876 536.1 964.224 520.199C1006.49 490.166 1041.45 435.933 1053.69 382.28C1064.01 336.848 1058.72 295.007 1060.33 251.113C1063.53 160.317 1098.1 57.1552 1152.86 -30.3416C1168.17 -54.8526 1185.06 -78.0419 1203.29 -99.5129C1286.75 -197.484 1396.07 -254.046 1486.22 -246.023" stroke="#AD1AAF" stroke-miterlimit="10"/>
</svg>
