<svg width="1440" height="770" viewBox="0 0 1440 770" fill="none" xmlns="http://www.w3.org/2000/svg">
<path d="M-137.768 769.685C-102.017 707.788 -40.6834 671.584 11.8483 665.135C34.5576 662.324 56.2504 664.152 76.8523 668.819C103.748 674.962 128.884 685.425 154.485 693.704C206.681 710.457 260.793 716.266 321.091 693.271C367.976 675.432 413.494 652.813 457.438 620.978C490.089 597.325 518.858 566.118 544.482 529.059C555.813 512.585 566.506 495.106 577.057 477.065C598.097 440.843 618.315 403.189 641.103 369.834C667.126 331.83 697.578 299.617 733.115 284.013C743.478 279.508 753.505 276.089 763.358 274.595C804.862 268.327 837.435 292.912 872.627 315.854C888.146 326.027 904.27 335.269 919.967 342.827C937.484 351.321 955.094 357.472 972.095 360.821C1005.06 367.459 1035.35 366.752 1061.76 351.303C1080.3 340.506 1093.65 323.32 1110.67 303.449C1145.52 262.509 1195.9 201.748 1251.05 139.885C1266.26 122.81 1281.93 105.623 1297.92 88.7319C1370.05 12.9386 1449.19 -54.1488 1519.93 -94.4988" stroke="#AD1AAF" stroke-miterlimit="10"/>
</svg>
