<svg width="1440" height="734" viewBox="0 0 1440 734" fill="none" xmlns="http://www.w3.org/2000/svg">
<path d="M-153.403 733.655C-113.07 674.61 -53.2177 638.557 -0.0883254 630.96C22.8672 627.637 44.8322 629.202 65.2332 634.796C91.707 642.121 115.535 655.611 139.139 668.813C187.291 695.546 234.652 719.76 294.567 706.517C341.298 696.21 387.022 685.431 433.103 663.681C468.609 646.944 499.093 619.333 526.726 583.997C538.916 568.364 550.555 551.461 562.074 533.59C584.926 498.112 606.963 460.524 631.589 429.134C659.699 393.277 691.377 365.874 729.455 359.454C739.851 357.729 749.478 357.47 758.519 359.1C796.744 365.741 821.975 402.12 856.685 425.179C872.345 435.579 889.916 442.519 907.834 445.632C927.935 449.148 948.76 447.623 968.431 441.359C1006.02 429.415 1039.8 401.311 1057.99 367.344C1073.27 338.702 1076.45 309.488 1085.6 277.601C1104.61 211.534 1147.02 129.529 1201.89 54.7141C1217.16 33.9028 1233.39 13.6978 1250.56 -5.49013C1328.39 -92.4216 1422.75 -154.201 1503.25 -170.22" stroke="#AD1AAF" stroke-miterlimit="10"/>
</svg>
