<svg width="1440" height="874" viewBox="0 0 1440 874" fill="none" xmlns="http://www.w3.org/2000/svg">
<path d="M-110.926 850.251C-67.4524 867.06 1.10836 872.971 66.5934 872.918C100.595 872.63 133.963 869.749 166.151 860.075C199.126 850.179 228.883 834.445 261.512 815.383C271.904 809.27 282.117 802.743 292.474 795.417C332.387 767.37 370.182 740.543 416.497 722.286C461.642 704.498 504.043 688.296 540.591 680.761C549.435 678.995 557.894 678.147 565.987 677.816C588.819 676.871 608.874 680.604 634.369 683.313C650.023 685.039 666.937 684.016 684.904 681.575C732.58 674.828 771.962 658.449 807.127 629.854C811.914 625.967 816.581 621.803 821.088 617.496C843.763 595.832 865.843 567.141 885.832 532.948C910.018 491.47 930.41 442.373 946.47 394.367C961.183 350.719 974.21 305.896 991.205 260.5C1019.62 183.769 1059.86 104.908 1106.81 41.5028C1133.93 4.77021 1162.86 -25.5358 1193.24 -50.9154C1248.37 -97.0301 1308.4 -126.181 1371.73 -146.801C1406.61 -158.2 1441.16 -164.911 1474.54 -166.849" stroke="#AD1AAF" stroke-miterlimit="10"/>
</svg>
