<svg width="1440" height="928" viewBox="0 0 1440 928" fill="none" xmlns="http://www.w3.org/2000/svg">
<path d="M-94.7304 879.832C-55.6233 915.461 8.3159 930.332 73.3342 925.859C107.315 923.308 141.739 915.027 174.937 898.509C208.815 881.763 239.021 858.11 271.273 833.104C281.528 825.275 291.445 816.89 301.403 808.374C339.89 775.035 375.953 742.624 421.809 722.702C464.858 703.953 507.197 692.792 542.396 695.532C551.057 696.175 559.373 697.602 567.106 699.93C588.826 706.428 607.122 718.748 630.961 725.638C645.908 729.998 662.174 729.75 679.254 726.204C725.347 716.736 769.216 683.446 802.887 643.934C807.49 638.583 811.874 632.952 816.059 627.309C836.839 599.219 855.377 566.847 872.206 531.431C892.587 488.46 910.125 441.173 927.098 395.057C942.776 352.479 959.625 307.427 979.855 262.306C1013.69 186.263 1057.28 109.322 1105.32 48.9724C1133.6 13.4262 1163.06 -15.0899 1193.67 -38.7203C1248.88 -81.3817 1307.96 -107.218 1371.06 -127.598C1405.44 -138.693 1439.6 -145.785 1472.88 -149.046" stroke="#AD1AAF" stroke-miterlimit="10"/>
</svg>
