<svg width="1440" height="789" viewBox="0 0 1440 789" fill="none" xmlns="http://www.w3.org/2000/svg">
<path d="M-136.874 787.626C-84.7995 766.182 -7.30042 754.353 59.0143 762.982C92.8611 767.405 123.832 775.449 154.109 779.392C185.056 783.509 214.029 783.991 247.134 776.459C257.675 774.1 268.504 770.81 279.744 766.191C322.305 748.791 363.397 733.471 410.574 718.508C459.967 702.728 502.245 675.566 540.972 648.196C550.069 641.826 559.001 635.989 567.689 630.272C592.755 614.011 616.165 600.767 644.881 594.737C661.798 591.128 679.949 588.538 699.714 588.074C750.426 586.719 780.362 604.448 818.473 598.428C823.569 597.644 828.871 596.196 834.052 594.469C860.346 585.59 889.733 564.71 915.938 533.086C947.548 495.01 973.822 442.139 988.058 390.456C1000.67 345.039 1006.01 300.414 1016.38 254.866C1033.93 177.118 1067.17 94.7408 1111.41 25.1918C1136.04 -13.6989 1163.8 -47.6688 1193.77 -76.7714C1248.22 -129.613 1310.2 -165.365 1373.66 -186.546C1409.23 -198.4 1444.52 -204.315 1478 -203.704" stroke="#FF1CF7" stroke-miterlimit="10"/>
</svg>
