<svg width="1440" height="721" viewBox="0 0 1440 721" fill="none" xmlns="http://www.w3.org/2000/svg">
<path d="M-170.877 690.972C-105.78 611.304 -14.7216 571.903 52.2683 594.387C131.254 620.848 175.612 723.445 264.181 720.32C310.829 718.692 356.495 721.918 405.065 711.399C460.66 699.383 503.255 655.364 544.764 597.367C598.05 522.873 648.668 435.808 724.966 445.06C780.092 451.705 795.758 520.833 837.978 549.639C871.362 572.333 920.815 565.686 963.874 532.608C1006.93 499.53 1041.96 441.289 1053.27 384.248C1062.77 336.105 1056.06 292.195 1056.45 246.245C1057.28 124.882 1111.36 -15.7274 1195.68 -115.411C1280 -215.095 1391.86 -270.873 1483.43 -258.815" stroke="#AD1AAF" stroke-miterlimit="10"/>
</svg>
