<svg width="1440" height="764" viewBox="0 0 1440 764" fill="none" xmlns="http://www.w3.org/2000/svg">
<path d="M-140.305 763.616C-103.781 702.241 -42.6679 665.925 9.96306 659.352C32.6523 656.543 54.3681 658.234 75.0136 663.038C101.844 669.311 126.747 680.441 151.97 689.519C203.471 708.013 256.362 716.922 316.662 695.472C363.54 678.895 409.05 658.233 453.382 628.111C486.495 605.615 515.587 575.012 541.518 538.285C553.004 521.974 563.852 504.66 574.6 486.649C595.993 450.622 616.44 412.882 639.641 379.861C666.074 342.197 696.66 310.853 732.634 296.811C742.966 292.723 752.877 289.991 762.698 288.911C803.597 284.825 834.993 311.39 870.155 334.309C885.764 344.478 902.062 353.446 918.102 360.189C936.104 367.737 954.181 372.666 971.63 374.521C1005.33 378.021 1036.42 372.944 1061.29 354.244C1079.41 340.672 1090.89 321.323 1106.67 299.327C1138.87 254.269 1187.96 189.766 1242.96 125.886C1258.16 108.138 1273.98 90.425 1290.15 73.2855C1363.22 -4.30802 1444.91 -70.6233 1517.27 -106.831" stroke="#AD1AAF" stroke-miterlimit="10"/>
</svg>
