<svg width="1440" height="823" viewBox="0 0 1440 823" fill="none" xmlns="http://www.w3.org/2000/svg">
<path d="M-125.14 819.604C-77.3715 817.279 -4.35624 814.545 61.6922 818.693C95.6265 820.82 127.779 823.383 159.085 820.361C191.057 817.512 220.521 809.792 253.366 796.465C263.842 792.219 274.422 787.305 285.228 781.325C326.527 758.638 365.918 737.46 412.775 720.77C460.078 703.972 502.445 682.158 540.101 664.928C549.079 660.865 557.75 657.459 566.157 654.577C590.123 645.994 611.888 641.197 638.919 639.679C655.167 638.742 672.772 637.076 691.692 635.487C740.904 631.49 775.633 632.044 812.278 614.755C817.244 612.347 822.191 609.667 827.058 606.577C851.557 591.275 877.249 566.458 900.405 533.526C928.262 493.715 951.655 442.706 966.871 392.837C980.446 348.273 989.835 303.597 1003.39 258.087C1026.49 180.735 1063.26 100.135 1108.82 33.6879C1134.71 -4.07878 1163.1 -36.2982 1193.35 -63.5481C1248.22 -113.114 1309.28 -145.441 1372.7 -166.423C1407.92 -178.126 1442.88 -184.308 1476.37 -185.043" stroke="#FF1CF7" stroke-miterlimit="10"/>
</svg>
