<svg width="1440" height="778" viewBox="0 0 1440 778" fill="none" xmlns="http://www.w3.org/2000/svg">
<path d="M-140.663 776.929C-87.1668 749.044 -8.13219 734.173 58.2045 744.298C91.9408 749.53 122.611 759.323 152.484 765.682C183.067 772.083 211.957 775.269 245.089 769.762C255.78 767.951 266.557 765.196 277.949 761.123C320.933 745.492 362.567 732.219 409.974 717.66C460.107 702.312 502.396 673.227 541.483 642.464C550.633 635.279 559.619 628.626 568.36 622.094C593.727 603.261 617.68 587.325 647.022 579.699C664.103 575.282 682.558 572.436 702.565 572.256C753.753 571.873 782.092 595.213 820.714 593.008C825.854 592.768 831.2 591.862 836.567 590.552C863.448 583.865 894.018 564.253 921.346 533.071C954.286 495.444 981.464 442.035 995.332 389.876C1007.53 344.123 1011.67 299.658 1020.84 253.998C1036.48 176.067 1068.66 93.1449 1112.32 22.5484C1136.56 -16.6732 1164.1 -51.2296 1193.96 -80.9083C1248.3 -134.892 1310.57 -171.746 1373.99 -192.952C1409.64 -204.949 1445.09 -210.591 1478.52 -209.713" stroke="#FF1CF7" stroke-miterlimit="10"/>
</svg>
