<svg width="1440" height="939" viewBox="0 0 1440 939" fill="none" xmlns="http://www.w3.org/2000/svg">
<path d="M-84.0102 899.689C-47.746 947.866 13.0755 968.664 77.8575 961.136C111.843 957.133 146.957 945.189 180.793 924.228C215.248 902.904 245.649 874 277.743 845.197C287.821 836.182 297.622 826.751 307.324 817.313C344.81 780.553 379.822 744.582 425.254 723.503C466.852 704.335 508.859 697.334 543.572 705.784C552.15 707.891 560.206 711.035 567.781 715.084C588.854 726.334 605.854 744.551 628.648 754.168C643.167 760.361 659.045 760.496 675.419 756.389C720.533 744.901 767.214 700.675 799.979 653.895C804.488 647.488 808.738 640.933 812.65 634.49C832.206 602.279 848.446 567.337 863.158 531.104C881.089 487.054 896.796 441.004 914.232 396.257C930.62 354.251 949.97 309.216 972.248 264.22C1009.67 188.489 1055.45 112.982 1104.16 54.5972C1133.21 19.876 1162.97 -7.59705 1193.68 -29.9427C1249.01 -70.3222 1307.4 -93.9733 1370.34 -114.287C1404.44 -125.224 1438.34 -132.568 1471.43 -136.625" stroke="#FF1CF7" stroke-miterlimit="10"/>
</svg>
