<svg width="1440" height="776" viewBox="0 0 1440 776" fill="none" xmlns="http://www.w3.org/2000/svg">
<path d="M-135.098 775.651C-100.16 713.359 -38.5161 676.993 13.8786 670.803C36.5678 668.125 58.1779 669.949 78.8417 674.486C105.848 680.364 131.133 690.431 157.115 697.909C209.971 713.057 265.208 715.753 325.552 691.072C372.447 671.966 417.977 647.383 461.537 613.828C493.685 589.15 522.279 557.205 547.453 519.939C558.63 503.299 569.23 485.795 579.585 467.722C600.335 431.442 620.158 393.723 642.743 360.041C668.462 321.7 698.575 288.599 733.884 271.441C744.219 266.375 754.278 262.539 764.308 260.499C806.319 252.038 840.281 274.654 875.403 297.616C890.936 307.801 906.846 317.455 922.036 325.682C939.109 334.989 956.253 342.363 972.723 347.483C1004.86 357.261 1034.53 360.667 1062.37 348.881C1081.32 340.863 1096.5 325.98 1114.86 307.964C1152.31 271.281 1204.08 213.992 1259.23 154.273C1274.49 137.735 1290.01 121.073 1305.85 104.707C1377.05 30.7097 1453.63 -37.159 1522.76 -81.6646" stroke="#B972CE" stroke-miterlimit="10"/>
</svg>
