<svg width="1440" height="910" viewBox="0 0 1440 910" fill="none" xmlns="http://www.w3.org/2000/svg">
<path d="M-100.174 870.017C-59.6362 899.346 5.83116 911.373 71.0797 908.239C105.088 906.486 139.156 899.91 171.992 885.754C205.551 871.239 235.608 850.217 268.02 827.189C278.334 819.886 288.369 812.165 298.426 804.043C337.427 772.555 374.04 741.865 419.988 722.582C463.747 704.108 506.039 691.715 541.789 690.6C550.551 690.311 558.847 691.201 566.68 692.6C588.817 696.583 607.643 706.002 632.039 711.592C647.301 715.036 663.742 714.663 681.077 711.392C727.723 702.741 770.096 675.204 804.244 639.275C808.935 634.323 813.467 629.227 817.698 624.114C839.074 598.158 858.888 567.016 876.733 532.005C898.297 489.571 916.877 441.6 933.506 394.988C948.798 352.052 964.498 307.128 983.567 261.867C1015.57 185.595 1058.07 108.064 1105.69 46.6525C1133.61 10.7587 1162.84 -18.4889 1193.43 -42.5625C1248.58 -86.3725 1308.01 -113.308 1371.18 -133.857C1405.77 -145.094 1440.06 -152.059 1473.25 -154.799" stroke="#AD1AAF" stroke-miterlimit="10"/>
</svg>
