<svg width="1440" height="839" viewBox="0 0 1440 839" fill="none" xmlns="http://www.w3.org/2000/svg">
<path d="M-121.301 830.251C-74.9461 834.321 -3.41911 834.475 62.4596 837.264C96.3994 838.583 128.988 839.282 160.611 834.125C192.981 828.877 222.524 818.473 255.3 803.268C265.766 798.352 276.195 792.895 286.809 786.505C327.685 762.064 366.535 738.853 413.26 721.769C459.884 704.679 502.277 684.644 539.513 670.644C548.478 667.259 557.055 664.796 565.307 662.718C588.872 656.683 610.157 654.695 636.606 654.63C652.69 654.495 670.093 653.089 688.669 651.213C737.405 646.251 773.715 641.235 809.89 620.025C814.771 617.209 819.715 613.858 824.498 610.362C848.412 592.883 872.928 566.807 895.07 533.443C921.746 493.062 944.099 442.716 959.639 393.453C973.622 349.224 984.192 304.39 998.948 258.993C1023.94 181.826 1061.75 101.769 1107.78 36.3583C1134.06 -1.07876 1162.66 -32.7147 1193.02 -59.3917C1248 -107.822 1308.77 -139.053 1372.22 -160.011C1407.36 -171.57 1442.16 -178.024 1475.63 -179.161" stroke="#FF1CF7" stroke-miterlimit="10"/>
</svg>
