<svg width="1440" height="799" viewBox="0 0 1440 799" fill="none" xmlns="http://www.w3.org/2000/svg">
<path d="M-132.968 798.334C-82.2691 783.187 -6.34031 774.526 59.8538 781.657C93.7108 785.267 125.125 791.438 155.726 793.235C187.036 795.072 216.134 792.723 249.174 783.302C259.707 780.269 270.385 776.432 281.534 771.407C323.675 752.242 364.187 735.009 411.32 719.383C460.036 703.308 502.386 677.799 540.716 653.947C549.8 648.259 558.638 643.368 567.131 638.592C591.797 624.893 614.725 614.473 642.859 609.903C659.574 607.233 677.523 604.905 696.986 604.019C747.185 601.826 778.798 613.689 816.359 603.993C821.412 602.667 826.528 600.803 831.726 598.674C857.394 587.738 885.541 565.452 910.83 533.397C941.255 494.745 966.486 442.535 981.05 391.457C993.967 346.368 1000.66 301.726 1012.08 256.143C1031.44 178.569 1065.93 96.7435 1110.55 28.2251C1135.64 -10.1984 1163.55 -43.7231 1193.69 -72.113C1248.27 -123.818 1309.96 -158.47 1373.45 -179.628C1408.89 -191.478 1444.05 -197.394 1477.55 -197.32" stroke="#AD1AAF" stroke-miterlimit="10"/>
</svg>
