<svg width="1440" height="939" viewBox="0 0 1440 939" fill="none" xmlns="http://www.w3.org/2000/svg">
<path d="M-89.3126 889.758C-51.6277 931.671 10.7531 949.511 75.7268 943.445C109.742 940.235 144.504 929.986 177.983 911.374C212.222 892.272 242.478 865.986 274.632 839.144C284.769 830.652 294.688 821.881 304.488 812.834C342.526 777.785 378.085 743.524 423.61 723.082C465.956 704.057 508.079 695.31 543.097 700.713C551.737 702.023 559.854 704.372 567.587 707.634C589.035 716.515 606.603 731.716 629.949 740.041C644.682 745.318 660.735 745.328 677.462 741.501C723.046 731.087 768.327 692.32 801.566 649.102C806.122 643.222 810.42 637.193 814.417 631.147C834.606 600.927 851.973 567.333 867.692 531.504C886.797 487.989 903.498 441.391 920.674 395.891C936.779 353.536 954.832 308.488 976.019 263.492C1011.59 187.666 1056.32 111.444 1104.72 52.0112C1133.41 16.9458 1163 -11.1172 1193.64 -34.0392C1248.91 -75.559 1307.66 -100.302 1370.73 -120.646C1404.94 -131.73 1438.93 -138.818 1472.17 -142.475" stroke="#FF1CF7" stroke-miterlimit="10"/>
</svg>
