<svg width="1440" height="728" viewBox="0 0 1440 728" fill="none" xmlns="http://www.w3.org/2000/svg">
<path d="M-156.057 727.545C-115.064 669.009 -55.3281 632.848 -2.20544 625.124C20.7291 621.803 42.8189 623.238 63.2209 629.102C89.629 636.555 113.227 650.706 136.497 664.563C184.003 692.883 230.153 720.162 290.027 708.579C336.751 699.518 382.466 690.673 428.93 670.616C464.892 655.021 495.593 627.999 523.631 592.997C535.973 577.525 547.765 560.785 559.376 542.937C582.515 507.51 604.943 469.982 629.772 438.909C658.183 403.38 689.993 376.835 728.606 371.965C739.073 370.657 748.627 370.944 757.493 373.112C795.118 381.909 819.227 420.111 853.761 443.276C869.365 453.801 887.293 460.207 905.507 462.649C925.986 465.224 947.331 462.634 967.485 454.758C1005.85 439.854 1039.85 407.26 1057.07 369.976C1071.56 338.433 1073.27 307.238 1081.18 273.25C1097.62 202.978 1138.57 117.535 1193.54 40.6036C1208.79 19.1257 1225.17 -1.59955 1242.52 -21.033C1321.27 -109.746 1418.16 -170.765 1500.25 -182.69" stroke="#FF1CF7" stroke-miterlimit="10"/>
</svg>
