<svg width="1440" height="767" viewBox="0 0 1440 767" fill="none" xmlns="http://www.w3.org/2000/svg">
<path d="M-144.569 766.244C-89.6486 731.905 -9.03462 713.855 57.3426 725.75C91.1521 731.531 121.296 743.47 150.845 751.984C181.124 760.813 209.829 766.701 243.028 763.089C253.727 761.954 264.655 759.748 276.138 756.082C319.648 742.228 361.764 730.868 409.259 716.84C460.032 701.92 502.332 670.909 541.738 636.88C550.942 628.877 559.98 621.407 568.775 614.058C594.545 592.654 619.084 573.889 648.91 564.791C666.154 559.565 684.853 556.323 705.206 556.433C756.91 556.891 783.607 585.984 822.741 587.603C827.965 587.774 833.355 587.412 838.91 586.518C866.378 582.027 898.133 563.686 926.586 532.947C960.718 495.897 988.902 441.954 1002.58 389.058C1014.47 342.973 1017.26 298.524 1025.28 252.89C1039.11 174.781 1070.12 91.3074 1113.3 19.6672C1137.14 -19.886 1164.37 -55.0361 1194.26 -85.4195C1248.48 -140.547 1311.04 -178.505 1374.52 -199.731C1410.32 -211.733 1445.8 -217.38 1479.31 -215.956" stroke="#FF1CF7" stroke-miterlimit="10"/>
</svg>
