<svg width="1440" height="733" viewBox="0 0 1440 733" fill="none" xmlns="http://www.w3.org/2000/svg">
<path d="M-163.997 712.831C-101.854 646.185 -13.7583 612.939 53.125 632.393C86.7198 642.13 114.81 663.258 142.577 683.414C171.037 704.019 198.928 723.773 232.621 729.837C243.443 731.834 254.823 732.366 266.988 731.036C312.703 725.818 357.358 725.032 405.676 713.428C459.863 700.669 502.44 660.256 543.345 609.12C552.837 597.281 562.124 585.43 571.514 573.584C598.984 538.96 626.465 506.653 658.948 489.76C677.257 480.345 696.998 475.373 718.856 477.337C773.009 482.149 791.972 539.795 833.181 560.876C838.667 563.65 844.503 565.627 850.648 566.941C881.212 573.366 918.986 561.551 952.684 533.014C993.149 498.744 1026.31 441.705 1038.2 385.87C1048.44 338.383 1044.32 294.277 1046.98 248.39C1051.25 169.493 1076.85 83.1312 1117.38 6.36271C1139.2 -34.8591 1165.33 -73.2392 1194.82 -106.655C1248.52 -167.529 1312.5 -210.909 1376.03 -232.655C1412.44 -245.095 1448.4 -250.068 1481.92 -246.467" stroke="#AD1AAF" stroke-miterlimit="10"/>
</svg>
