<svg width="1440" height="740" viewBox="0 0 1440 740" fill="none" xmlns="http://www.w3.org/2000/svg">
<path d="M-150.85 739.589C-111.323 680.161 -51.1654 643.949 1.8271 636.61C24.6592 633.413 46.6447 634.979 67.1067 640.444C93.6888 647.507 117.665 660.605 141.583 672.874C190.428 697.885 238.856 719.158 298.815 704.251C345.554 692.693 391.227 679.836 436.988 656.531C472.038 638.648 502.203 610.439 529.492 574.91C541.487 559.249 553.076 542.189 564.4 524.288C587.007 488.621 608.714 451.114 633.036 419.399C660.741 383.206 692.247 355.076 729.893 347.11C740.218 344.966 750.021 344.167 759.135 345.252C797.818 349.862 824.36 384.152 859.102 407.234C874.673 417.638 892.074 424.849 909.551 428.764C929.214 433.082 949.433 432.894 968.723 428.251C1005.49 419.408 1038.95 395.794 1058.3 364.886C1074.32 339.285 1078.98 312.053 1089.45 282C1111.14 220.15 1154.82 141.575 1209.76 69.0246C1225.08 48.7452 1241.15 29.0605 1258.07 10.388C1334.93 -74.6271 1426.71 -137.312 1505.61 -157.432" stroke="#FF1CF7" stroke-miterlimit="10"/>
</svg>
