<svg width="1440" height="856" viewBox="0 0 1440 856" fill="none" xmlns="http://www.w3.org/2000/svg">
<path d="M-116.301 840.33C-71.3857 850.78 -1.32842 853.952 64.4207 855.12C98.4044 855.769 131.306 854.604 163.307 847.055C195.912 839.542 225.616 826.471 258.341 809.268C268.751 803.818 279.164 797.695 289.58 790.899C329.906 764.714 368.252 739.625 414.796 721.886C460.755 704.382 503.105 686.263 539.959 675.632C548.865 673.057 557.383 671.403 565.577 670.133C588.827 666.65 609.704 666.529 635.371 668.845C651.077 670.171 668.33 668.491 686.694 666.202C734.883 660.413 772.726 649.571 808.428 624.73C813.263 621.378 818.018 617.616 822.714 613.717C846.03 594.075 869.358 566.757 890.373 532.973C915.754 492.037 937.198 442.25 953.009 393.749C967.288 349.872 979.232 304.914 994.969 259.641C1021.73 182.69 1060.76 103.228 1107.18 38.7451C1133.93 1.66154 1162.58 -29.2501 1193.02 -55.3422C1248.08 -102.616 1308.51 -132.738 1371.81 -153.534C1406.79 -165.082 1441.53 -171.527 1474.86 -173.072" stroke="#AD1AAF" stroke-miterlimit="10"/>
</svg>
