<svg width="1440" height="942" viewBox="0 0 1440 942" fill="none" xmlns="http://www.w3.org/2000/svg">
<path d="M1851.23 -131.991C1780.05 -118.157 1690.6 -67.696 1617.39 -15.2548C1591.31 3.46782 1568.35 23.2882 1549.85 44.4281C1531.67 65.3672 1517.68 86.4446 1506.11 108.338C1492.52 133.859 1482.39 160.618 1472.58 189.072C1465.97 208.45 1459.77 230.548 1453.96 255.194C1436.6 329.645 1426.77 422.714 1374.78 491.675C1347.31 528.271 1310.22 554.708 1269.98 564.716C1209.29 579.843 1148.83 558.594 1081.57 549.158C1042.94 543.686 1004.51 542.33 968.736 546.249C937.591 549.577 908.355 557.386 881.496 569.287C825.201 594.183 776.51 619.944 719.875 641.081C623.594 676.996 501.369 692.337 378.655 696.695C371.822 696.967 365.154 697.224 358.305 697.325C231.563 701.53 111.92 702.854 -0.617113 749.54C-6.4203 751.96 -12.0577 754.364 -17.83 757.125C-66.1656 779.408 -110.211 812.158 -146.601 855.589C-212.61 934.087 -262.496 1026.29 -309.695 1118.6" stroke="#AD1AAF" stroke-miterlimit="10"/>
</svg>
