<svg width="1440" height="935" viewBox="0 0 1440 935" fill="none" xmlns="http://www.w3.org/2000/svg">
<path d="M1871.71 0.792721C1819.99 50.4324 1746.8 110.624 1668.56 144.394C1640.87 156.37 1614.19 166.532 1589.15 176.374C1564.45 186.185 1541.52 195.32 1519.55 205.746C1493.86 217.713 1469.24 232.169 1446.29 250.265C1430.05 263.103 1414.56 278.63 1400.73 297.798C1358.54 356.571 1340.36 440.572 1299.9 511.25C1278.41 549.201 1251.42 581.962 1217.92 603.596C1167.49 636.061 1107.68 640.598 1043.39 639.855C1007.56 639.471 971.438 637.734 937.311 635.818C907.392 634.212 878.666 632.842 851.329 632.036C791.45 630.205 736.432 622.938 677.599 616.015C578.688 604.268 465.879 590.501 350.573 602.805C344.283 603.545 337.994 604.285 331.539 605.04C213.705 620.846 105.636 661.444 14.3699 730.678C9.67021 734.203 4.98593 737.9 0.301645 741.596C-38.8279 773.214 -74.2343 810.87 -104.968 853.963C-160.629 932.216 -205.093 1019.62 -247.913 1106.71" stroke="#AD1AAF" stroke-miterlimit="10"/>
</svg>
