<svg width="1440" height="942" viewBox="0 0 1440 942" fill="none" xmlns="http://www.w3.org/2000/svg">
<path d="M1868.89 -12.2851C1814.37 32.266 1738.88 90.9437 1661.39 127.574C1633.96 140.561 1607.74 152.06 1583.68 163.536C1559.96 174.982 1538.18 185.735 1517.86 197.736C1494.02 211.604 1471.39 227.775 1450.25 247.431C1435.27 261.189 1421.2 277.622 1408.62 297.71C1369.98 358.748 1352.92 444.026 1310.92 514.325C1288.58 552.181 1260.16 583.865 1225.67 603.865C1173.69 633.886 1113.87 634.633 1049.14 632.723C1012.91 631.686 976.463 629.979 942.08 628.948C912.058 628.04 883.123 628.067 855.94 628.97C796.566 630.884 742.479 628.358 684.016 625.537C585.556 620.641 471.277 610.97 355.033 622.153C348.728 622.722 342.273 623.477 335.817 624.232C216.668 638.434 107.095 673.481 12.6839 739.38C7.80284 742.75 2.9371 746.291 -1.76261 749.816C-42.1925 780 -78.8374 816.907 -110.401 860.075C-167.555 938.463 -212.802 1026.46 -256.224 1114.29" stroke="#AD1AAF" stroke-miterlimit="10"/>
</svg>
