<svg width="1440" height="942" viewBox="0 0 1440 942" fill="none" xmlns="http://www.w3.org/2000/svg">
<path d="M1865.92 -32.1768C1808.6 7.28586 1730.81 64.6201 1654.06 103.769C1626.89 117.766 1601.12 130.603 1578.05 143.713C1555.29 156.622 1534.86 169.321 1515.85 182.926C1493.71 198.882 1473.24 216.753 1453.9 237.797C1440.33 252.461 1427.52 269.815 1416.02 290.667C1380.92 353.969 1365.15 440.51 1321.46 510.617C1298.26 548.206 1268.44 579.156 1232.96 597.521C1179.58 625.083 1119.61 622.226 1054.42 618.979C1017.79 617.117 981.005 615.441 946.367 615.294C916.075 615.099 887.325 617.177 860.069 619.121C801.077 623.412 748.058 627.165 689.768 628.119C591.744 629.903 476.01 624.499 358.663 634.575C352.192 635.159 345.722 635.743 339.251 636.328C218.771 648.754 107.527 678.266 10.1526 740.987C5.09022 744.201 0.209168 747.57 -4.8378 750.955C-46.5525 779.877 -84.4358 816.034 -116.829 859.277C-175.491 937.628 -221.507 1026.38 -265.531 1114.96" stroke="#AD1AAF" stroke-miterlimit="10"/>
</svg>
