<svg width="1440" height="942" viewBox="0 0 1440 942" fill="none" xmlns="http://www.w3.org/2000/svg">
<path d="M1836.71 -231.649C1751.69 -243.273 1650.57 -199.856 1581.06 -134.138C1556.25 -110.704 1535.76 -83.8708 1522.18 -54.5598C1508.57 -25.5907 1501.04 4.03571 1496.74 34.232C1491.71 69.3187 1491.42 105.011 1491.66 141.001C1491.81 164.937 1492.23 191.779 1492.3 220.374C1492.17 306.02 1488.95 405.557 1428.48 473.216C1396.74 508.819 1352.2 530.586 1307.39 532.564C1239.55 535.242 1178.6 495.601 1108.95 480.006C1068.15 470.938 1028.25 469.888 991.335 477.873C959.186 484.91 929.495 498.79 903.303 519.935C849.187 563.416 805.554 613.704 750.361 654.525C656.17 724.712 527.107 760.657 399.026 759.297C391.83 759.257 384.785 759.032 377.573 758.821C244.403 754.818 116.558 728.28 -11.0228 758.406C-17.5668 760.03 -23.9447 761.64 -30.4733 763.435C-85.2638 779.064 -135.637 808.423 -176.19 852.058C-249.365 930.858 -303.467 1026.37 -353.661 1122.57" stroke="#FF9EFA" stroke-miterlimit="10"/>
</svg>
