<svg width="1440" height="942" viewBox="0 0 1440 942" fill="none" xmlns="http://www.w3.org/2000/svg">
<path d="M1845.46 -171.789C1768.68 -168.132 1674.62 -120.529 1602.9 -62.7084C1577.33 -42.1358 1555.45 -19.4849 1538.76 4.93843C1522.38 29.1609 1510.87 53.6327 1502.28 78.8753C1492.2 108.043 1485.92 138.59 1480.07 170.132C1476.13 191.336 1472.6 215.26 1469.29 241.577C1458.86 320.571 1451.6 416.165 1396.22 484.571C1367.04 520.804 1326.93 545.273 1284.9 552.169C1221.43 562.379 1160.63 533.751 1092.48 521.811C1052.88 514.875 1013.96 513.565 977.84 519.237C946.32 523.978 916.818 534.395 890.283 549.885C834.832 582.287 788.182 617.684 732.107 646.869C636.547 696.331 511.729 720.004 386.808 722.148C379.959 722.25 372.944 722.366 366.08 722.297C236.706 723.293 113.873 713.36 -4.60635 753.519C-10.6063 755.611 -16.6062 757.704 -22.7412 760.153C-73.6618 779.74 -120.335 811.177 -158.4 854.587C-227.245 933.168 -278.847 1026.73 -327.235 1120.7" stroke="#AD1AAF" stroke-miterlimit="10"/>
</svg>
