<svg width="1440" height="942" viewBox="0 0 1440 942" fill="none" xmlns="http://www.w3.org/2000/svg">
<path d="M1827.79 -291.495C1734.36 -318.554 1626.35 -279.168 1558.9 -205.537C1534.86 -179.072 1515.9 -148.242 1505.09 -114.184C1494.25 -80.468 1490.53 -45.6721 1490.69 -10.537C1490.86 30.283 1496.41 71.3073 1502.57 111.759C1506.48 138.457 1511.34 168.171 1514.8 199.046C1525.32 291.484 1525.63 395.009 1460.23 461.736C1425.93 496.88 1377.12 515.759 1329.34 512.663C1257.16 507.98 1195.86 456.999 1124.88 437.905C1082.88 426.534 1041.83 425.76 1004.47 436.197C971.839 445.345 941.657 463.06 915.793 489.689C862.846 544.264 822.365 609.086 767.92 661.9C674.917 752.656 541.776 800.858 410.384 796.178C403.007 795.983 395.78 795.601 388.372 795.064C251.405 786.063 118.532 742.748 -18.1191 763.182C-25.0566 764.153 -31.9632 765.466 -38.8699 766.778C-97.5303 778.449 -151.769 805.744 -194.661 849.418C-272.346 928.28 -328.768 1025.9 -380.767 1124.33" stroke="#FFDFFA" stroke-miterlimit="10"/>
</svg>
