<svg width="1440" height="895" viewBox="0 0 1440 895" fill="none" xmlns="http://www.w3.org/2000/svg">
<path d="M1877.64 0.575332C1831.52 60.392 1762.95 123.442 1683.23 152.003C1655.21 162.114 1627.27 169.461 1600.43 176.019C1573.92 182.547 1548.34 188.302 1523.56 195.364C1494.52 203.499 1465.71 214.198 1438.98 229.361C1419.89 240.217 1401.72 253.918 1385.75 271.556C1336.44 325.63 1315.86 407.091 1278.8 478.324C1259.01 516.638 1234.86 551.21 1203.34 576.283C1155.71 613.837 1096.04 625.426 1032.82 627.342C997.795 628.437 962.34 626.641 928.721 622.956C899.162 619.766 870.551 615.973 843.056 611.563C782.301 601.885 725.289 585.494 665.881 570.353C566.265 545.229 456.033 522.96 342.934 537.477C336.811 538.202 330.537 539.113 324.444 540.18C209.076 559.209 104.726 611.36 19.2051 686.795C14.7022 690.647 10.3806 694.656 6.07441 698.835C-30.4855 732.977 -63.2489 772.118 -92.3237 815.062C-145.148 893.231 -187.895 979.278 -229.677 1064.89" stroke="#AD1AAF" stroke-miterlimit="10"/>
</svg>
