<svg width="1440" height="942" viewBox="0 0 1440 942" fill="none" xmlns="http://www.w3.org/2000/svg">
<path d="M1842.49 -191.681C1762.91 -193.112 1666.56 -146.853 1595.57 -86.5136C1570.25 -64.9305 1548.83 -40.9422 1533.12 -14.8846C1517.71 10.8011 1507.53 37.0481 1500.25 63.895C1491.85 94.9784 1487.57 127.241 1483.7 160.327C1481.18 182.437 1478.91 207.282 1476.67 234.363C1469.79 315.621 1463.81 412.478 1406.74 480.692C1376.72 516.829 1335.19 540.392 1292.16 545.483C1227.13 553.249 1166.32 520.831 1097.73 507.725C1057.74 500.135 1018.49 498.855 982.096 505.241C950.306 510.695 920.912 522.308 894.381 539.694C839.42 575.669 793.73 616.15 738.009 649.265C642.901 705.578 516.628 733.518 390.588 734.385C383.573 734.501 376.543 734.447 369.679 734.377C238.989 733.769 114.501 718.472 -6.97235 755.111C-13.1537 757.047 -19.3348 758.984 -25.4852 761.262C-77.6907 779.586 -125.602 810.273 -164.497 853.759C-234.835 932.475 -287.221 1026.63 -336.211 1121.34" stroke="#FFA8FC" stroke-miterlimit="10"/>
</svg>
