<svg width="1440" height="942" viewBox="0 0 1440 942" fill="none" xmlns="http://www.w3.org/2000/svg">
<path d="M1833.74 -251.541C1745.93 -268.253 1642.51 -226.18 1573.73 -157.943C1549.17 -133.499 1529.3 -105.343 1516.54 -74.3831C1503.92 -43.7797 1497.54 -12.5341 1494.72 19.2515C1491.53 56.2393 1493.07 93.6622 1495.29 131.196C1496.7 156.053 1498.7 183.785 1499.84 213.145C1503.26 301.055 1501.16 401.87 1439.17 469.322C1406.58 504.829 1360.63 525.69 1314.81 525.863C1245.42 526.097 1184.44 482.495 1114.37 465.905C1073.16 456.013 1032.93 454.993 995.757 463.861C963.504 471.597 933.604 486.875 907.4 509.744C853.624 556.985 811.086 611.998 756.098 656.936C662.358 733.974 531.826 774.015 402.641 771.548C395.429 771.337 388.218 771.127 381.007 770.916C246.521 765.309 117.005 733.236 -13.5542 760.012C-20.1136 761.466 -26.8389 762.935 -33.3829 764.559C-89.4582 778.925 -141.236 807.549 -182.469 851.073C-257.152 929.837 -312.022 1026.11 -362.818 1123.05" stroke="#FF9EFA" stroke-miterlimit="10"/>
</svg>
