<svg width="1440" height="942" viewBox="0 0 1440 942" fill="none" xmlns="http://www.w3.org/2000/svg">
<path d="M1854.21 -111.929C1785.83 -93.0062 1698.68 -41.2019 1624.72 8.54967C1598.55 26.2468 1574.97 44.7447 1555.5 64.4214C1536.33 83.7263 1521.03 103.199 1507.98 123.503C1492.71 147.108 1480.42 172.168 1468.8 199.062C1460.77 217.534 1453.3 238.54 1446.43 262.593C1425.52 334.78 1414.57 426.572 1364.11 495.74C1337.5 532.603 1301.81 559.774 1262.57 571.587C1203.44 589.158 1142.98 571.699 1076.17 563.43C1037.95 558.782 999.836 557.225 964.315 560.26C933.274 562.889 904.096 569.486 877.233 579.493C820.432 600.644 770.978 621.649 713.972 638.684C617.406 667.733 496.485 678.993 374.709 684.472C368.041 684.73 361.208 685.002 354.556 685.43C228.979 691.425 111.006 698.284 1.59833 748.134C-4.02352 750.709 -9.62978 753.455 -15.0703 756.186C-62.121 779.731 -104.928 813.232 -140.489 856.588C-204.989 935.122 -254.106 1026.57 -300.704 1118.13" stroke="#FF1CF7" stroke-miterlimit="10"/>
</svg>
