<svg width="1440" height="915" viewBox="0 0 1440 915" fill="none" xmlns="http://www.w3.org/2000/svg">
<path d="M1874.67 0.684164C1825.75 55.4123 1754.87 116.948 1675.9 148.199C1647.96 159.335 1620.65 168.004 1594.79 176.197C1569.27 184.359 1544.86 191.904 1521.55 200.555C1494.19 210.606 1467.56 223.176 1442.63 239.728C1424.97 251.66 1408.21 266.096 1393.16 284.684C1347.41 341.194 1327.95 423.932 1289.35 494.787C1268.72 533.005 1243.15 566.672 1210.63 589.939C1161.59 624.863 1101.95 633.005 1038.1 633.599C1002.67 633.868 966.881 632.102 933.023 629.473C903.375 627.152 874.707 624.571 847.2 621.885C786.8 616.138 731.034 604.286 671.831 593.262C572.65 574.819 460.964 556.816 346.761 570.227C340.471 570.967 334.182 571.707 327.924 572.789C211.24 590.214 105.204 636.658 16.7198 708.915C12.2015 712.596 7.69842 716.449 3.19548 720.301C-34.6493 753.181 -68.8171 791.587 -98.5556 834.591C-152.874 912.894 -196.404 999.529 -238.622 1085.87" stroke="#AD1AAF" stroke-miterlimit="10"/>
</svg>
