<svg width="1440" height="855" viewBox="0 0 1440 855" fill="none" xmlns="http://www.w3.org/2000/svg">
<path d="M1883.42 0.544468C1842.74 70.5531 1778.92 136.275 1697.73 159.628C1669.21 167.889 1640.17 172.405 1611.55 175.851C1583.25 179.266 1555.03 181.642 1527.27 185.354C1494.71 189.672 1461.88 196.598 1431.38 209C1409.44 217.873 1388.76 229.733 1370.5 246.028C1314.09 295.574 1291.1 374.495 1257.44 446.283C1239.2 485.146 1218.23 521.499 1188.49 549.685C1143.82 592.141 1084.31 611.124 1021.99 615.544C987.912 617.931 953.12 616.075 919.876 610.978C890.691 606.376 862.331 599.804 834.694 591.961C772.882 574.28 714.223 548.905 654.089 525.731C553.586 487.076 446.114 456.459 335.221 473.189C329.113 474.085 323.187 475.137 317.11 476.375C204.222 498.799 103.213 562.02 23.8154 644.139C19.6905 648.474 15.5657 652.809 11.6068 657.13C-22.3681 693.968 -52.6699 734.437 -80.0856 777.231C-129.909 855.301 -171.104 940.002 -211.682 1024.13" stroke="#AD1AAF" stroke-miterlimit="10"/>
</svg>
