<svg width="1440" height="942" viewBox="0 0 1440 942" fill="none" xmlns="http://www.w3.org/2000/svg">
<path d="M1848.26 -151.882C1774.28 -143.136 1682.54 -94.019 1610.05 -39.0591C1584.24 -19.326 1561.73 1.83155 1544.21 24.6057C1527.01 47.179 1514.19 70.0465 1504.1 93.5289C1492.18 120.795 1484.06 149.441 1476.24 179.61C1471.05 199.894 1466.1 222.912 1461.54 248.308C1447.56 325.038 1439.18 419.354 1385.49 487.953C1357.17 524.452 1318.48 549.827 1277.42 558.186C1215.33 570.855 1154.7 545.831 1087 535.229C1047.98 529.103 1009.22 527.777 973.175 532.409C941.759 536.451 912.466 545.471 885.776 559.252C829.82 587.909 782.241 618.566 725.96 643.633C630.115 686.229 506.436 705.836 382.618 709.088C375.769 709.189 368.936 709.461 362.087 709.563C234.029 712.163 112.7 707.78 -2.80007 751.289C-8.61868 753.537 -14.6035 755.8 -20.3912 758.39C-70.027 779.24 -115.295 811.411 -152.681 854.933C-220.018 933.55 -270.852 1026.36 -318.654 1119.41" stroke="#FFA8FC" stroke-miterlimit="10"/>
</svg>
