<svg width="1440" height="942" viewBox="0 0 1440 942" fill="none" xmlns="http://www.w3.org/2000/svg">
<path d="M1859.97 -72.131C1797.03 -43.0162 1714.65 11.631 1639.39 56.1593C1612.72 72.0064 1588.04 87.6738 1566.77 104.067C1545.82 120.259 1528.02 136.167 1511.99 153.122C1493.37 172.894 1476.91 194.367 1461.51 218.329C1450.8 234.975 1440.65 254.155 1431.3 276.537C1403.3 344.367 1389.93 433.448 1342.87 503.171C1317.96 540.397 1285.12 569.379 1247.84 584.461C1191.51 607.121 1131.37 596.87 1065.45 591.104C1028.02 587.763 990.586 586.318 955.59 587.754C924.923 588.972 896.011 592.96 868.975 599.191C811.148 612.682 759.834 624.206 702.285 633.364C604.982 648.695 486.67 651.794 367.1 659.486C360.448 659.914 353.962 660.328 347.326 660.927C224.38 670.13 109.764 688.23 6.2977 744.608C1.03854 747.495 -4.20504 750.553 -9.44877 753.611C-53.9144 779.852 -94.2597 814.681 -128.146 858.058C-189.645 936.494 -237.377 1026.61 -282.604 1116.67" stroke="#FF1CF7" stroke-miterlimit="10"/>
</svg>
