<svg width="1440" height="942" viewBox="0 0 1440 942" fill="none" xmlns="http://www.w3.org/2000/svg">
<path d="M1824.99 -311.402C1694.26 -355.082 1537.57 -269.432 1499.62 -134.022C1478.24 -57.6583 1491.3 24.0397 1506.38 102.11C1527.72 212.524 1560.44 369.295 1470.95 458.183C1435.79 493.06 1385.58 511.205 1336.81 506.475C1263.07 499.347 1201.76 444.576 1130.51 424.301C1051.19 401.653 975.467 418.827 920.285 480.151C867.677 538.486 828.291 608.033 774.217 664.949C681.65 762.386 547.054 814.854 414.724 809.053C261.56 802.203 113.598 741.815 -41.2197 768.54C-101.18 778.778 -156.643 805.494 -200.364 849.243C-279.376 928.225 -336.581 1026.43 -389.349 1125.62" stroke="white" stroke-miterlimit="10"/>
</svg>
