<svg width="1440" height="942" viewBox="0 0 1440 942" fill="none" xmlns="http://www.w3.org/2000/svg">
<path d="M1830.76 -271.604C1740.13 -293.575 1634.41 -252.845 1566.38 -181.919C1542.08 -156.464 1522.67 -126.971 1510.89 -94.3767C1499.23 -62.3101 1494.03 -29.1034 1492.86 4.25655C1491.36 43.1604 1494.91 82.4696 1499.09 121.377C1501.75 147.154 1505.19 175.963 1507.57 206.073C1514.54 296.247 1513.57 398.51 1449.87 465.599C1416.42 500.839 1369.05 520.795 1322.25 519.334C1251.46 517.109 1190.33 469.903 1119.8 451.975C1078.19 441.258 1037.63 440.439 1000.19 450.021C967.671 458.471 937.714 474.959 911.68 499.709C858.393 550.524 816.801 610.449 762.183 659.488C668.728 743.393 536.891 787.514 406.769 783.926C399.558 783.715 392.165 783.349 384.938 782.967C249.136 775.756 117.935 737.977 -15.5879 761.574C-22.3441 762.701 -29.0693 764.17 -35.9605 765.653C-93.3361 778.586 -146.337 806.632 -188.399 850.23C-264.575 929.129 -320.229 1025.99 -371.627 1123.67" stroke="#FFDFFA" stroke-miterlimit="10"/>
</svg>
