<svg width="1440" height="942" viewBox="0 0 1440 942" fill="none" xmlns="http://www.w3.org/2000/svg">
<path d="M1839.51 -211.743C1757.13 -218.263 1658.47 -173.518 1588.22 -110.489C1563.16 -87.8953 1542.2 -62.5698 1527.63 -34.893C1513.21 -7.57301 1504.2 20.464 1498.56 48.8852C1491.84 81.8848 1489.56 115.862 1487.67 150.493C1486.4 173.524 1485.73 199.43 1484.56 227.276C1481.23 310.798 1476.37 408.932 1417.61 476.954C1386.73 512.824 1343.78 535.482 1299.77 538.938C1233.34 544.246 1172.53 508.038 1103.33 493.78C1062.93 485.366 1023.36 484.286 986.7 491.386C954.806 497.539 925.188 510.379 898.826 529.644C844.205 569.38 799.611 614.585 744.079 651.646C649.422 714.811 521.679 746.846 394.701 746.592C387.671 746.538 380.641 746.483 373.445 746.443C241.59 744.045 115.431 723.213 -9.17106 756.688C-15.5337 758.468 -21.8965 760.249 -28.0778 762.185C-81.5835 779.077 -130.718 809.185 -170.442 852.745C-242.289 931.425 -295.442 1026.34 -345.034 1121.79" stroke="#FFA8FC" stroke-miterlimit="10"/>
</svg>
