<svg width="1440" height="942" viewBox="0 0 1440 942" fill="none" xmlns="http://www.w3.org/2000/svg">
<path d="M1857.17 -92.037C1791.6 -68.0258 1706.76 -14.707 1632.06 32.355C1605.64 49.2125 1581.42 66.2172 1561.14 84.2447C1541.17 102.071 1524.53 119.769 1509.98 138.313C1493.04 160.002 1478.74 183.175 1465.15 208.696C1455.87 226.248 1446.97 246.348 1438.86 269.48C1414.41 339.574 1402.16 429.932 1353.56 499.277C1327.79 536.236 1293.54 564.484 1255.28 577.931C1197.56 598.132 1137.25 584.107 1070.88 577.174C1033.06 573.18 995.294 571.765 960.027 573.914C929.256 575.831 900.121 581.045 873.254 589.156C815.932 606.392 765.564 622.828 708.203 635.932C611.186 658.129 491.57 665.309 371.062 671.879C364.41 672.308 357.743 672.565 351.091 672.993C226.829 680.592 110.528 692.986 4.09839 746.186C-1.34211 748.917 -6.76731 751.819 -12.1924 754.721C-57.9429 779.699 -99.5265 813.778 -134.258 857.06C-197.265 935.459 -245.599 1026.32 -291.595 1117.14" stroke="#FF1CF7" stroke-miterlimit="10"/>
</svg>
