<svg width="1440" height="875" viewBox="0 0 1440 875" fill="none" xmlns="http://www.w3.org/2000/svg">
<path d="M1880.44 0.482262C1836.96 65.4024 1770.84 129.781 1690.38 155.653C1662.1 164.753 1633.7 170.763 1605.9 175.857C1578.42 180.922 1551.52 184.902 1525.25 190.374C1494.53 196.593 1463.71 205.406 1435.02 219.196C1414.5 229.146 1395.08 241.926 1377.88 258.814C1325.01 310.625 1303.15 390.824 1267.96 462.404C1248.86 501 1226.47 536.448 1195.75 562.999C1149.68 602.996 1090 618.205 1027.24 621.459C992.771 623.192 957.647 621.366 924.133 616.982C894.843 613.079 866.276 607.904 838.792 601.77C777.501 588.005 719.59 567.215 659.978 547.957C559.925 516.153 450.983 489.632 338.987 505.255C332.879 506.151 326.771 507.047 320.679 508.114C206.642 528.919 103.796 586.62 21.4043 665.218C17.0981 669.397 12.9425 673.391 8.81766 677.726C-26.442 713.302 -57.9822 753.022 -86.2275 795.89C-137.544 874.095 -179.523 959.384 -220.703 1044.26" stroke="#AD1AAF" stroke-miterlimit="10"/>
</svg>
