<svg width="1440" height="942" viewBox="0 0 1440 942" fill="none" xmlns="http://www.w3.org/2000/svg">
<path d="M1862.96 -52.0682C1802.82 -17.8649 1722.75 38.2968 1646.72 79.9646C1619.8 94.8012 1594.66 109.131 1572.41 123.89C1550.47 138.448 1531.36 152.752 1513.84 168.117C1493.38 185.989 1475.09 205.732 1457.71 228.149C1445.58 243.889 1434.18 262.148 1423.74 283.595C1392.19 349.161 1377.54 436.979 1332.17 506.894C1308.12 544.387 1276.69 574.275 1240.4 590.991C1185.63 616.095 1125.48 609.463 1059.85 605.049C1022.83 602.533 985.713 600.887 950.971 601.439C920.574 601.943 891.539 604.564 864.514 609.071C806.182 618.816 753.892 625.087 696.019 630.656C598.342 639.991 481.423 638.139 362.957 646.938C356.471 647.351 349.835 647.95 343.364 648.534C221.568 659.357 108.638 683.163 8.30068 742.705C3.22285 745.748 -2.00537 748.977 -7.06777 752.191C-50.0827 779.679 -89.1896 815.257 -122.412 858.575C-182.568 937.061 -229.366 1026.4 -273.992 1115.72" stroke="#FF1CF7" stroke-miterlimit="10"/>
</svg>
